<?xml version="1.0" encoding="UTF-8" standalone="no"?>
<svg
   viewBox="0 0 456.53931 456.53947"
   width="456.53931"
   height="456.53949"
   version="1.1"
   id="svg55"
   xml:space="preserve"
   xmlns:xlink="http://www.w3.org/1999/xlink"
   xmlns="http://www.w3.org/2000/svg"
   xmlns:svg="http://www.w3.org/2000/svg"><style
     id="style1" /><desc
     id="desc1">small_assy.dxf - scale = 1.000000, origin = (0.000000, 0.000000), method = manual</desc><defs
     id="defs4"><linearGradient
       id="swatch63"><stop
         style="stop-color:#000000;stop-opacity:0.8;"
         offset="0"
         id="stop63" /></linearGradient><linearGradient
       id="swatch62"><stop
         style="stop-color:#edba5c;stop-opacity:0.8;"
         offset="0"
         id="stop62" /></linearGradient><linearGradient
       id="swatch61"><stop
         style="stop-color:#efb78f;stop-opacity:0.8;"
         offset="0"
         id="stop61" /></linearGradient><linearGradient
       id="swatch60"><stop
         style="stop-color:#000000;stop-opacity:0.8;"
         offset="0"
         id="stop60" /></linearGradient><linearGradient
       id="swatch59"><stop
         style="stop-color:#811eae;stop-opacity:0.8;"
         offset="0"
         id="stop59" /></linearGradient><linearGradient
       id="swatch58"><stop
         style="stop-color:#168969;stop-opacity:0.8;"
         offset="0"
         id="stop58" /></linearGradient><linearGradient
       id="swatch57"><stop
         style="stop-color:#efb78f;stop-opacity:0.8;"
         offset="0"
         id="stop57" /></linearGradient><linearGradient
       id="swatch56"><stop
         style="stop-color:#f4c2b0;stop-opacity:0.8;"
         offset="0"
         id="stop56" /></linearGradient><linearGradient
       id="swatch51"><stop
         style="stop-color:#edba5c;stop-opacity:0.8;"
         offset="0"
         id="stop51" /></linearGradient><linearGradient
       id="swatch49"><stop
         style="stop-color:#ec7c43;stop-opacity:0.8;"
         offset="0"
         id="stop49" /></linearGradient><linearGradient
       id="swatch48"><stop
         style="stop-color:#f4c2b0;stop-opacity:0.8;"
         offset="0"
         id="stop48" /></linearGradient><linearGradient
       id="swatch27"><stop
         style="stop-color:#000000;stop-opacity:1;"
         offset="0"
         id="stop27" /></linearGradient><linearGradient
       id="swatch26"><stop
         style="stop-color:#000000;stop-opacity:1;"
         offset="0"
         id="stop26" /></linearGradient><linearGradient
       id="swatch25"><stop
         style="stop-color:#5a7f79;stop-opacity:0.8;"
         offset="0"
         id="stop25" /></linearGradient><linearGradient
       id="swatch41"><stop
         style="stop-color:#000000;stop-opacity:0.8;"
         offset="0"
         id="stop41" /></linearGradient><linearGradient
       id="swatch24"><stop
         style="stop-color:#000000;stop-opacity:1;"
         offset="0"
         id="stop24" /></linearGradient><linearGradient
       id="swatch23"><stop
         style="stop-color:#000000;stop-opacity:1;"
         offset="0"
         id="stop23" /></linearGradient><linearGradient
       id="swatch22"><stop
         style="stop-color:#000000;stop-opacity:1;"
         offset="0"
         id="stop22" /></linearGradient><linearGradient
       id="swatch21"><stop
         style="stop-color:#000000;stop-opacity:1;"
         offset="0"
         id="stop21" /></linearGradient><linearGradient
       id="swatch20"><stop
         style="stop-color:#000000;stop-opacity:1;"
         offset="0"
         id="stop20" /></linearGradient><linearGradient
       id="swatch19"><stop
         style="stop-color:#000000;stop-opacity:1;"
         offset="0"
         id="stop19" /></linearGradient><linearGradient
       id="swatch18"><stop
         style="stop-color:#545454;stop-opacity:1;"
         offset="0"
         id="stop18" /></linearGradient><linearGradient
       id="swatch17"><stop
         style="stop-color:#545454;stop-opacity:1;"
         offset="0"
         id="stop17" /></linearGradient><linearGradient
       id="swatch16"><stop
         style="stop-color:#282828;stop-opacity:1;"
         offset="0"
         id="stop16" /></linearGradient><linearGradient
       id="swatch15"><stop
         style="stop-color:#545454;stop-opacity:1;"
         offset="0"
         id="stop15" /></linearGradient><linearGradient
       id="swatch14"><stop
         style="stop-color:#545454;stop-opacity:1;"
         offset="0"
         id="stop14" /></linearGradient><linearGradient
       id="swatch2394"><stop
         style="stop-color:#424242;stop-opacity:1;"
         offset="0"
         id="stop2394" /></linearGradient><linearGradient
       id="swatch1389"><stop
         style="stop-color:#f4f4f4;stop-opacity:1;"
         offset="0"
         id="stop1389" /></linearGradient><linearGradient
       id="swatch1388"><stop
         style="stop-color:#000000;stop-opacity:1;"
         offset="0"
         id="stop1388" /></linearGradient><linearGradient
       id="swatch1387"><stop
         style="stop-color:#ff0000;stop-opacity:0.629079;"
         offset="0"
         id="stop1387" /></linearGradient><linearGradient
       id="swatch1386"><stop
         style="stop-color:#000000;stop-opacity:1;"
         offset="0"
         id="stop1386" /></linearGradient><linearGradient
       id="swatch1385"><stop
         style="stop-color:#000000;stop-opacity:1;"
         offset="0"
         id="stop1385" /></linearGradient><linearGradient
       id="swatch1384"><stop
         style="stop-color:#282828;stop-opacity:1;"
         offset="0"
         id="stop1384" /></linearGradient><linearGradient
       id="swatch1383"><stop
         style="stop-color:#1d1d1d;stop-opacity:1;"
         offset="0"
         id="stop1383" /></linearGradient><linearGradient
       id="swatch1382"><stop
         style="stop-color:#282828;stop-opacity:1;"
         offset="0"
         id="stop1382" /></linearGradient><linearGradient
       id="swatch1217"><stop
         style="stop-color:#f9f9f9;stop-opacity:0.629079;"
         offset="0"
         id="stop1217" /></linearGradient><linearGradient
       id="swatch13"><stop
         style="stop-color:#168969;stop-opacity:0.8;"
         offset="0"
         id="stop13" /></linearGradient><linearGradient
       id="swatch12"><stop
         style="stop-color:#811eae;stop-opacity:0.80000001;"
         offset="0"
         id="stop12" /></linearGradient><linearGradient
       id="swatch11"><stop
         style="stop-color:#f4c2b0;stop-opacity:0.80000001;"
         offset="0"
         id="stop11" /></linearGradient><linearGradient
       id="swatch10"><stop
         style="stop-color:#efb78f;stop-opacity:0.80000001;"
         offset="0"
         id="stop10" /></linearGradient><linearGradient
       id="swatch4"><stop
         style="stop-color:#858989;stop-opacity:0.80000001;"
         offset="0"
         id="stop4" /></linearGradient><linearGradient
       id="swatch3"><stop
         style="stop-color:#000000;stop-opacity:0.80000001;"
         offset="0"
         id="stop3" /></linearGradient><linearGradient
       id="swatch2"><stop
         style="stop-color:#d9d9d9;stop-opacity:0.80000001;"
         offset="0"
         id="stop2" /></linearGradient><linearGradient
       id="swatch495"><stop
         style="stop-color:#282828;stop-opacity:1;"
         offset="0"
         id="stop495" /></linearGradient><linearGradient
       id="swatch489"><stop
         style="stop-color:#f4f4f4;stop-opacity:1;"
         offset="0"
         id="stop489" /></linearGradient><linearGradient
       id="swatch442"><stop
         style="stop-color:#3561e9;stop-opacity:0.80000001;"
         offset="0"
         id="stop442" /></linearGradient><linearGradient
       id="swatch9"
       gradientTransform="translate(2565.7671,74.97117)"><stop
         style="stop-color:#000000;stop-opacity:0.629079;"
         offset="0"
         id="stop9" /></linearGradient><linearGradient
       id="swatch8"><stop
         style="stop-color:#191919;stop-opacity:1;"
         offset="0"
         id="stop8" /></linearGradient><linearGradient
       id="swatch7"><stop
         style="stop-color:#373737;stop-opacity:1;"
         offset="0"
         id="stop7" /></linearGradient><linearGradient
       id="swatch6"><stop
         style="stop-color:#ffffff;stop-opacity:1;"
         offset="0"
         id="stop6" /></linearGradient><linearGradient
       id="swatch5"><stop
         style="stop-color:#ff0000;stop-opacity:1;"
         offset="0"
         id="stop5" /></linearGradient><linearGradient
       id="swatch1"><stop
         style="stop-color:#ffffff;stop-opacity:1;"
         offset="0"
         id="stop1" /></linearGradient><filter
       style="color-interpolation-filters:sRGB"
       id="filter579-5-2"
       x="-0.030720003"
       y="-0.030719996"
       width="1.06144"
       height="1.06144"><feGaussianBlur
         stdDeviation="5.5054494"
         id="feGaussianBlur579-4-1" /></filter><filter
       style="color-interpolation-filters:sRGB"
       id="filter58-6-0-0"
       x="-0.1936"
       y="-0.034164706"
       width="1.3872"
       height="1.0683294"><feGaussianBlur
         stdDeviation="0.968"
         id="feGaussianBlur58-8-4-1" /></filter><linearGradient
       xlink:href="#swatch5"
       id="linearGradient2033"
       gradientUnits="userSpaceOnUse"
       x1="-143.00195"
       y1="293.54492"
       x2="-61.601562"
       y2="293.54492" /><linearGradient
       xlink:href="#swatch5"
       id="linearGradient2034"
       gradientUnits="userSpaceOnUse"
       x1="-143.00195"
       y1="293.54492"
       x2="-61.601562"
       y2="293.54492" /><linearGradient
       xlink:href="#swatch5"
       id="linearGradient2035"
       gradientUnits="userSpaceOnUse"
       x1="-143.00195"
       y1="293.54492"
       x2="-61.601562"
       y2="293.54492" /><linearGradient
       xlink:href="#swatch1383"
       id="linearGradient2043"
       gradientUnits="userSpaceOnUse"
       x1="1953.5319"
       y1="22.060753"
       x2="2222.6599"
       y2="22.060753" /></defs><g
     id="layer8"
     transform="translate(-3990.5342,47.79742)"><g
       id="g1827"
       transform="translate(3180.486,-502.20455)"
       style="display:inline;stroke:#000000;stroke-width:1.00157;stroke-dasharray:1.00157, 1.00157;stroke-dashoffset:0;stroke-opacity:0.174959"><g
         id="g1811"
         style="display:inline;stroke:#000000;stroke-width:1.00157;stroke-dasharray:1.00157, 1.00157;stroke-dashoffset:0;stroke-opacity:0.174959"
         transform="matrix(3.7795276,0,0,3.7795276,185.15806,762.80729)"><g
           id="g1800"
           style="display:inline;opacity:0.6;fill:#000000;fill-opacity:1;stroke:#000000;stroke-width:1.00157;stroke-dasharray:1.00157, 1.00157;stroke-dashoffset:0;stroke-opacity:0.174959;filter:url(#filter579-5-2)"
           transform="matrix(0.26458333,0,0,0.26458333,-48.989736,-201.82609)"><circle
             style="display:none;fill:#000000;fill-opacity:1;stroke:#000000;stroke-width:1.88976;stroke-linejoin:round;stroke-dasharray:none;stroke-dashoffset:0;stroke-opacity:1"
             id="circle1791"
             cx="1038.3187"
             cy="682.6767"
             r="182.64824" /><path
             d="m 178.67757,-21.83351 v -0.1785 c 0.008,-0.38806 0.0388,-0.52776 0.17075,-0.57433 0.16298,-0.0699 0.57432,-0.0931 1.5755,-0.0931 0.82268,0 1.03223,0.008 1.17193,0.0543 0.19403,0.0543 0.24836,0.16298 0.24836,0.46567 0,0.4191 -0.0699,0.4579 -0.98567,0.52775 -1.42804,0.11642 -2.16535,0.17075 -2.22743,0.17851 -0.80716,0.10865 -1.14089,0.30268 -1.30387,0.78387 -0.0854,0.24059 -0.11642,0.63641 -0.11642,1.49789 0,0.24836 0,0.33373 0.0233,0.58985 h 6.17009 v -1.18745 h -4.72652 v -0.0543 c 0.008,-0.25612 0.0621,-0.35701 0.25612,-0.43462 0.10089,-0.0466 0.40357,-0.0699 2.57668,-0.20955 0.87701,-0.0466 1.3582,-0.21731 1.58327,-0.55104 0.16298,-0.24836 0.22507,-0.55104 0.22507,-1.16417 0,-0.82268 -0.10865,-1.16416 -0.4579,-1.38924 -0.34149,-0.22507 -0.59761,-0.24835 -2.7552,-0.24835 -2.62325,0 -2.94922,0.19403 -2.94922,1.76177 v 0.22507 z"
             id="path1791"
             style="font-size:7.76111px;font-family:'Microgramma D Extended';-inkscape-font-specification:'Microgramma D Extended';text-align:center;letter-spacing:0px;word-spacing:0px;text-anchor:middle;display:inline;fill:#000000;fill-opacity:1;stroke:#000000;stroke-width:0;stroke-linejoin:round;stroke-dasharray:none;stroke-dashoffset:0;stroke-opacity:0.174959"
             aria-label="2"
             transform="matrix(3.7795276,0,0,3.7795276,185.1581,762.80728)" /><path
             d="m 70.706381,141.78985 c -0.946855,0 -1.699683,0.031 -2.087738,0.0931 -0.613128,0.0854 -1.001183,0.44239 -1.102078,1.00119 -0.05433,0.29492 -0.06209,0.43462 -0.06209,1.48237 0,1.23402 0,1.31939 0.06209,1.62983 0.100895,0.5588 0.48895,0.91581 1.102078,1.00119 0.380294,0.0621 1.140883,0.0931 2.087738,0.0931 0.939095,0 1.699683,-0.031 2.079978,-0.0931 0.613127,-0.0854 1.001183,-0.44239 1.102077,-1.00119 0.05433,-0.30268 0.06209,-0.4191 0.06209,-1.55998 0,-1.13312 -0.0078,-1.24954 -0.06209,-1.55222 -0.100894,-0.5588 -0.48895,-0.91581 -1.102077,-1.00119 -0.388056,-0.0621 -1.140883,-0.0931 -2.079978,-0.0931 z m -0.100894,1.34267 c 1.738489,0 1.769533,0.0233 1.769533,1.30387 0,1.28834 -0.02328,1.31163 -1.777294,1.31163 -1.513417,0 -1.567744,-0.0466 -1.567744,-1.33491 0,-1.22626 0.06985,-1.28059 1.575505,-1.28059 z"
             id="path1792"
             style="font-size:7.76111px;font-family:'Microgramma D Extended';-inkscape-font-specification:'Microgramma D Extended';text-align:center;letter-spacing:0px;word-spacing:0px;text-anchor:middle;display:inline;fill:#000000;fill-opacity:1;stroke:#000000;stroke-width:0;stroke-linejoin:round;stroke-dasharray:none;stroke-dashoffset:0;stroke-opacity:0.174959"
             aria-label="0"
             transform="matrix(3.7795276,0,0,3.7795276,654.2607,259.53264)" /><path
             d="m 72.396937,80.874107 h -1.008943 v -3.050112 h -2.553402 l -3.073395,2.235196 v 1.979081 h 4.128905 v 0.962376 h 1.497892 v -0.962376 h 1.008943 z m -2.506835,0 h -2.716385 v -0.201789 l 2.39818,-1.645353 h 0.318205 z"
             id="path1793"
             style="font-size:7.7611px;font-family:'Microgramma D Extended';-inkscape-font-specification:'Microgramma D Extended';text-align:center;letter-spacing:0px;word-spacing:0px;text-anchor:middle;display:inline;fill:#000000;fill-opacity:1;stroke:#000000;stroke-width:0;stroke-linejoin:round;stroke-dasharray:none;stroke-dashoffset:0;stroke-opacity:0.174959"
             aria-label="4"
             transform="matrix(3.7795276,0,0,3.7795276,654.2607,259.53264)" /><path
             d="m 228.78647,-68.263488 c -0.008,-0.659693 -0.0621,-0.900287 -0.24836,-1.094315 -0.30268,-0.325966 -0.88476,-0.419099 -2.64653,-0.419099 -2.3361,0 -2.9337,0.194027 -3.11997,1.016704 -0.0776,0.341488 -0.0931,0.605366 -0.0931,1.466848 0,1.722964 0.0621,2.079975 0.41134,2.405941 0.34925,0.318205 0.88477,0.411338 2.3749,0.411338 1.59878,0 2.21967,-0.0388 2.5534,-0.170744 0.53551,-0.201789 0.72954,-0.620888 0.72954,-1.55222 0,-1.396998 -0.43462,-1.69192 -2.46803,-1.69192 -1.35819,0 -1.69968,0.07761 -2.0955,0.457905 -0.008,-0.124178 -0.008,-0.225072 -0.008,-0.287161 0,-0.49671 0.0543,-0.682976 0.21731,-0.768349 0.17075,-0.07761 0.58985,-0.116416 1.35044,-0.116416 0.24835,0 0.54327,0.0078 0.877,0.02328 0.48119,0.01552 0.52775,0.02328 0.60537,0.08537 0.0543,0.03881 0.0776,0.09313 0.0854,0.232833 z m -3.25967,1.536698 c 1.61431,0 1.69192,0.02328 1.69192,0.551038 0,0.333728 -0.10865,0.473427 -0.38029,0.496711 -0.16298,0.01552 -0.88476,0.03881 -1.35043,0.03881 -0.51999,0 -0.86148,-0.01552 -0.9779,-0.04657 -0.21731,-0.04657 -0.30268,-0.194028 -0.30268,-0.496711 0,-0.232833 0.0854,-0.395816 0.24835,-0.465666 0.14746,-0.06209 0.32597,-0.07761 1.07103,-0.07761 z"
             id="path1794"
             style="font-size:7.7611px;font-family:'Microgramma D Extended';-inkscape-font-specification:'Microgramma D Extended';text-align:center;letter-spacing:0px;word-spacing:0px;text-anchor:middle;display:inline;fill:#000000;fill-opacity:1;stroke:#000000;stroke-width:0;stroke-linejoin:round;stroke-dasharray:none;stroke-dashoffset:0;stroke-opacity:0.174959"
             aria-label="6"
             transform="matrix(3.7795276,0,0,3.7795276,185.1581,762.80728)" /><path
             d="m 131.63752,80.354113 c -0.29493,0.04657 -0.41134,0.07761 -0.53552,0.1397 -0.34149,0.170744 -0.47343,0.49671 -0.47343,1.156404 0,0.690738 0.17075,1.024465 0.61313,1.218493 0.38806,0.162983 0.76059,0.194027 2.42146,0.194027 1.45909,0 1.82386,-0.02328 2.1964,-0.116416 0.62864,-0.162983 0.84595,-0.504472 0.84595,-1.296104 0,-0.597605 -0.10089,-0.900288 -0.37253,-1.094315 -0.13194,-0.100894 -0.25611,-0.1397 -0.63641,-0.201789 0.71402,-0.05433 0.94686,-0.333727 0.94686,-1.148642 0,-0.675216 -0.17075,-1.032227 -0.59761,-1.226254 -0.32596,-0.147461 -1.10207,-0.217311 -2.38266,-0.217311 -1.0167,0 -1.8549,0.05433 -2.18087,0.147461 -0.56656,0.162983 -0.79163,0.527755 -0.79163,1.296104 0,0.814915 0.23284,1.094315 0.94686,1.148642 z m 1.87042,-1.428042 c 0.56656,0 1.17969,0.02328 1.35043,0.05433 0.20179,0.0388 0.28716,0.155222 0.28716,0.395816 0,0.442382 0,0.442382 -1.53669,0.442382 -1.3582,0 -1.42029,-0.01552 -1.42029,-0.442382 0,-0.403577 0.1397,-0.450144 1.31939,-0.450144 z m 0.15522,2.010125 c 0.5588,0 1.18745,0.02328 1.29611,0.05433 0.18626,0.04657 0.24835,0.1397 0.24835,0.403578 0,0.481188 -0.0699,0.504471 -1.69192,0.504471 -1.33491,0 -1.38923,-0.01552 -1.38923,-0.465666 0,-0.481188 0.0388,-0.49671 1.53669,-0.49671 z"
             id="path1795"
             style="font-size:7.7611px;font-family:'Microgramma D Extended';-inkscape-font-specification:'Microgramma D Extended';text-align:center;letter-spacing:0px;word-spacing:0px;text-anchor:middle;display:inline;fill:#000000;fill-opacity:1;stroke:#000000;stroke-width:0;stroke-linejoin:round;stroke-dasharray:none;stroke-dashoffset:0;stroke-opacity:0.174959"
             aria-label="8"
             transform="matrix(3.7795276,0,0,3.7795276,654.2607,259.53264)" /><path
             d="m 263.93895,-23.78929 -1.89371,1.62207 0.86925,1.0167 1.52893,-1.28834 h 0.41134 v 3.82622 h 1.5755 v -5.17665 z m 7.12469,-0.0621 c -0.94685,0 -1.69968,0.031 -2.08773,0.0931 -0.61313,0.0854 -1.00118,0.44238 -1.10208,1.00118 -0.0543,0.29493 -0.0621,0.43462 -0.0621,1.48237 0,1.23402 0,1.31939 0.0621,1.62983 0.1009,0.5588 0.48895,0.91581 1.10208,1.00119 0.38029,0.0621 1.14088,0.0931 2.08773,0.0931 0.9391,0 1.69968,-0.031 2.07998,-0.0931 0.61312,-0.0854 1.00118,-0.44239 1.10207,-1.00119 0.0543,-0.30268 0.0621,-0.41909 0.0621,-1.55998 0,-1.13312 -0.008,-1.24953 -0.0621,-1.55222 -0.10089,-0.5588 -0.48895,-0.91581 -1.10207,-1.00118 -0.38806,-0.0621 -1.14088,-0.0931 -2.07998,-0.0931 z m -0.10089,1.34267 c 1.73849,0 1.76953,0.0233 1.76953,1.30386 0,1.28835 -0.0233,1.31163 -1.77729,1.31163 -1.51342,0 -1.56774,-0.0466 -1.56774,-1.33491 0,-1.22625 0.0699,-1.28058 1.5755,-1.28058 z"
             id="path1796"
             style="font-size:7.7611px;font-family:'Microgramma D Extended';-inkscape-font-specification:'Microgramma D Extended';text-align:center;letter-spacing:0px;word-spacing:0px;text-anchor:middle;display:inline;fill:#000000;fill-opacity:1;stroke:#000000;stroke-width:0;stroke-linejoin:round;stroke-dasharray:none;stroke-dashoffset:0;stroke-opacity:0.174959"
             aria-label="10"
             transform="matrix(3.7795276,0,0,3.7795276,185.1581,762.80728)" /><path
             style="baseline-shift:baseline;display:inline;overflow:visible;opacity:1;vector-effect:none;fill:#000000;fill-opacity:1;stroke:none;stroke-width:1.00157;stroke-linejoin:round;stroke-dasharray:none;stroke-dashoffset:0;stroke-opacity:1;enable-background:accumulate;stop-color:#000000;stop-opacity:1"
             d="m 101.61536,55.056475 c -3.006728,0 -5.936748,0.303025 -8.818071,0.753443 -23.454218,3.663727 -42.198479,21.600458 -46.9253,44.686162 v 5.2e-4 c -0.378872,1.85048 -0.668219,3.73362 -0.86248,5.64461 -0.194578,1.91232 -0.294556,3.85243 -0.294556,5.81567 0,3.92576 0.398671,7.75933 1.157552,11.46235 4.92933,24.06937 25.071198,42.61713 49.928218,45.14401 3.42e-4,4e-5 6.92e-4,-3e-5 10e-4,0 1.91158,0.19429 3.851543,0.29402 5.814117,0.29404 2.03899,-2e-5 4.05298,-0.10759 6.03684,-0.31729 26.78892,-2.82905 48.0524,-24.27259 50.6057,-51.1421 0.0851,-0.89534 0.0856,-1.81337 0.12867,-2.72025 0.043,-0.90713 0.12867,-1.80304 0.12868,-2.72076 v -5.2e-4 c 0,-29.445925 -22.40363,-53.689866 -51.08474,-56.605329 -1.91232,-0.194578 -3.85243,-0.294556 -5.81566,-0.294556 z m -0.50695,4.203878 v 0.665593 h 0.007 v 1.205094 h 0.99994 v -1.205094 h 0.008 v -0.665593 c 6.78454,0.06384 13.26062,1.406378 19.19883,3.798218 l -0.26252,0.633553 0.006,0.0026 -0.46199,1.114144 0.92398,0.382405 0.46147,-1.114144 0.007,0.0031 0.26252,-0.633553 c 6.10085,2.59579 11.6098,6.307435 16.27136,10.880473 l -0.47956,0.480074 0.004,0.0041 -0.85266,0.852661 0.70693,0.706933 0.85318,-0.852661 0.006,0.0057 0.48008,-0.479558 c 4.57305,4.661393 8.28522,10.170186 10.88099,16.270842 l -0.63407,0.263033 0.002,0.0047 -1.11517,0.461987 0.38292,0.923975 1.11518,-0.462505 0.004,0.0083 0.63356,-0.262517 c 2.39162,5.937549 3.73379,12.412887 3.7977,19.196767 h -0.6656 v 0.008 h -1.20716 v 0.99994 h 1.20716 v 0.006 h 0.6656 c -0.27111,28.89669 -23.73719,52.19319 -52.69859,52.19319 -14.382463,0 -27.409205,-5.74544 -36.912996,-15.06884 l 0.481107,-0.4806 -0.0052,-0.005 0.851111,-0.85215 -0.706933,-0.70693 -0.851111,0.85214 -0.0052,-0.005 -0.481107,0.48059 c -4.573098,-4.66148 -8.28525,-10.17049 -10.88099,-16.27136 l 0.635104,-0.26303 -0.0021,-0.006 1.112594,-0.46095 -0.382922,-0.92398 -1.112594,0.46096 -0.0031,-0.007 -0.635104,0.26303 c -2.391808,-5.93825 -3.734051,-12.41404 -3.797701,-19.19882 h 0.666626 v -0.006 h 1.204061 v -0.99994 H 49.58494 v -0.008 h -0.666626 c 0.0639,-6.78458 1.406291,-13.260265 3.798218,-19.198317 l 0.634587,0.262 0.0021,-0.0052 1.113627,0.461471 0.382922,-0.923975 -1.113627,-0.461471 0.0031,-0.0072 -0.634587,-0.262517 c 2.595707,-6.100299 6.30774,-11.609214 10.880473,-16.270324 l 0.481107,0.480591 0.0047,-0.0047 0.851628,0.851627 0.706933,-0.706933 -0.851111,-0.851628 0.0052,-0.0052 -0.481107,-0.480591 C 69.363666,69.75382 74.872658,66.041778 80.973205,63.446144 l 0.262516,0.63407 0.0062,-0.0026 0.460954,1.113627 0.923975,-0.382405 -0.460954,-1.114144 0.0062,-0.0026 -0.262516,-0.63407 c 5.938197,-2.391832 12.414111,-3.733985 19.19883,-3.797701 z"
             transform="matrix(3.7795276,0,0,3.7795276,654.2607,259.53264)"
             id="path1797" /><path
             style="baseline-shift:baseline;display:inline;overflow:visible;opacity:1;vector-effect:none;fill:#000000;fill-opacity:1;stroke:none;stroke-width:1.00157;stroke-linejoin:round;stroke-dasharray:none;stroke-dashoffset:0;stroke-opacity:1;enable-background:accumulate;stop-color:#000000;stop-opacity:1"
             d="m 103.41111,131.39238 v 3.76463 h 1.12913 l -0.0284,-2.81636 h 0.20309 l 1.41697,2.81636 h 0.95394 l 1.41645,-2.81636 h 0.19224 l -0.0284,2.81636 h 1.12913 v -3.76463 h -2.06603 l -1.12292,2.44378 -1.11777,-2.44378 z"
             transform="matrix(3.7795276,0,0,3.7795276,654.2607,259.53264)"
             id="path1798" /><path
             style="baseline-shift:baseline;display:inline;overflow:visible;opacity:1;vector-effect:none;fill:#000000;fill-opacity:1;stroke:none;stroke-width:1.00157;stroke-linejoin:round;stroke-dasharray:none;stroke-dashoffset:0;stroke-opacity:1;enable-background:accumulate;stop-color:#000000;stop-opacity:1"
             d="m 98.517353,131.39238 v 3.76463 h 1.146184 v -0.91984 h 1.444873 c 0.8128,0 1.06685,-0.0229 1.32085,-0.10749 0.45155,-0.16369 0.60358,-0.49116 0.60358,-1.32653 0,-0.9652 -0.20296,-1.26993 -0.91416,-1.37718 -0.20884,-0.0282 -0.31044,-0.0336 -1.02164,-0.0336 z m 1.146184,0.94258 h 1.433503 c 0.50236,0.006 0.5137,0.006 0.59273,0.0336 0.14675,0.0508 0.1974,0.16366 0.1974,0.4346 0,0.25964 -0.0339,0.3617 -0.14107,0.42943 -0.096,0.0564 -0.11848,0.0563 -0.64906,0.062 h -1.433503 z"
             transform="matrix(3.7795276,0,0,3.7795276,654.2607,259.53264)"
             id="path1799" /><path
             style="baseline-shift:baseline;display:inline;overflow:visible;opacity:1;vector-effect:none;fill:#000000;fill-opacity:1;stroke:none;stroke-width:1.00157;stroke-linejoin:round;stroke-dasharray:none;stroke-dashoffset:0;stroke-opacity:1;enable-background:accumulate;stop-color:#000000;stop-opacity:1"
             d="m 93.43756,131.39238 v 3.76463 h 1.145667 v -0.95395 h 1.620056 c 0.474133,0 0.558664,0.0115 0.637687,0.10181 0.09031,0.0959 0.113171,0.23141 0.113171,0.65474 v 0.1974 h 1.128614 v -0.34985 c 0.02258,-0.86924 -0.07905,-1.03865 -0.660425,-1.10639 0.225778,-0.0339 0.333039,-0.0735 0.440283,-0.15813 0.2032,-0.1524 0.259932,-0.36672 0.259932,-0.92552 0,-0.65475 -0.08472,-0.903 -0.372587,-1.07798 -0.24271,-0.14675 -0.242769,-0.14676 -1.540991,-0.14676 z m 1.145667,0.94258 h 1.614371 c 0.519289,0.006 0.536445,0.006 0.615467,0.0393 0.118534,0.0508 0.163297,0.15837 0.163297,0.41237 0,0.23707 -0.03372,0.34974 -0.124023,0.40618 -0.07902,0.0564 -0.079,0.0564 -0.654741,0.0677 h -1.614371 z"
             transform="matrix(3.7795276,0,0,3.7795276,654.2607,259.53264)"
             id="path1800" /></g></g><g
         id="g1813"
         style="display:inline;fill:#1a1a1a;stroke:#000000;stroke-width:1.00157;stroke-dasharray:1.00157, 1.00157;stroke-dashoffset:0;stroke-opacity:0.174959"
         transform="matrix(2.6727588,-2.6723004,2.6723004,2.6727588,469.63718,656.73664)"><g
           id="g1812"
           transform="matrix(0,0.99999999,0.99999999,0,101.55032,111.23825)"
           style="display:inline;mix-blend-mode:normal;fill:#000000;fill-opacity:1;stroke:#000000;stroke-width:1.00157;stroke-dasharray:1.00157, 1.00157;stroke-dashoffset:0;stroke-opacity:1;filter:url(#filter58-6-0-0)"><path
             id="path1811"
             style="display:inline;fill:#000000;fill-opacity:1;fill-rule:evenodd;stroke:none;stroke-width:1.00157;stroke-linecap:square;stroke-miterlimit:4;stroke-dasharray:1.00157, 1.00157;stroke-dashoffset:0;stroke-opacity:1"
             d="M 2.1355031,5.607105 1.802267,-5.7229218 0.5,-50 h -1 L -1.802267,-5.7229218 -2.1355031,5.607105 -2.5,18 h 5 z" /><circle
             cx="0"
             cy="0"
             r="6"
             stroke="#191919"
             stroke-width="0.7 px"
             style="display:inline;fill:#000000;fill-opacity:1;stroke:none;stroke-width:1.00157;stroke-linecap:square;stroke-miterlimit:4;stroke-dasharray:1.00157, 1.00157;stroke-dashoffset:0;stroke-opacity:1"
             id="circle1811" /><title
             id="title1811">b'Shape2DView'</title></g></g><g
         id="g1823"
         style="display:inline;fill:url(#linearGradient2043);fill-opacity:1;stroke:#000000;stroke-width:1.00157;stroke-dasharray:1.00157, 1.00157;stroke-dashoffset:0"
         transform="translate(-1017.5804,701.67142)"
         class="silkscreen"><g
           id="g1816"
           style="display:inline;opacity:1;fill:url(#linearGradient2035);fill-opacity:0.629079;stroke:#000000;stroke-width:1.00157;stroke-dasharray:1.00157, 1.00157;stroke-dashoffset:0;stroke-opacity:0.174959"
           transform="translate(2284.2615,-396.80765)"><path
             style="baseline-shift:baseline;display:inline;overflow:visible;vector-effect:none;fill:url(#linearGradient2033);fill-opacity:0.629079;stroke:none;stroke-linejoin:round;enable-background:accumulate;stop-color:#000000;stop-opacity:1"
             d="m -63.701172,265.46875 -79.300778,53.00977 2.09961,3.14257 79.300778,-53.00976 z"
             id="path1816" /><ellipse
             style="display:none;fill:url(#linearGradient2034);fill-opacity:0.629079;stroke:#000000;stroke-width:0.755906;stroke-linejoin:round;stroke-dasharray:none;stroke-dashoffset:0;stroke-opacity:1"
             id="ellipse1816"
             cx="-228.36134"
             cy="377.81302"
             rx="215.05557"
             ry="215.05667" /></g></g><g
         id="g1826"
         style="display:inline;fill:#484848;fill-opacity:1;stroke:#000000;stroke-width:1.00157;stroke-dasharray:1.00157, 1.00157;stroke-dashoffset:0;stroke-opacity:0.174959"
         transform="matrix(3.7795276,0,0,3.7795276,654.25932,259.53195)"><circle
           style="display:none;fill:#484848;fill-opacity:1;stroke:none;stroke-width:1.00157;stroke-linecap:butt;stroke-linejoin:round;stroke-dasharray:1.00157, 1.00157;stroke-dashoffset:0;stroke-opacity:1"
           id="circle1823"
           cx="-62.906124"
           cy="-137.48804"
           transform="matrix(0.39372053,-0.91923019,-0.91923019,-0.39372054,0,0)"
           r="52.5" /><circle
           style="display:inline;fill:#484848;fill-opacity:1;stroke:none;stroke-width:1.00157;stroke-linecap:butt;stroke-linejoin:round;stroke-dasharray:1.00157, 1.00157;stroke-dashoffset:0;stroke-opacity:1"
           id="circle1824"
           cx="101.61572"
           cy="156.44528"
           r="3.5" /><circle
           style="display:inline;fill:#484848;fill-opacity:1;stroke:none;stroke-width:1.00157;stroke-linecap:butt;stroke-linejoin:round;stroke-dasharray:1.00157, 1.00157;stroke-dashoffset:0;stroke-opacity:1"
           id="circle1825"
           cx="84.615738"
           cy="153.08488"
           r="3.5" /><circle
           style="display:inline;fill:#484848;fill-opacity:1;stroke:none;stroke-width:1.00157;stroke-linecap:butt;stroke-linejoin:round;stroke-dasharray:1.00157, 1.00157;stroke-dashoffset:0;stroke-opacity:1"
           id="circle1826"
           cx="118.61574"
           cy="153.08488"
           r="3.5" /></g></g></g></svg>
