<?xml version="1.0" encoding="UTF-8" standalone="no"?>
<svg
   viewBox="0 0 223.85522 223.85719"
   width="223.85522"
   height="223.85719"
   version="1.1"
   id="svg55"
   xml:space="preserve"
   xmlns:xlink="http://www.w3.org/1999/xlink"
   xmlns="http://www.w3.org/2000/svg"
   xmlns:svg="http://www.w3.org/2000/svg"><style
     id="style1" /><desc
     id="desc1">small_assy.dxf - scale = 1.000000, origin = (0.000000, 0.000000), method = manual</desc><defs
     id="defs4"><linearGradient
       id="swatch63"><stop
         style="stop-color:#000000;stop-opacity:0.8;"
         offset="0"
         id="stop63" /></linearGradient><linearGradient
       id="swatch62"><stop
         style="stop-color:#edba5c;stop-opacity:0.8;"
         offset="0"
         id="stop62" /></linearGradient><linearGradient
       id="swatch61"><stop
         style="stop-color:#efb78f;stop-opacity:0.8;"
         offset="0"
         id="stop61" /></linearGradient><linearGradient
       id="swatch60"><stop
         style="stop-color:#000000;stop-opacity:0.8;"
         offset="0"
         id="stop60" /></linearGradient><linearGradient
       id="swatch59"><stop
         style="stop-color:#811eae;stop-opacity:0.8;"
         offset="0"
         id="stop59" /></linearGradient><linearGradient
       id="swatch58"><stop
         style="stop-color:#168969;stop-opacity:0.8;"
         offset="0"
         id="stop58" /></linearGradient><linearGradient
       id="swatch57"><stop
         style="stop-color:#efb78f;stop-opacity:0.8;"
         offset="0"
         id="stop57" /></linearGradient><linearGradient
       id="swatch56"><stop
         style="stop-color:#f4c2b0;stop-opacity:0.8;"
         offset="0"
         id="stop56" /></linearGradient><linearGradient
       id="swatch51"><stop
         style="stop-color:#edba5c;stop-opacity:0.8;"
         offset="0"
         id="stop51" /></linearGradient><linearGradient
       id="swatch49"><stop
         style="stop-color:#ec7c43;stop-opacity:0.8;"
         offset="0"
         id="stop49" /></linearGradient><linearGradient
       id="swatch48"><stop
         style="stop-color:#f4c2b0;stop-opacity:0.8;"
         offset="0"
         id="stop48" /></linearGradient><linearGradient
       id="swatch27"><stop
         style="stop-color:#000000;stop-opacity:1;"
         offset="0"
         id="stop27" /></linearGradient><linearGradient
       id="swatch26"><stop
         style="stop-color:#000000;stop-opacity:1;"
         offset="0"
         id="stop26" /></linearGradient><linearGradient
       id="swatch25"><stop
         style="stop-color:#5a7f79;stop-opacity:0.8;"
         offset="0"
         id="stop25" /></linearGradient><linearGradient
       id="swatch41"><stop
         style="stop-color:#000000;stop-opacity:0.8;"
         offset="0"
         id="stop41" /></linearGradient><linearGradient
       id="swatch24"><stop
         style="stop-color:#000000;stop-opacity:1;"
         offset="0"
         id="stop24" /></linearGradient><linearGradient
       id="swatch23"><stop
         style="stop-color:#000000;stop-opacity:1;"
         offset="0"
         id="stop23" /></linearGradient><linearGradient
       id="swatch22"><stop
         style="stop-color:#000000;stop-opacity:1;"
         offset="0"
         id="stop22" /></linearGradient><linearGradient
       id="swatch21"><stop
         style="stop-color:#000000;stop-opacity:1;"
         offset="0"
         id="stop21" /></linearGradient><linearGradient
       id="swatch20"><stop
         style="stop-color:#000000;stop-opacity:1;"
         offset="0"
         id="stop20" /></linearGradient><linearGradient
       id="swatch19"><stop
         style="stop-color:#000000;stop-opacity:1;"
         offset="0"
         id="stop19" /></linearGradient><linearGradient
       id="swatch18"><stop
         style="stop-color:#545454;stop-opacity:1;"
         offset="0"
         id="stop18" /></linearGradient><linearGradient
       id="swatch17"><stop
         style="stop-color:#545454;stop-opacity:1;"
         offset="0"
         id="stop17" /></linearGradient><linearGradient
       id="swatch16"><stop
         style="stop-color:#282828;stop-opacity:1;"
         offset="0"
         id="stop16" /></linearGradient><linearGradient
       id="swatch15"><stop
         style="stop-color:#545454;stop-opacity:1;"
         offset="0"
         id="stop15" /></linearGradient><linearGradient
       id="swatch14"><stop
         style="stop-color:#545454;stop-opacity:1;"
         offset="0"
         id="stop14" /></linearGradient><linearGradient
       id="swatch2394"><stop
         style="stop-color:#424242;stop-opacity:1;"
         offset="0"
         id="stop2394" /></linearGradient><linearGradient
       id="swatch1389"><stop
         style="stop-color:#f4f4f4;stop-opacity:1;"
         offset="0"
         id="stop1389" /></linearGradient><linearGradient
       id="swatch1388"><stop
         style="stop-color:#000000;stop-opacity:1;"
         offset="0"
         id="stop1388" /></linearGradient><linearGradient
       id="swatch1387"><stop
         style="stop-color:#ff0000;stop-opacity:0.629079;"
         offset="0"
         id="stop1387" /></linearGradient><linearGradient
       id="swatch1386"><stop
         style="stop-color:#000000;stop-opacity:1;"
         offset="0"
         id="stop1386" /></linearGradient><linearGradient
       id="swatch1385"><stop
         style="stop-color:#000000;stop-opacity:1;"
         offset="0"
         id="stop1385" /></linearGradient><linearGradient
       id="swatch1384"><stop
         style="stop-color:#282828;stop-opacity:1;"
         offset="0"
         id="stop1384" /></linearGradient><linearGradient
       id="swatch1383"><stop
         style="stop-color:#1d1d1d;stop-opacity:1;"
         offset="0"
         id="stop1383" /></linearGradient><linearGradient
       id="swatch1382"><stop
         style="stop-color:#282828;stop-opacity:1;"
         offset="0"
         id="stop1382" /></linearGradient><linearGradient
       id="swatch1217"><stop
         style="stop-color:#f9f9f9;stop-opacity:0.629079;"
         offset="0"
         id="stop1217" /></linearGradient><linearGradient
       id="swatch13"><stop
         style="stop-color:#168969;stop-opacity:0.8;"
         offset="0"
         id="stop13" /></linearGradient><linearGradient
       id="swatch12"><stop
         style="stop-color:#811eae;stop-opacity:0.80000001;"
         offset="0"
         id="stop12" /></linearGradient><linearGradient
       id="swatch11"><stop
         style="stop-color:#f4c2b0;stop-opacity:0.80000001;"
         offset="0"
         id="stop11" /></linearGradient><linearGradient
       id="swatch10"><stop
         style="stop-color:#efb78f;stop-opacity:0.80000001;"
         offset="0"
         id="stop10" /></linearGradient><linearGradient
       id="swatch4"><stop
         style="stop-color:#858989;stop-opacity:0.80000001;"
         offset="0"
         id="stop4" /></linearGradient><linearGradient
       id="swatch3"><stop
         style="stop-color:#000000;stop-opacity:0.80000001;"
         offset="0"
         id="stop3" /></linearGradient><linearGradient
       id="swatch2"><stop
         style="stop-color:#d9d9d9;stop-opacity:0.80000001;"
         offset="0"
         id="stop2" /></linearGradient><linearGradient
       id="swatch495"><stop
         style="stop-color:#282828;stop-opacity:1;"
         offset="0"
         id="stop495" /></linearGradient><linearGradient
       id="swatch489"><stop
         style="stop-color:#f4f4f4;stop-opacity:1;"
         offset="0"
         id="stop489" /></linearGradient><linearGradient
       id="swatch442"><stop
         style="stop-color:#3561e9;stop-opacity:0.80000001;"
         offset="0"
         id="stop442" /></linearGradient><linearGradient
       id="swatch9"
       gradientTransform="translate(2565.7671,74.97117)"><stop
         style="stop-color:#000000;stop-opacity:0.629079;"
         offset="0"
         id="stop9" /></linearGradient><linearGradient
       id="swatch8"><stop
         style="stop-color:#191919;stop-opacity:1;"
         offset="0"
         id="stop8" /></linearGradient><linearGradient
       id="swatch7"><stop
         style="stop-color:#373737;stop-opacity:1;"
         offset="0"
         id="stop7" /></linearGradient><linearGradient
       id="swatch6"><stop
         style="stop-color:#ffffff;stop-opacity:1;"
         offset="0"
         id="stop6" /></linearGradient><linearGradient
       id="swatch5"><stop
         style="stop-color:#ff0000;stop-opacity:1;"
         offset="0"
         id="stop5" /></linearGradient><linearGradient
       id="swatch1"><stop
         style="stop-color:#ffffff;stop-opacity:1;"
         offset="0"
         id="stop1" /></linearGradient><linearGradient
       xlink:href="#swatch495"
       id="linearGradient500-4"
       x1="-3.5637872"
       y1="102.09228"
       x2="207.33385"
       y2="102.09228"
       gradientUnits="userSpaceOnUse" /><filter
       style="color-interpolation-filters:sRGB"
       id="filter557-6"
       x="-0.030720142"
       y="-0.030719859"
       width="1.0614403"
       height="1.0614397"><feGaussianBlur
         stdDeviation="2.6995022"
         id="feGaussianBlur557-7" /></filter><linearGradient
       xlink:href="#swatch489"
       id="linearGradient493-5"
       x1="604.75488"
       y1="880.0202"
       x2="678.84711"
       y2="880.0202"
       gradientUnits="userSpaceOnUse" /><linearGradient
       xlink:href="#swatch495"
       id="linearGradient846"
       gradientUnits="userSpaceOnUse"
       x1="-3.5637872"
       y1="102.09228"
       x2="207.33385"
       y2="102.09228" /><linearGradient
       xlink:href="#swatch489"
       id="linearGradient847"
       gradientUnits="userSpaceOnUse"
       x1="604.75488"
       y1="880.0202"
       x2="678.84711"
       y2="880.0202" /><linearGradient
       xlink:href="#swatch489"
       id="linearGradient848"
       gradientUnits="userSpaceOnUse"
       x1="604.75488"
       y1="880.0202"
       x2="678.84711"
       y2="880.0202" /><linearGradient
       xlink:href="#swatch495"
       id="linearGradient897"
       gradientUnits="userSpaceOnUse"
       x1="-3.5637872"
       y1="102.09228"
       x2="207.33385"
       y2="102.09228" /><linearGradient
       xlink:href="#swatch495"
       id="linearGradient900"
       gradientUnits="userSpaceOnUse"
       x1="-3.5637872"
       y1="102.09228"
       x2="207.33385"
       y2="102.09228" /><linearGradient
       xlink:href="#swatch495"
       id="linearGradient901"
       gradientUnits="userSpaceOnUse"
       x1="-3.5637872"
       y1="102.09228"
       x2="207.33385"
       y2="102.09228" /><linearGradient
       xlink:href="#swatch495"
       id="linearGradient902"
       gradientUnits="userSpaceOnUse"
       x1="-3.5637872"
       y1="102.09228"
       x2="207.33385"
       y2="102.09228" /><linearGradient
       xlink:href="#swatch495"
       id="linearGradient904"
       gradientUnits="userSpaceOnUse"
       x1="-3.5637872"
       y1="102.09228"
       x2="207.33385"
       y2="102.09228" /><linearGradient
       xlink:href="#swatch495"
       id="linearGradient2100"
       gradientUnits="userSpaceOnUse"
       x1="-3.5637872"
       y1="102.09228"
       x2="207.33385"
       y2="102.09228" /><linearGradient
       xlink:href="#swatch495"
       id="linearGradient2101"
       gradientUnits="userSpaceOnUse"
       x1="-3.5637872"
       y1="102.09228"
       x2="207.33385"
       y2="102.09228" /><linearGradient
       xlink:href="#swatch495"
       id="linearGradient2102"
       gradientUnits="userSpaceOnUse"
       x1="-3.5637872"
       y1="102.09228"
       x2="207.33385"
       y2="102.09228" /></defs><g
     id="layer29"
     transform="translate(-2903.5212,-193.99347)"><g
       id="g272-3-2"
       transform="translate(2373.6047,-493.31977)"
       style="display:inline;stroke:#000000;stroke-width:1.00157;stroke-dasharray:1.00157, 1.00157;stroke-dashoffset:0;stroke-opacity:0.174959"><g
         id="g264-0-8"
         transform="matrix(-1,0,0,1,743.72921,697.14948)"
         style="display:none;fill:url(#linearGradient846);stroke:#000000;stroke-width:1.00157;stroke-dasharray:1.00157, 1.00157;stroke-dashoffset:0;stroke-opacity:0.174959"><g
           id="layer11-3"
           transform="matrix(-1,0,0,1,3117.3339,-872.07234)"
           style="opacity:0.6;fill:#000000;fill-opacity:1;filter:url(#filter557-6)"><path
             style="baseline-shift:baseline;display:inline;overflow:visible;opacity:1;vector-effect:none;fill:#000000;fill-opacity:1;stroke:none;stroke-width:1;stroke-linejoin:round;stroke-dasharray:1.00157, 1.00157;stroke-dashoffset:0;stroke-opacity:0.174959;enable-background:accumulate;stop-color:#000000;stop-opacity:1"
             d="m 102.04748,0 c 56.33677,0 102.04701,45.710244 102.04701,102.04701 0,56.33674 -45.71024,102.04699 -102.04701,102.04699 C 45.71074,204.094 4.9e-4,158.38375 4.9e-4,102.047 4.9e-4,45.710244 45.71074,0 102.04748,0 Z m 0,3.7124737 c -54.33128,0 -98.33644,44.0032273 -98.33644,98.3345363 0,54.33128 44.00516,98.33644 98.33644,98.33644 54.33131,0 98.33454,-44.00516 98.33454,-98.33644 0,-54.331309 -44.00323,-98.3345364 -98.33454,-98.3345363 z"
             id="path261-9-4"
             transform="matrix(-1,0,0,1,3117.3339,872.07234)" /><text
             xml:space="preserve"
             style="font-size:21.3333px;font-family:Microgramma;-inkscape-font-specification:'Microgramma, Normal';text-align:center;letter-spacing:1px;word-spacing:0px;writing-mode:lr-tb;direction:ltr;text-anchor:middle;display:inline;fill:#000000;fill-opacity:1;stroke:none;stroke-width:1.88976;stroke-linejoin:round;stroke-dasharray:1.00157, 1.00157;stroke-dashoffset:0;stroke-opacity:0.174959"
             x="-74.956558"
             y="169.01979"
             id="text261-1-2"
             transform="translate(3117.3339,872.07234)"><tspan
               id="tspan261-9-2"
               x="-74.456558"
               y="169.01979"
               style="font-style:normal;font-variant:normal;font-weight:normal;font-stretch:normal;font-size:21.3333px;font-family:'Microgramma D Extended';-inkscape-font-specification:'Microgramma D Extended';fill:#000000;fill-opacity:1;stroke:none">0</tspan></text><text
             xml:space="preserve"
             style="font-size:21.3333px;font-family:Microgramma;-inkscape-font-specification:'Microgramma, Normal';text-align:center;letter-spacing:1px;word-spacing:0px;writing-mode:lr-tb;direction:ltr;text-anchor:middle;display:inline;fill:#000000;fill-opacity:1;stroke:none;stroke-width:1.88976;stroke-linejoin:round;stroke-dasharray:1.00157, 1.00157;stroke-dashoffset:0;stroke-opacity:0.174959"
             x="-86.75573"
             y="47.370083"
             id="text262-6-4"
             transform="translate(3117.3339,872.07234)"><tspan
               id="tspan262-2-5"
               x="-86.25573"
               y="47.370083"
               style="font-style:normal;font-variant:normal;font-weight:normal;font-stretch:normal;font-size:21.3333px;font-family:'Microgramma D Extended';-inkscape-font-specification:'Microgramma D Extended';fill:#000000;fill-opacity:1;stroke:none">10</tspan></text><rect
             style="display:inline;fill:#000000;fill-opacity:1;stroke:none;stroke-width:3.77954;stroke-linejoin:round;stroke-dasharray:none;stroke-dashoffset:0;stroke-opacity:1"
             id="rect262-5-1"
             width="14"
             height="3.71"
             x="-33.415192"
             y="100.19224"
             transform="translate(3117.3339,872.07234)" /><rect
             style="display:inline;fill:#000000;fill-opacity:1;stroke:none;stroke-width:3.77954;stroke-linejoin:round;stroke-dasharray:none;stroke-dashoffset:0;stroke-opacity:1"
             id="rect263-4-7"
             width="14"
             height="3.71"
             x="-71.365738"
             y="-13.02724"
             transform="rotate(-34.192793,2976.3419,-4631.624)" /><rect
             style="display:inline;fill:#000000;fill-opacity:1;stroke:none;stroke-width:3.77954;stroke-linejoin:round;stroke-dasharray:none;stroke-dashoffset:0;stroke-opacity:1"
             id="rect264-4-5"
             width="14"
             height="3.71"
             x="43.152401"
             y="178.05136"
             transform="rotate(34.13588,138.48219,5512.668)" /><text
             xml:space="preserve"
             style="font-size:16px;font-family:Microgramma;-inkscape-font-specification:'Microgramma, Normal';text-align:center;letter-spacing:1px;word-spacing:0px;writing-mode:lr-tb;direction:ltr;text-anchor:middle;display:inline;fill:#000000;fill-opacity:1;stroke:none;stroke-width:1.88976;stroke-linejoin:round;stroke-dasharray:1.00157, 1.00157;stroke-dashoffset:0;stroke-opacity:0.174959"
             x="-44.490326"
             y="107.31924"
             id="text264-9-7"
             transform="translate(3117.3339,872.07234)"><tspan
               x="-43.990326"
               y="107.31924"
               style="font-style:normal;font-variant:normal;font-weight:normal;font-stretch:normal;font-size:16px;font-family:'Microgramma D Extended';-inkscape-font-specification:'Microgramma D Extended';fill:#000000;fill-opacity:1;stroke:none"
               id="tspan264-9-1">5</tspan></text><path
             style="baseline-shift:baseline;display:inline;overflow:visible;vector-effect:none;fill:#000000;fill-opacity:1;stroke:none;stroke-width:10.2047;stroke-linejoin:round;stroke-dasharray:none;stroke-dashoffset:0;stroke-opacity:1;enable-background:accumulate;stop-color:#000000"
             d="m 101.88502,-3.3575122 c 58.17744,0 105.44883,47.2713802 105.44883,105.4488122 0,58.17742 -47.27139,105.45077 -105.44883,105.45077 -58.177417,0 -105.4488072,-47.27335 -105.4488072,-105.45077 0,-58.177432 47.2713902,-105.4488122 105.4488072,-105.4488122 z m 0,10.24184 c -52.642507,0 -95.2069672,42.5644402 -95.2069672,95.2069722 0,52.64252 42.5644602,95.20893 95.2069672,95.20893 52.64252,0 95.20895,-42.56641 95.20895,-95.20893 0,-52.642532 -42.56643,-95.2069722 -95.20895,-95.2069722 z"
             id="path177-1-3-3-6"
             transform="matrix(-1,0,0,1,3117.3339,872.07234)" /></g><g
           id="g788-9"
           transform="matrix(-1,0,0,1,3117.3339,-872.07234)"
           style="fill:url(#linearGradient904)"><path
             style="baseline-shift:baseline;display:inline;overflow:visible;opacity:1;vector-effect:none;fill:url(#linearGradient897);fill-opacity:1;stroke:none;stroke-width:1;stroke-linejoin:round;stroke-dasharray:1.00157, 1.00157;stroke-dashoffset:0;stroke-opacity:0.174959;enable-background:accumulate;stop-color:#000000;stop-opacity:1"
             d="m 102.04748,0 c 56.33677,0 102.04701,45.710244 102.04701,102.04701 0,56.33674 -45.71024,102.04699 -102.04701,102.04699 C 45.71074,204.094 4.9e-4,158.38375 4.9e-4,102.047 4.9e-4,45.710244 45.71074,0 102.04748,0 Z m 0,3.7124737 c -54.33128,0 -98.33644,44.0032273 -98.33644,98.3345363 0,54.33128 44.00516,98.33644 98.33644,98.33644 54.33131,0 98.33454,-44.00516 98.33454,-98.33644 0,-54.331309 -44.00323,-98.3345364 -98.33454,-98.3345363 z"
             id="path785-7"
             transform="matrix(-1,0,0,1,3117.3339,872.07234)" /><text
             xml:space="preserve"
             style="font-size:21.3333px;font-family:Microgramma;-inkscape-font-specification:'Microgramma, Normal';text-align:center;letter-spacing:1px;word-spacing:0px;writing-mode:lr-tb;direction:ltr;text-anchor:middle;display:inline;fill:url(#linearGradient2100);fill-opacity:1;stroke:none;stroke-width:1.88976;stroke-linejoin:round;stroke-dasharray:1.00157, 1.00157;stroke-dashoffset:0;stroke-opacity:0.174959"
             x="-74.956558"
             y="169.01979"
             id="text785-5"
             transform="translate(3117.3339,872.07234)"><tspan
               id="tspan785-9"
               x="-74.456558"
               y="169.01979"
               style="font-style:normal;font-variant:normal;font-weight:normal;font-stretch:normal;font-size:21.3333px;font-family:'Microgramma D Extended';-inkscape-font-specification:'Microgramma D Extended';fill:url(#linearGradient2100);fill-opacity:1;stroke:none">0</tspan></text><text
             xml:space="preserve"
             style="font-size:21.3333px;font-family:Microgramma;-inkscape-font-specification:'Microgramma, Normal';text-align:center;letter-spacing:1px;word-spacing:0px;writing-mode:lr-tb;direction:ltr;text-anchor:middle;display:inline;fill:url(#linearGradient2101);fill-opacity:1;stroke:none;stroke-width:1.88976;stroke-linejoin:round;stroke-dasharray:1.00157, 1.00157;stroke-dashoffset:0;stroke-opacity:0.174959"
             x="-86.75573"
             y="47.370083"
             id="text786-7"
             transform="translate(3117.3339,872.07234)"><tspan
               id="tspan786-8"
               x="-86.25573"
               y="47.370083"
               style="font-style:normal;font-variant:normal;font-weight:normal;font-stretch:normal;font-size:21.3333px;font-family:'Microgramma D Extended';-inkscape-font-specification:'Microgramma D Extended';fill:url(#linearGradient2101);fill-opacity:1;stroke:none">10</tspan></text><rect
             style="display:inline;fill:url(#linearGradient900);fill-opacity:1;stroke:none;stroke-width:3.77954;stroke-linejoin:round;stroke-dasharray:none;stroke-dashoffset:0;stroke-opacity:1"
             id="rect786-5"
             width="14"
             height="3.71"
             x="-33.415192"
             y="100.19224"
             transform="translate(3117.3339,872.07234)" /><rect
             style="display:inline;fill:url(#linearGradient901);fill-opacity:1;stroke:none;stroke-width:3.77954;stroke-linejoin:round;stroke-dasharray:none;stroke-dashoffset:0;stroke-opacity:1"
             id="rect787-3"
             width="14"
             height="3.71"
             x="-71.365738"
             y="-13.02724"
             transform="rotate(-34.192793,2976.3419,-4631.624)" /><rect
             style="display:inline;fill:url(#linearGradient902);fill-opacity:1;stroke:none;stroke-width:3.77954;stroke-linejoin:round;stroke-dasharray:none;stroke-dashoffset:0;stroke-opacity:1"
             id="rect788-3"
             width="14"
             height="3.71"
             x="43.152401"
             y="178.05136"
             transform="rotate(34.13588,138.48219,5512.668)" /><text
             xml:space="preserve"
             style="font-size:16px;font-family:Microgramma;-inkscape-font-specification:'Microgramma, Normal';text-align:center;letter-spacing:1px;word-spacing:0px;writing-mode:lr-tb;direction:ltr;text-anchor:middle;display:inline;fill:url(#linearGradient2102);fill-opacity:1;stroke:none;stroke-width:1.88976;stroke-linejoin:round;stroke-dasharray:1.00157, 1.00157;stroke-dashoffset:0;stroke-opacity:0.174959"
             x="-44.490326"
             y="107.31924"
             id="text788-8"
             transform="translate(3117.3339,872.07234)"><tspan
               x="-43.990326"
               y="107.31924"
               style="font-style:normal;font-variant:normal;font-weight:normal;font-stretch:normal;font-size:16px;font-family:'Microgramma D Extended';-inkscape-font-specification:'Microgramma D Extended';fill:url(#linearGradient2102);fill-opacity:1;stroke:none"
               id="tspan788-3">5</tspan></text><path
             style="baseline-shift:baseline;display:inline;overflow:visible;vector-effect:none;fill:url(#linearGradient500-4);fill-opacity:1;stroke:none;stroke-width:10.2047;stroke-linejoin:round;stroke-dasharray:none;stroke-dashoffset:0;stroke-opacity:1;enable-background:accumulate;stop-color:#000000"
             d="m 101.88502,-3.3575122 c 58.17744,0 105.44883,47.2713802 105.44883,105.4488122 0,58.17742 -47.27139,105.45077 -105.44883,105.45077 -58.177417,0 -105.4488072,-47.27335 -105.4488072,-105.45077 0,-58.177432 47.2713902,-105.4488122 105.4488072,-105.4488122 z m 0,10.24184 c -52.642507,0 -95.2069672,42.5644402 -95.2069672,95.2069722 0,52.64252 42.5644602,95.20893 95.2069672,95.20893 52.64252,0 95.20895,-42.56641 95.20895,-95.20893 0,-52.642532 -42.56643,-95.2069722 -95.20895,-95.2069722 z"
             id="path788-7"
             transform="matrix(-1,0,0,1,3117.3339,872.07234)" /></g></g><g
         id="g487-5-7"
         style="fill:url(#linearGradient493-5);fill-opacity:1"><path
           d="m 558.50394,609.96094 c -1.27524,-2.68894 -1.62609,-3.25449 -2.23507,-3.56775 -0.60898,-0.31327 -1.33291,-0.14703 -3.12554,0.70313 -1.88901,0.89586 -2.46111,1.33246 -2.60894,2.01645 -0.14277,0.66979 0.0731,1.29933 1.35753,4.00754 1.26153,2.66003 1.61695,3.23522 2.22593,3.54849 0.60898,0.31326 1.32327,0.15159 3.17373,-0.72599 1.84081,-0.87301 2.41798,-1.32382 2.56075,-1.9936 0.14276,-0.66979 -0.0732,-1.29933 -1.34839,-3.98827 z m -1.66734,0.79074 c 0.85016,1.79263 0.9218,2.01837 0.76671,2.36345 -0.12976,0.27404 -0.46857,0.50555 -1.42271,0.95805 -0.78066,0.37023 -1.09215,0.43532 -1.37076,0.29592 -0.31617,-0.1688 -0.50555,-0.46856 -1.25058,-2.03952 -0.76789,-1.61915 -0.88524,-1.94127 -0.80625,-2.29748 0.0734,-0.31815 0.30621,-0.49938 1.10615,-0.87876 0.81921,-0.38851 1.20373,-0.52365 1.48025,-0.51312 0.46729,0.0145 0.58304,0.1839 1.49719,2.11146 z m 4.38659,4.68363 -6.13739,3.59878 1.14924,1.95992 6.13739,-3.59879 z m 1.87745,3.2586 -5.85936,4.03568 4.15669,6.03505 1.49339,-1.02858 -2.86793,-4.16392 4.36597,-3.0071 z m 1.52742,14.11815 1.47578,1.58454 1.27232,-1.18498 1.86108,1.99824 c 1.04685,1.12401 1.40522,1.44618 1.84944,1.68839 0.80796,0.41363 1.45697,0.20273 2.6122,-0.87321 1.33477,-1.24314 1.49456,-1.91672 0.72686,-3.03835 -0.22995,-0.32516 -0.353,-0.47293 -1.269,-1.45644 l -3.32232,-3.56718 z m 4.05164,-0.81451 1.32696,-1.23587 1.84653,1.98263 c 0.63921,0.70197 0.65375,0.71758 0.7165,0.86321 0.11877,0.26838 0.0281,0.48402 -0.34659,0.83298 -0.35905,0.33441 -0.54318,0.41843 -0.77497,0.35736 -0.20164,-0.06 -0.23072,-0.0912 -0.92189,-0.81768 z m 3.01459,8.24564 1.64901,1.40338 1.16833,-1.37283 2.33136,1.98409 c 0.68235,0.5807 0.79037,0.70065 0.79349,0.9274 0.0124,0.24871 -0.12098,0.47132 -0.63947,1.08056 l -0.24196,0.28431 1.62464,1.38263 0.42862,-0.50363 c 1.09712,-1.22333 1.1583,-1.59146 0.40457,-2.40099 0.3664,0.22778 0.56914,0.30227 0.82718,0.31177 0.47909,0.0295 0.82302,-0.21 1.50742,-1.0142 0.80193,-0.94229 0.98426,-1.40341 0.78429,-2.0078 -0.16956,-0.50847 -0.16956,-0.50847 -2.0379,-2.0985 l -3.98849,-3.39437 z m 3.97184,-1.32602 1.13376,-1.33221 2.32324,1.97717 c 0.74042,0.64414 0.76479,0.66487 0.83704,0.8104 0.10836,0.21828 0.042,0.42793 -0.26909,0.79347 -0.29036,0.34118 -0.47736,0.46216 -0.67646,0.43279 -0.18286,-0.0156 -0.18286,-0.0156 -1.02525,-0.70445 z m 8.1696,2.1903 -3.97538,5.90044 6.56391,4.42238 0.95361,-1.4154 -4.79465,-3.23036 0.63176,-0.9377 4.52043,3.0456 0.87613,-1.3004 -4.52042,-3.0456 0.57813,-0.85808 4.75927,3.20652 0.93573,-1.38886 z m 4.90855,8.98143 -0.15849,0.30231 c -0.45565,0.86913 -0.5071,1.31187 -0.21616,1.81366 0.29543,0.51619 1.01607,1.00239 2.97163,2.02761 1.87999,0.9856 2.69831,1.3544 3.15049,1.4108 0.78062,0.0961 1.32745,-0.3037 1.90197,-1.39956 0.46061,-0.87859 0.52288,-1.38791 0.2369,-1.89915 -0.27251,-0.46804 -0.65397,-0.72825 -2.69768,-1.88398 -1.31223,-0.73613 -1.81697,-1.03687 -1.96225,-1.17326 -0.17363,-0.15124 -0.19427,-0.31863 -0.0704,-0.55481 0.24269,-0.46291 0.39476,-0.43136 2.01967,0.42051 1.36039,0.7132 1.58666,0.85591 1.69773,1.03458 0.0971,0.15932 0.0809,0.2592 -0.0835,0.61865 l 1.85164,0.97074 c 0.0738,-0.11786 0.14317,-0.25012 0.16298,-0.28791 0.39127,-0.74632 0.44813,-1.22235 0.20397,-1.67553 -0.28553,-0.53509 -0.90226,-0.96681 -2.735,-1.92764 -1.51155,-0.79244 -2.4005,-1.21031 -2.80856,-1.32789 -0.96819,-0.26671 -1.5906,0.0935 -2.2196,1.29327 -0.72805,1.38873 -0.5015,2.01334 1.03252,2.87778 l 0.50024,0.28634 0.99553,0.58213 1.48183,0.84913 c 0.60911,0.33138 0.70129,0.50014 0.50318,0.87802 -0.29222,0.55739 -0.29222,0.55739 -2.3517,-0.52231 -1.35094,-0.70825 -1.54887,-0.8361 -1.66893,-1.04357 -0.10163,-0.17372 -0.075,-0.31634 0.12308,-0.69423 z m 8.84054,4.55589 -0.12326,0.3183 c -0.35438,0.91511 -0.3554,1.36082 -0.01,1.82647 0.35194,0.47945 1.12298,0.88098 3.18198,1.67834 1.97944,0.76654 2.83424,1.04037 3.28989,1.04524 0.78649,0.007 1.28457,-0.45195 1.73139,-1.60579 0.35824,-0.92506 0.36248,-1.43816 0.0205,-1.91375 -0.32372,-0.4342 -0.73217,-0.64957 -2.89353,-1.56663 -1.3871,-0.58292 -1.92263,-0.82462 -2.08241,-0.94369 -0.18963,-0.13062 -0.22907,-0.2946 -0.13277,-0.54327 0.18874,-0.4874 0.34341,-0.47326 2.05427,0.18928 1.43236,0.55468 1.67333,0.67087 1.80391,0.83583 0.11453,0.1473 0.1097,0.24838 -0.0129,0.62411 l 1.94959,0.75499 c 0.06,-0.12546 0.11395,-0.26472 0.12936,-0.3045 0.3043,-0.78581 0.30693,-1.26521 0.0131,-1.68785 -0.34424,-0.49935 -1.00586,-0.85851 -2.93556,-1.60579 -1.5915,-0.61631 -2.52202,-0.93091 -2.94077,-1.00156 -0.99215,-0.15544 -1.5698,0.27286 -2.059,1.53612 -0.56624,1.4622 -0.27047,2.05716 1.35151,2.74246 l 0.52943,0.2279 1.05501,0.46575 1.56839,0.676 c 0.6427,0.26032 0.75338,0.41757 0.5993,0.81544 -0.22726,0.58687 -0.22726,0.58687 -2.39569,-0.25286 -1.42241,-0.55083 -1.63353,-0.65546 -1.7763,-0.84801 -0.12063,-0.1611 -0.11034,-0.30582 0.0437,-0.7037 z"
           id="text271-1-0"
           style="font-size:10.6667px;font-family:'Microgramma D Extended';-inkscape-font-specification:'Microgramma D Extended';text-align:center;letter-spacing:1px;word-spacing:0px;text-anchor:middle;fill:url(#linearGradient847);fill-opacity:1;stroke:none;stroke-linejoin:round"
           transform="rotate(-43.014597,922.74967,676.02332)"
           aria-label="OIL PRESS" /><path
           d="m 567.99385,620.90588 3.18907,4.00555 c 1.49658,1.86261 1.578,1.94776 1.93896,2.17849 0.55888,0.35947 1.13388,0.24254 1.92664,-0.38863 0.89291,-0.71089 1.03897,-1.19532 0.57948,-2.02933 0.6037,0.43288 1.08196,0.3657 1.87472,-0.26547 1.00973,-0.80392 1.12104,-1.38337 0.46361,-2.34612 -0.18263,-0.26363 -0.18263,-0.26363 -1.22402,-1.58877 l -3.18242,-3.9972 z m 4.6536,-1.07357 0.88456,-0.70425 1.90016,2.38663 c 0.60289,0.77438 0.62282,0.79941 0.67921,0.90449 0.0978,0.20846 0.0324,0.38323 -0.20123,0.56926 -0.20028,0.15945 -0.38865,0.21398 -0.53838,0.12867 -0.13644,-0.0686 -0.3458,-0.29733 -0.82416,-0.89816 z m -2.03615,1.62111 0.92628,-0.73747 1.9068,2.39498 c 0.77564,0.99134 0.77564,0.99134 0.82539,1.08808 0.11108,0.22515 0.054,0.39327 -0.20464,0.59923 -0.23366,0.18603 -0.40534,0.22727 -0.5767,0.13192 -0.15807,-0.0787 -0.15807,-0.0787 -0.97033,-1.08176 z m 9.75251,13.09303 1.78686,1.6966 2.19921,-7.72273 -2.44437,-2.32089 -7.62941,2.56683 1.79459,1.70394 1.27086,-0.45545 3.41128,3.23897 z m 0.91212,-2.94356 -2.30513,-2.18869 2.85604,-1.00959 0.30942,0.29379 z m 1.95353,5.43018 1.76058,1.26058 1.04945,-1.4657 2.48909,1.7822 c 0.72852,0.52162 0.84619,0.63211 0.86825,0.85781 0.0332,0.2468 -0.0811,0.47978 -0.54687,1.13024 l -0.21734,0.30355 1.73455,1.24195 0.38501,-0.53771 c 0.99099,-1.31077 1.02118,-1.68273 0.2024,-2.42641 0.38417,0.19635 0.59242,0.25363 0.85035,0.24152 0.47988,-0.0106 0.80258,-0.27808 1.41735,-1.13669 0.72033,-1.00604 0.86347,-1.48079 0.61366,-2.06635 -0.21148,-0.49251 -0.21148,-0.49251 -2.20622,-1.92075 l -4.25835,-3.049 z m 3.84706,-1.65348 1.0184,-1.42234 2.48042,1.77599 c 0.79169,0.57997 0.81771,0.5986 0.90187,0.73758 0.12624,0.20846 0.0776,0.42292 -0.2018,0.81319 -0.26081,0.36426 -0.43705,0.50046 -0.63791,0.48783 -0.18352,-2.1e-4 -0.18352,-2.1e-4 -1.08056,-0.61626 z"
           id="text272-7-4"
           style="font-size:10.6667px;font-family:'Microgramma D Extended';-inkscape-font-specification:'Microgramma D Extended';text-align:center;letter-spacing:1px;word-spacing:0px;text-anchor:middle;fill:url(#linearGradient848);fill-opacity:1;stroke:none;stroke-linejoin:round"
           transform="rotate(-43.014597,922.74967,676.02332)"
           aria-label="BAR" /></g></g></g></svg>
