<?xml version="1.0" encoding="UTF-8" standalone="no"?>
<svg
   viewBox="0 0 456.53931 456.53941"
   width="456.53931"
   height="456.53943"
   version="1.1"
   id="svg55"
   xml:space="preserve"
   xmlns:xlink="http://www.w3.org/1999/xlink"
   xmlns="http://www.w3.org/2000/svg"
   xmlns:svg="http://www.w3.org/2000/svg"><style
     id="style1" /><desc
     id="desc1">small_assy.dxf - scale = 1.000000, origin = (0.000000, 0.000000), method = manual</desc><defs
     id="defs4"><linearGradient
       id="swatch63"><stop
         style="stop-color:#000000;stop-opacity:0.8;"
         offset="0"
         id="stop63" /></linearGradient><linearGradient
       id="swatch62"><stop
         style="stop-color:#edba5c;stop-opacity:0.8;"
         offset="0"
         id="stop62" /></linearGradient><linearGradient
       id="swatch61"><stop
         style="stop-color:#efb78f;stop-opacity:0.8;"
         offset="0"
         id="stop61" /></linearGradient><linearGradient
       id="swatch60"><stop
         style="stop-color:#000000;stop-opacity:0.8;"
         offset="0"
         id="stop60" /></linearGradient><linearGradient
       id="swatch59"><stop
         style="stop-color:#811eae;stop-opacity:0.8;"
         offset="0"
         id="stop59" /></linearGradient><linearGradient
       id="swatch58"><stop
         style="stop-color:#168969;stop-opacity:0.8;"
         offset="0"
         id="stop58" /></linearGradient><linearGradient
       id="swatch57"><stop
         style="stop-color:#efb78f;stop-opacity:0.8;"
         offset="0"
         id="stop57" /></linearGradient><linearGradient
       id="swatch56"><stop
         style="stop-color:#f4c2b0;stop-opacity:0.8;"
         offset="0"
         id="stop56" /></linearGradient><linearGradient
       id="swatch51"><stop
         style="stop-color:#edba5c;stop-opacity:0.8;"
         offset="0"
         id="stop51" /></linearGradient><linearGradient
       id="swatch49"><stop
         style="stop-color:#ec7c43;stop-opacity:0.8;"
         offset="0"
         id="stop49" /></linearGradient><linearGradient
       id="swatch48"><stop
         style="stop-color:#f4c2b0;stop-opacity:0.8;"
         offset="0"
         id="stop48" /></linearGradient><linearGradient
       id="swatch27"><stop
         style="stop-color:#000000;stop-opacity:1;"
         offset="0"
         id="stop27" /></linearGradient><linearGradient
       id="swatch26"><stop
         style="stop-color:#000000;stop-opacity:1;"
         offset="0"
         id="stop26" /></linearGradient><linearGradient
       id="swatch25"><stop
         style="stop-color:#5a7f79;stop-opacity:0.8;"
         offset="0"
         id="stop25" /></linearGradient><linearGradient
       id="swatch41"><stop
         style="stop-color:#000000;stop-opacity:0.8;"
         offset="0"
         id="stop41" /></linearGradient><linearGradient
       id="swatch24"><stop
         style="stop-color:#000000;stop-opacity:1;"
         offset="0"
         id="stop24" /></linearGradient><linearGradient
       id="swatch23"><stop
         style="stop-color:#000000;stop-opacity:1;"
         offset="0"
         id="stop23" /></linearGradient><linearGradient
       id="swatch22"><stop
         style="stop-color:#000000;stop-opacity:1;"
         offset="0"
         id="stop22" /></linearGradient><linearGradient
       id="swatch21"><stop
         style="stop-color:#000000;stop-opacity:1;"
         offset="0"
         id="stop21" /></linearGradient><linearGradient
       id="swatch20"><stop
         style="stop-color:#000000;stop-opacity:1;"
         offset="0"
         id="stop20" /></linearGradient><linearGradient
       id="swatch19"><stop
         style="stop-color:#000000;stop-opacity:1;"
         offset="0"
         id="stop19" /></linearGradient><linearGradient
       id="swatch18"><stop
         style="stop-color:#545454;stop-opacity:1;"
         offset="0"
         id="stop18" /></linearGradient><linearGradient
       id="swatch17"><stop
         style="stop-color:#545454;stop-opacity:1;"
         offset="0"
         id="stop17" /></linearGradient><linearGradient
       id="swatch16"><stop
         style="stop-color:#282828;stop-opacity:1;"
         offset="0"
         id="stop16" /></linearGradient><linearGradient
       id="swatch15"><stop
         style="stop-color:#545454;stop-opacity:1;"
         offset="0"
         id="stop15" /></linearGradient><linearGradient
       id="swatch14"><stop
         style="stop-color:#545454;stop-opacity:1;"
         offset="0"
         id="stop14" /></linearGradient><linearGradient
       id="swatch2394"><stop
         style="stop-color:#424242;stop-opacity:1;"
         offset="0"
         id="stop2394" /></linearGradient><linearGradient
       id="swatch1389"><stop
         style="stop-color:#f4f4f4;stop-opacity:1;"
         offset="0"
         id="stop1389" /></linearGradient><linearGradient
       id="swatch1388"><stop
         style="stop-color:#000000;stop-opacity:1;"
         offset="0"
         id="stop1388" /></linearGradient><linearGradient
       id="swatch1387"><stop
         style="stop-color:#ff0000;stop-opacity:0.629079;"
         offset="0"
         id="stop1387" /></linearGradient><linearGradient
       id="swatch1386"><stop
         style="stop-color:#000000;stop-opacity:1;"
         offset="0"
         id="stop1386" /></linearGradient><linearGradient
       id="swatch1385"><stop
         style="stop-color:#000000;stop-opacity:1;"
         offset="0"
         id="stop1385" /></linearGradient><linearGradient
       id="swatch1384"><stop
         style="stop-color:#282828;stop-opacity:1;"
         offset="0"
         id="stop1384" /></linearGradient><linearGradient
       id="swatch1383"><stop
         style="stop-color:#1d1d1d;stop-opacity:1;"
         offset="0"
         id="stop1383" /></linearGradient><linearGradient
       id="swatch1382"><stop
         style="stop-color:#282828;stop-opacity:1;"
         offset="0"
         id="stop1382" /></linearGradient><linearGradient
       id="swatch1217"><stop
         style="stop-color:#f9f9f9;stop-opacity:0.629079;"
         offset="0"
         id="stop1217" /></linearGradient><linearGradient
       id="swatch13"><stop
         style="stop-color:#168969;stop-opacity:0.8;"
         offset="0"
         id="stop13" /></linearGradient><linearGradient
       id="swatch12"><stop
         style="stop-color:#811eae;stop-opacity:0.80000001;"
         offset="0"
         id="stop12" /></linearGradient><linearGradient
       id="swatch11"><stop
         style="stop-color:#f4c2b0;stop-opacity:0.80000001;"
         offset="0"
         id="stop11" /></linearGradient><linearGradient
       id="swatch10"><stop
         style="stop-color:#efb78f;stop-opacity:0.80000001;"
         offset="0"
         id="stop10" /></linearGradient><linearGradient
       id="swatch4"><stop
         style="stop-color:#858989;stop-opacity:0.80000001;"
         offset="0"
         id="stop4" /></linearGradient><linearGradient
       id="swatch3"><stop
         style="stop-color:#000000;stop-opacity:0.80000001;"
         offset="0"
         id="stop3" /></linearGradient><linearGradient
       id="swatch2"><stop
         style="stop-color:#d9d9d9;stop-opacity:0.80000001;"
         offset="0"
         id="stop2" /></linearGradient><linearGradient
       id="swatch495"><stop
         style="stop-color:#282828;stop-opacity:1;"
         offset="0"
         id="stop495" /></linearGradient><linearGradient
       id="swatch489"><stop
         style="stop-color:#f4f4f4;stop-opacity:1;"
         offset="0"
         id="stop489" /></linearGradient><linearGradient
       id="swatch442"><stop
         style="stop-color:#3561e9;stop-opacity:0.80000001;"
         offset="0"
         id="stop442" /></linearGradient><linearGradient
       id="swatch9"
       gradientTransform="translate(2565.7671,74.97117)"><stop
         style="stop-color:#000000;stop-opacity:0.629079;"
         offset="0"
         id="stop9" /></linearGradient><linearGradient
       id="swatch8"><stop
         style="stop-color:#191919;stop-opacity:1;"
         offset="0"
         id="stop8" /></linearGradient><linearGradient
       id="swatch7"><stop
         style="stop-color:#373737;stop-opacity:1;"
         offset="0"
         id="stop7" /></linearGradient><linearGradient
       id="swatch6"><stop
         style="stop-color:#ffffff;stop-opacity:1;"
         offset="0"
         id="stop6" /></linearGradient><linearGradient
       id="swatch5"><stop
         style="stop-color:#ff0000;stop-opacity:1;"
         offset="0"
         id="stop5" /></linearGradient><linearGradient
       id="swatch1"><stop
         style="stop-color:#ffffff;stop-opacity:1;"
         offset="0"
         id="stop1" /></linearGradient><filter
       style="color-interpolation-filters:sRGB"
       id="filter579-5"
       x="-0.030720003"
       y="-0.030719996"
       width="1.06144"
       height="1.06144"><feGaussianBlur
         stdDeviation="5.5054494"
         id="feGaussianBlur579-4" /></filter><linearGradient
       xlink:href="#swatch495"
       id="linearGradient1124"
       gradientUnits="userSpaceOnUse"
       x1="168.8317"
       y1="-21.201202"
       x2="282.63248"
       y2="-21.201202" /><linearGradient
       xlink:href="#swatch495"
       id="linearGradient1125"
       gradientUnits="userSpaceOnUse"
       x1="168.8317"
       y1="-21.201202"
       x2="282.63248"
       y2="-21.201202" /><linearGradient
       xlink:href="#swatch495"
       id="linearGradient1126"
       gradientUnits="userSpaceOnUse"
       x1="168.8317"
       y1="-21.201202"
       x2="282.63248"
       y2="-21.201202" /><linearGradient
       xlink:href="#swatch495"
       id="linearGradient1127"
       gradientUnits="userSpaceOnUse"
       x1="168.8317"
       y1="-21.201202"
       x2="282.63248"
       y2="-21.201202" /><linearGradient
       xlink:href="#swatch495"
       id="linearGradient1128"
       gradientUnits="userSpaceOnUse"
       x1="168.8317"
       y1="-21.201202"
       x2="282.63248"
       y2="-21.201202" /><linearGradient
       xlink:href="#swatch495"
       id="linearGradient1129"
       gradientUnits="userSpaceOnUse"
       x1="168.8317"
       y1="-21.201202"
       x2="282.63248"
       y2="-21.201202" /><linearGradient
       xlink:href="#swatch495"
       id="linearGradient1130"
       gradientUnits="userSpaceOnUse"
       x1="168.8317"
       y1="-21.201202"
       x2="282.63248"
       y2="-21.201202" /><linearGradient
       xlink:href="#swatch495"
       id="linearGradient1131"
       gradientUnits="userSpaceOnUse"
       x1="168.8317"
       y1="-21.201202"
       x2="282.63248"
       y2="-21.201202" /><linearGradient
       xlink:href="#swatch495"
       id="linearGradient1132"
       gradientUnits="userSpaceOnUse"
       x1="168.8317"
       y1="-21.201202"
       x2="282.63248"
       y2="-21.201202" /><linearGradient
       xlink:href="#swatch495"
       id="linearGradient1133"
       gradientUnits="userSpaceOnUse"
       x1="168.8317"
       y1="-21.201202"
       x2="282.63248"
       y2="-21.201202" /><linearGradient
       xlink:href="#swatch495"
       id="linearGradient1134"
       gradientUnits="userSpaceOnUse"
       x1="168.8317"
       y1="-21.201202"
       x2="282.63248"
       y2="-21.201202" /><linearGradient
       xlink:href="#swatch495"
       id="linearGradient1135"
       gradientUnits="userSpaceOnUse"
       x1="168.8317"
       y1="-21.201202"
       x2="282.63248"
       y2="-21.201202" /><linearGradient
       xlink:href="#swatch495"
       id="linearGradient1136"
       gradientUnits="userSpaceOnUse"
       x1="168.8317"
       y1="-21.201202"
       x2="282.63248"
       y2="-21.201202" /><linearGradient
       xlink:href="#swatch489"
       id="linearGradient1137"
       gradientUnits="userSpaceOnUse"
       x1="1953.5319"
       y1="22.060753"
       x2="2222.6599"
       y2="22.060753" /><linearGradient
       xlink:href="#swatch489"
       id="linearGradient1138"
       gradientUnits="userSpaceOnUse"
       x1="1953.5319"
       y1="22.060753"
       x2="2222.6599"
       y2="22.060753" /><linearGradient
       xlink:href="#swatch489"
       id="linearGradient1139"
       gradientUnits="userSpaceOnUse"
       x1="1953.5319"
       y1="22.060753"
       x2="2222.6599"
       y2="22.060753" /><linearGradient
       xlink:href="#swatch489"
       id="linearGradient1140"
       gradientUnits="userSpaceOnUse"
       x1="1953.5319"
       y1="22.060753"
       x2="2222.6599"
       y2="22.060753" /><linearGradient
       xlink:href="#swatch489"
       id="linearGradient1141"
       gradientUnits="userSpaceOnUse"
       x1="1953.5319"
       y1="22.060753"
       x2="2222.6599"
       y2="22.060753" /><linearGradient
       xlink:href="#swatch489"
       id="linearGradient1142"
       gradientUnits="userSpaceOnUse"
       x1="1953.5319"
       y1="22.060753"
       x2="2222.6599"
       y2="22.060753" /><linearGradient
       xlink:href="#swatch489"
       id="linearGradient1143"
       gradientUnits="userSpaceOnUse"
       x1="1953.5319"
       y1="22.060753"
       x2="2222.6599"
       y2="22.060753" /><linearGradient
       xlink:href="#swatch489"
       id="linearGradient1144"
       gradientUnits="userSpaceOnUse"
       x1="1953.5319"
       y1="22.060753"
       x2="2222.6599"
       y2="22.060753" /><linearGradient
       xlink:href="#swatch489"
       id="linearGradient1145"
       gradientUnits="userSpaceOnUse"
       x1="1953.5319"
       y1="22.060753"
       x2="2222.6599"
       y2="22.060753" /><linearGradient
       xlink:href="#swatch489"
       id="linearGradient1146"
       gradientUnits="userSpaceOnUse"
       x1="1953.5319"
       y1="22.060753"
       x2="2222.6599"
       y2="22.060753" /><linearGradient
       xlink:href="#swatch489"
       id="linearGradient1147"
       gradientUnits="userSpaceOnUse"
       x1="1953.5319"
       y1="22.060753"
       x2="2222.6599"
       y2="22.060753" /></defs><g
     id="layer15"
     transform="translate(-2440.5571,731.54293)"><g
       id="g946"
       transform="translate(1630.508,-1185.9501)"
       style="display:inline;stroke:#000000;stroke-width:1.00157;stroke-dasharray:1.00157, 1.00157;stroke-dashoffset:0;stroke-opacity:0.174959"><g
         id="g930"
         style="display:none;fill:url(#linearGradient1136);stroke:#000000;stroke-width:1.00157;stroke-dasharray:1.00157, 1.00157;stroke-dashoffset:0;stroke-opacity:0.174959"
         transform="matrix(3.7795276,0,0,3.7795276,185.15806,762.80729)"><g
           id="g919"
           style="display:inline;opacity:0.6;fill:#000000;fill-opacity:1;stroke:#000000;stroke-width:1.00157;stroke-dasharray:1.00157, 1.00157;stroke-dashoffset:0;stroke-opacity:0.174959;filter:url(#filter579-5)"
           transform="matrix(0.26458333,0,0,0.26458333,-48.989736,-201.82609)"><circle
             style="display:none;fill:#000000;fill-opacity:1;stroke:#000000;stroke-width:1.88976;stroke-linejoin:round;stroke-dasharray:none;stroke-dashoffset:0;stroke-opacity:1"
             id="circle910"
             cx="1038.3187"
             cy="682.6767"
             r="182.64824" /><path
             d="m 178.67757,-21.83351 v -0.1785 c 0.008,-0.38806 0.0388,-0.52776 0.17075,-0.57433 0.16298,-0.0699 0.57432,-0.0931 1.5755,-0.0931 0.82268,0 1.03223,0.008 1.17193,0.0543 0.19403,0.0543 0.24836,0.16298 0.24836,0.46567 0,0.4191 -0.0699,0.4579 -0.98567,0.52775 -1.42804,0.11642 -2.16535,0.17075 -2.22743,0.17851 -0.80716,0.10865 -1.14089,0.30268 -1.30387,0.78387 -0.0854,0.24059 -0.11642,0.63641 -0.11642,1.49789 0,0.24836 0,0.33373 0.0233,0.58985 h 6.17009 v -1.18745 h -4.72652 v -0.0543 c 0.008,-0.25612 0.0621,-0.35701 0.25612,-0.43462 0.10089,-0.0466 0.40357,-0.0699 2.57668,-0.20955 0.87701,-0.0466 1.3582,-0.21731 1.58327,-0.55104 0.16298,-0.24836 0.22507,-0.55104 0.22507,-1.16417 0,-0.82268 -0.10865,-1.16416 -0.4579,-1.38924 -0.34149,-0.22507 -0.59761,-0.24835 -2.7552,-0.24835 -2.62325,0 -2.94922,0.19403 -2.94922,1.76177 v 0.22507 z"
             id="path910"
             style="font-size:7.76111px;font-family:'Microgramma D Extended';-inkscape-font-specification:'Microgramma D Extended';text-align:center;letter-spacing:0px;word-spacing:0px;text-anchor:middle;display:inline;fill:#000000;fill-opacity:1;stroke:#000000;stroke-width:0;stroke-linejoin:round;stroke-dasharray:none;stroke-dashoffset:0;stroke-opacity:0.174959"
             aria-label="2"
             transform="matrix(3.7795276,0,0,3.7795276,185.1581,762.80728)" /><path
             d="m 70.706381,141.78985 c -0.946855,0 -1.699683,0.031 -2.087738,0.0931 -0.613128,0.0854 -1.001183,0.44239 -1.102078,1.00119 -0.05433,0.29492 -0.06209,0.43462 -0.06209,1.48237 0,1.23402 0,1.31939 0.06209,1.62983 0.100895,0.5588 0.48895,0.91581 1.102078,1.00119 0.380294,0.0621 1.140883,0.0931 2.087738,0.0931 0.939095,0 1.699683,-0.031 2.079978,-0.0931 0.613127,-0.0854 1.001183,-0.44239 1.102077,-1.00119 0.05433,-0.30268 0.06209,-0.4191 0.06209,-1.55998 0,-1.13312 -0.0078,-1.24954 -0.06209,-1.55222 -0.100894,-0.5588 -0.48895,-0.91581 -1.102077,-1.00119 -0.388056,-0.0621 -1.140883,-0.0931 -2.079978,-0.0931 z m -0.100894,1.34267 c 1.738489,0 1.769533,0.0233 1.769533,1.30387 0,1.28834 -0.02328,1.31163 -1.777294,1.31163 -1.513417,0 -1.567744,-0.0466 -1.567744,-1.33491 0,-1.22626 0.06985,-1.28059 1.575505,-1.28059 z"
             id="path911"
             style="font-size:7.76111px;font-family:'Microgramma D Extended';-inkscape-font-specification:'Microgramma D Extended';text-align:center;letter-spacing:0px;word-spacing:0px;text-anchor:middle;display:inline;fill:#000000;fill-opacity:1;stroke:#000000;stroke-width:0;stroke-linejoin:round;stroke-dasharray:none;stroke-dashoffset:0;stroke-opacity:0.174959"
             aria-label="0"
             transform="matrix(3.7795276,0,0,3.7795276,654.2607,259.53264)" /><path
             d="m 72.396937,80.874107 h -1.008943 v -3.050112 h -2.553402 l -3.073395,2.235196 v 1.979081 h 4.128905 v 0.962376 h 1.497892 v -0.962376 h 1.008943 z m -2.506835,0 h -2.716385 v -0.201789 l 2.39818,-1.645353 h 0.318205 z"
             id="path912"
             style="font-size:7.7611px;font-family:'Microgramma D Extended';-inkscape-font-specification:'Microgramma D Extended';text-align:center;letter-spacing:0px;word-spacing:0px;text-anchor:middle;display:inline;fill:#000000;fill-opacity:1;stroke:#000000;stroke-width:0;stroke-linejoin:round;stroke-dasharray:none;stroke-dashoffset:0;stroke-opacity:0.174959"
             aria-label="4"
             transform="matrix(3.7795276,0,0,3.7795276,654.2607,259.53264)" /><path
             d="m 228.78647,-68.263488 c -0.008,-0.659693 -0.0621,-0.900287 -0.24836,-1.094315 -0.30268,-0.325966 -0.88476,-0.419099 -2.64653,-0.419099 -2.3361,0 -2.9337,0.194027 -3.11997,1.016704 -0.0776,0.341488 -0.0931,0.605366 -0.0931,1.466848 0,1.722964 0.0621,2.079975 0.41134,2.405941 0.34925,0.318205 0.88477,0.411338 2.3749,0.411338 1.59878,0 2.21967,-0.0388 2.5534,-0.170744 0.53551,-0.201789 0.72954,-0.620888 0.72954,-1.55222 0,-1.396998 -0.43462,-1.69192 -2.46803,-1.69192 -1.35819,0 -1.69968,0.07761 -2.0955,0.457905 -0.008,-0.124178 -0.008,-0.225072 -0.008,-0.287161 0,-0.49671 0.0543,-0.682976 0.21731,-0.768349 0.17075,-0.07761 0.58985,-0.116416 1.35044,-0.116416 0.24835,0 0.54327,0.0078 0.877,0.02328 0.48119,0.01552 0.52775,0.02328 0.60537,0.08537 0.0543,0.03881 0.0776,0.09313 0.0854,0.232833 z m -3.25967,1.536698 c 1.61431,0 1.69192,0.02328 1.69192,0.551038 0,0.333728 -0.10865,0.473427 -0.38029,0.496711 -0.16298,0.01552 -0.88476,0.03881 -1.35043,0.03881 -0.51999,0 -0.86148,-0.01552 -0.9779,-0.04657 -0.21731,-0.04657 -0.30268,-0.194028 -0.30268,-0.496711 0,-0.232833 0.0854,-0.395816 0.24835,-0.465666 0.14746,-0.06209 0.32597,-0.07761 1.07103,-0.07761 z"
             id="path913"
             style="font-size:7.7611px;font-family:'Microgramma D Extended';-inkscape-font-specification:'Microgramma D Extended';text-align:center;letter-spacing:0px;word-spacing:0px;text-anchor:middle;display:inline;fill:#000000;fill-opacity:1;stroke:#000000;stroke-width:0;stroke-linejoin:round;stroke-dasharray:none;stroke-dashoffset:0;stroke-opacity:0.174959"
             aria-label="6"
             transform="matrix(3.7795276,0,0,3.7795276,185.1581,762.80728)" /><path
             d="m 131.63752,80.354113 c -0.29493,0.04657 -0.41134,0.07761 -0.53552,0.1397 -0.34149,0.170744 -0.47343,0.49671 -0.47343,1.156404 0,0.690738 0.17075,1.024465 0.61313,1.218493 0.38806,0.162983 0.76059,0.194027 2.42146,0.194027 1.45909,0 1.82386,-0.02328 2.1964,-0.116416 0.62864,-0.162983 0.84595,-0.504472 0.84595,-1.296104 0,-0.597605 -0.10089,-0.900288 -0.37253,-1.094315 -0.13194,-0.100894 -0.25611,-0.1397 -0.63641,-0.201789 0.71402,-0.05433 0.94686,-0.333727 0.94686,-1.148642 0,-0.675216 -0.17075,-1.032227 -0.59761,-1.226254 -0.32596,-0.147461 -1.10207,-0.217311 -2.38266,-0.217311 -1.0167,0 -1.8549,0.05433 -2.18087,0.147461 -0.56656,0.162983 -0.79163,0.527755 -0.79163,1.296104 0,0.814915 0.23284,1.094315 0.94686,1.148642 z m 1.87042,-1.428042 c 0.56656,0 1.17969,0.02328 1.35043,0.05433 0.20179,0.0388 0.28716,0.155222 0.28716,0.395816 0,0.442382 0,0.442382 -1.53669,0.442382 -1.3582,0 -1.42029,-0.01552 -1.42029,-0.442382 0,-0.403577 0.1397,-0.450144 1.31939,-0.450144 z m 0.15522,2.010125 c 0.5588,0 1.18745,0.02328 1.29611,0.05433 0.18626,0.04657 0.24835,0.1397 0.24835,0.403578 0,0.481188 -0.0699,0.504471 -1.69192,0.504471 -1.33491,0 -1.38923,-0.01552 -1.38923,-0.465666 0,-0.481188 0.0388,-0.49671 1.53669,-0.49671 z"
             id="path914"
             style="font-size:7.7611px;font-family:'Microgramma D Extended';-inkscape-font-specification:'Microgramma D Extended';text-align:center;letter-spacing:0px;word-spacing:0px;text-anchor:middle;display:inline;fill:#000000;fill-opacity:1;stroke:#000000;stroke-width:0;stroke-linejoin:round;stroke-dasharray:none;stroke-dashoffset:0;stroke-opacity:0.174959"
             aria-label="8"
             transform="matrix(3.7795276,0,0,3.7795276,654.2607,259.53264)" /><path
             d="m 263.93895,-23.78929 -1.89371,1.62207 0.86925,1.0167 1.52893,-1.28834 h 0.41134 v 3.82622 h 1.5755 v -5.17665 z m 7.12469,-0.0621 c -0.94685,0 -1.69968,0.031 -2.08773,0.0931 -0.61313,0.0854 -1.00118,0.44238 -1.10208,1.00118 -0.0543,0.29493 -0.0621,0.43462 -0.0621,1.48237 0,1.23402 0,1.31939 0.0621,1.62983 0.1009,0.5588 0.48895,0.91581 1.10208,1.00119 0.38029,0.0621 1.14088,0.0931 2.08773,0.0931 0.9391,0 1.69968,-0.031 2.07998,-0.0931 0.61312,-0.0854 1.00118,-0.44239 1.10207,-1.00119 0.0543,-0.30268 0.0621,-0.41909 0.0621,-1.55998 0,-1.13312 -0.008,-1.24953 -0.0621,-1.55222 -0.10089,-0.5588 -0.48895,-0.91581 -1.10207,-1.00118 -0.38806,-0.0621 -1.14088,-0.0931 -2.07998,-0.0931 z m -0.10089,1.34267 c 1.73849,0 1.76953,0.0233 1.76953,1.30386 0,1.28835 -0.0233,1.31163 -1.77729,1.31163 -1.51342,0 -1.56774,-0.0466 -1.56774,-1.33491 0,-1.22625 0.0699,-1.28058 1.5755,-1.28058 z"
             id="path915"
             style="font-size:7.7611px;font-family:'Microgramma D Extended';-inkscape-font-specification:'Microgramma D Extended';text-align:center;letter-spacing:0px;word-spacing:0px;text-anchor:middle;display:inline;fill:#000000;fill-opacity:1;stroke:#000000;stroke-width:0;stroke-linejoin:round;stroke-dasharray:none;stroke-dashoffset:0;stroke-opacity:0.174959"
             aria-label="10"
             transform="matrix(3.7795276,0,0,3.7795276,185.1581,762.80728)" /><path
             style="baseline-shift:baseline;display:inline;overflow:visible;opacity:1;vector-effect:none;fill:#000000;fill-opacity:1;stroke:none;stroke-width:1.00157;stroke-linejoin:round;stroke-dasharray:none;stroke-dashoffset:0;stroke-opacity:1;enable-background:accumulate;stop-color:#000000;stop-opacity:1"
             d="m 101.61536,55.056475 c -3.006728,0 -5.936748,0.303025 -8.818071,0.753443 -23.454218,3.663727 -42.198479,21.600458 -46.9253,44.686162 v 5.2e-4 c -0.378872,1.85048 -0.668219,3.73362 -0.86248,5.64461 -0.194578,1.91232 -0.294556,3.85243 -0.294556,5.81567 0,3.92576 0.398671,7.75933 1.157552,11.46235 4.92933,24.06937 25.071198,42.61713 49.928218,45.14401 3.42e-4,4e-5 6.92e-4,-3e-5 10e-4,0 1.91158,0.19429 3.851543,0.29402 5.814117,0.29404 2.03899,-2e-5 4.05298,-0.10759 6.03684,-0.31729 26.78892,-2.82905 48.0524,-24.27259 50.6057,-51.1421 0.0851,-0.89534 0.0856,-1.81337 0.12867,-2.72025 0.043,-0.90713 0.12867,-1.80304 0.12868,-2.72076 v -5.2e-4 c 0,-29.445925 -22.40363,-53.689866 -51.08474,-56.605329 -1.91232,-0.194578 -3.85243,-0.294556 -5.81566,-0.294556 z m -0.50695,4.203878 v 0.665593 h 0.007 v 1.205094 h 0.99994 v -1.205094 h 0.008 v -0.665593 c 6.78454,0.06384 13.26062,1.406378 19.19883,3.798218 l -0.26252,0.633553 0.006,0.0026 -0.46199,1.114144 0.92398,0.382405 0.46147,-1.114144 0.007,0.0031 0.26252,-0.633553 c 6.10085,2.59579 11.6098,6.307435 16.27136,10.880473 l -0.47956,0.480074 0.004,0.0041 -0.85266,0.852661 0.70693,0.706933 0.85318,-0.852661 0.006,0.0057 0.48008,-0.479558 c 4.57305,4.661393 8.28522,10.170186 10.88099,16.270842 l -0.63407,0.263033 0.002,0.0047 -1.11517,0.461987 0.38292,0.923975 1.11518,-0.462505 0.004,0.0083 0.63356,-0.262517 c 2.39162,5.937549 3.73379,12.412887 3.7977,19.196767 h -0.6656 v 0.008 h -1.20716 v 0.99994 h 1.20716 v 0.006 h 0.6656 c -0.27111,28.89669 -23.73719,52.19319 -52.69859,52.19319 -14.382463,0 -27.409205,-5.74544 -36.912996,-15.06884 l 0.481107,-0.4806 -0.0052,-0.005 0.851111,-0.85215 -0.706933,-0.70693 -0.851111,0.85214 -0.0052,-0.005 -0.481107,0.48059 c -4.573098,-4.66148 -8.28525,-10.17049 -10.88099,-16.27136 l 0.635104,-0.26303 -0.0021,-0.006 1.112594,-0.46095 -0.382922,-0.92398 -1.112594,0.46096 -0.0031,-0.007 -0.635104,0.26303 c -2.391808,-5.93825 -3.734051,-12.41404 -3.797701,-19.19882 h 0.666626 v -0.006 h 1.204061 v -0.99994 H 49.58494 v -0.008 h -0.666626 c 0.0639,-6.78458 1.406291,-13.260265 3.798218,-19.198317 l 0.634587,0.262 0.0021,-0.0052 1.113627,0.461471 0.382922,-0.923975 -1.113627,-0.461471 0.0031,-0.0072 -0.634587,-0.262517 c 2.595707,-6.100299 6.30774,-11.609214 10.880473,-16.270324 l 0.481107,0.480591 0.0047,-0.0047 0.851628,0.851627 0.706933,-0.706933 -0.851111,-0.851628 0.0052,-0.0052 -0.481107,-0.480591 C 69.363666,69.75382 74.872658,66.041778 80.973205,63.446144 l 0.262516,0.63407 0.0062,-0.0026 0.460954,1.113627 0.923975,-0.382405 -0.460954,-1.114144 0.0062,-0.0026 -0.262516,-0.63407 c 5.938197,-2.391832 12.414111,-3.733985 19.19883,-3.797701 z"
             transform="matrix(3.7795276,0,0,3.7795276,654.2607,259.53264)"
             id="path916" /><path
             style="baseline-shift:baseline;display:inline;overflow:visible;opacity:1;vector-effect:none;fill:#000000;fill-opacity:1;stroke:none;stroke-width:1.00157;stroke-linejoin:round;stroke-dasharray:none;stroke-dashoffset:0;stroke-opacity:1;enable-background:accumulate;stop-color:#000000;stop-opacity:1"
             d="m 103.41111,131.39238 v 3.76463 h 1.12913 l -0.0284,-2.81636 h 0.20309 l 1.41697,2.81636 h 0.95394 l 1.41645,-2.81636 h 0.19224 l -0.0284,2.81636 h 1.12913 v -3.76463 h -2.06603 l -1.12292,2.44378 -1.11777,-2.44378 z"
             transform="matrix(3.7795276,0,0,3.7795276,654.2607,259.53264)"
             id="path917" /><path
             style="baseline-shift:baseline;display:inline;overflow:visible;opacity:1;vector-effect:none;fill:#000000;fill-opacity:1;stroke:none;stroke-width:1.00157;stroke-linejoin:round;stroke-dasharray:none;stroke-dashoffset:0;stroke-opacity:1;enable-background:accumulate;stop-color:#000000;stop-opacity:1"
             d="m 98.517353,131.39238 v 3.76463 h 1.146184 v -0.91984 h 1.444873 c 0.8128,0 1.06685,-0.0229 1.32085,-0.10749 0.45155,-0.16369 0.60358,-0.49116 0.60358,-1.32653 0,-0.9652 -0.20296,-1.26993 -0.91416,-1.37718 -0.20884,-0.0282 -0.31044,-0.0336 -1.02164,-0.0336 z m 1.146184,0.94258 h 1.433503 c 0.50236,0.006 0.5137,0.006 0.59273,0.0336 0.14675,0.0508 0.1974,0.16366 0.1974,0.4346 0,0.25964 -0.0339,0.3617 -0.14107,0.42943 -0.096,0.0564 -0.11848,0.0563 -0.64906,0.062 h -1.433503 z"
             transform="matrix(3.7795276,0,0,3.7795276,654.2607,259.53264)"
             id="path918" /><path
             style="baseline-shift:baseline;display:inline;overflow:visible;opacity:1;vector-effect:none;fill:#000000;fill-opacity:1;stroke:none;stroke-width:1.00157;stroke-linejoin:round;stroke-dasharray:none;stroke-dashoffset:0;stroke-opacity:1;enable-background:accumulate;stop-color:#000000;stop-opacity:1"
             d="m 93.43756,131.39238 v 3.76463 h 1.145667 v -0.95395 h 1.620056 c 0.474133,0 0.558664,0.0115 0.637687,0.10181 0.09031,0.0959 0.113171,0.23141 0.113171,0.65474 v 0.1974 h 1.128614 v -0.34985 c 0.02258,-0.86924 -0.07905,-1.03865 -0.660425,-1.10639 0.225778,-0.0339 0.333039,-0.0735 0.440283,-0.15813 0.2032,-0.1524 0.259932,-0.36672 0.259932,-0.92552 0,-0.65475 -0.08472,-0.903 -0.372587,-1.07798 -0.24271,-0.14675 -0.242769,-0.14676 -1.540991,-0.14676 z m 1.145667,0.94258 h 1.614371 c 0.519289,0.006 0.536445,0.006 0.615467,0.0393 0.118534,0.0508 0.163297,0.15837 0.163297,0.41237 0,0.23707 -0.03372,0.34974 -0.124023,0.40618 -0.07902,0.0564 -0.079,0.0564 -0.654741,0.0677 h -1.614371 z"
             transform="matrix(3.7795276,0,0,3.7795276,654.2607,259.53264)"
             id="path919" /></g><g
           id="g929"
           style="display:inline;fill:url(#linearGradient1135);stroke:#000000;stroke-width:1.00157;stroke-dasharray:1.00157, 1.00157;stroke-dashoffset:0;stroke-opacity:0.174959"
           transform="matrix(0.26458333,0,0,0.26458333,-48.989736,-201.82609)"><circle
             style="display:none;fill:url(#linearGradient1124);fill-opacity:1;stroke:#000000;stroke-width:1.88976;stroke-linejoin:round;stroke-dasharray:none;stroke-dashoffset:0;stroke-opacity:1"
             id="circle919"
             cx="1038.3187"
             cy="682.6767"
             r="182.64824" /><path
             d="m 178.67757,-21.83351 v -0.1785 c 0.008,-0.38806 0.0388,-0.52776 0.17075,-0.57433 0.16298,-0.0699 0.57432,-0.0931 1.5755,-0.0931 0.82268,0 1.03223,0.008 1.17193,0.0543 0.19403,0.0543 0.24836,0.16298 0.24836,0.46567 0,0.4191 -0.0699,0.4579 -0.98567,0.52775 -1.42804,0.11642 -2.16535,0.17075 -2.22743,0.17851 -0.80716,0.10865 -1.14089,0.30268 -1.30387,0.78387 -0.0854,0.24059 -0.11642,0.63641 -0.11642,1.49789 0,0.24836 0,0.33373 0.0233,0.58985 h 6.17009 v -1.18745 h -4.72652 v -0.0543 c 0.008,-0.25612 0.0621,-0.35701 0.25612,-0.43462 0.10089,-0.0466 0.40357,-0.0699 2.57668,-0.20955 0.87701,-0.0466 1.3582,-0.21731 1.58327,-0.55104 0.16298,-0.24836 0.22507,-0.55104 0.22507,-1.16417 0,-0.82268 -0.10865,-1.16416 -0.4579,-1.38924 -0.34149,-0.22507 -0.59761,-0.24835 -2.7552,-0.24835 -2.62325,0 -2.94922,0.19403 -2.94922,1.76177 v 0.22507 z"
             id="path920"
             style="font-size:7.76111px;font-family:'Microgramma D Extended';-inkscape-font-specification:'Microgramma D Extended';text-align:center;letter-spacing:0px;word-spacing:0px;text-anchor:middle;display:inline;fill:url(#linearGradient1125);fill-opacity:1;stroke:#000000;stroke-width:0;stroke-linejoin:round;stroke-dasharray:none;stroke-dashoffset:0;stroke-opacity:0.174959"
             aria-label="2"
             transform="matrix(3.7795276,0,0,3.7795276,185.1581,762.80728)" /><path
             d="m 70.706381,141.78985 c -0.946855,0 -1.699683,0.031 -2.087738,0.0931 -0.613128,0.0854 -1.001183,0.44239 -1.102078,1.00119 -0.05433,0.29492 -0.06209,0.43462 -0.06209,1.48237 0,1.23402 0,1.31939 0.06209,1.62983 0.100895,0.5588 0.48895,0.91581 1.102078,1.00119 0.380294,0.0621 1.140883,0.0931 2.087738,0.0931 0.939095,0 1.699683,-0.031 2.079978,-0.0931 0.613127,-0.0854 1.001183,-0.44239 1.102077,-1.00119 0.05433,-0.30268 0.06209,-0.4191 0.06209,-1.55998 0,-1.13312 -0.0078,-1.24954 -0.06209,-1.55222 -0.100894,-0.5588 -0.48895,-0.91581 -1.102077,-1.00119 -0.388056,-0.0621 -1.140883,-0.0931 -2.079978,-0.0931 z m -0.100894,1.34267 c 1.738489,0 1.769533,0.0233 1.769533,1.30387 0,1.28834 -0.02328,1.31163 -1.777294,1.31163 -1.513417,0 -1.567744,-0.0466 -1.567744,-1.33491 0,-1.22626 0.06985,-1.28059 1.575505,-1.28059 z"
             id="path921"
             style="font-size:7.76111px;font-family:'Microgramma D Extended';-inkscape-font-specification:'Microgramma D Extended';text-align:center;letter-spacing:0px;word-spacing:0px;text-anchor:middle;display:inline;fill:url(#linearGradient1126);fill-opacity:1;stroke:#000000;stroke-width:0;stroke-linejoin:round;stroke-dasharray:none;stroke-dashoffset:0;stroke-opacity:0.174959"
             aria-label="0"
             transform="matrix(3.7795276,0,0,3.7795276,654.2607,259.53264)" /><path
             d="m 72.396937,80.874107 h -1.008943 v -3.050112 h -2.553402 l -3.073395,2.235196 v 1.979081 h 4.128905 v 0.962376 h 1.497892 v -0.962376 h 1.008943 z m -2.506835,0 h -2.716385 v -0.201789 l 2.39818,-1.645353 h 0.318205 z"
             id="path922"
             style="font-size:7.7611px;font-family:'Microgramma D Extended';-inkscape-font-specification:'Microgramma D Extended';text-align:center;letter-spacing:0px;word-spacing:0px;text-anchor:middle;display:inline;fill:url(#linearGradient1127);fill-opacity:1;stroke:#000000;stroke-width:0;stroke-linejoin:round;stroke-dasharray:none;stroke-dashoffset:0;stroke-opacity:0.174959"
             aria-label="4"
             transform="matrix(3.7795276,0,0,3.7795276,654.2607,259.53264)" /><path
             d="m 228.78647,-68.263488 c -0.008,-0.659693 -0.0621,-0.900287 -0.24836,-1.094315 -0.30268,-0.325966 -0.88476,-0.419099 -2.64653,-0.419099 -2.3361,0 -2.9337,0.194027 -3.11997,1.016704 -0.0776,0.341488 -0.0931,0.605366 -0.0931,1.466848 0,1.722964 0.0621,2.079975 0.41134,2.405941 0.34925,0.318205 0.88477,0.411338 2.3749,0.411338 1.59878,0 2.21967,-0.0388 2.5534,-0.170744 0.53551,-0.201789 0.72954,-0.620888 0.72954,-1.55222 0,-1.396998 -0.43462,-1.69192 -2.46803,-1.69192 -1.35819,0 -1.69968,0.07761 -2.0955,0.457905 -0.008,-0.124178 -0.008,-0.225072 -0.008,-0.287161 0,-0.49671 0.0543,-0.682976 0.21731,-0.768349 0.17075,-0.07761 0.58985,-0.116416 1.35044,-0.116416 0.24835,0 0.54327,0.0078 0.877,0.02328 0.48119,0.01552 0.52775,0.02328 0.60537,0.08537 0.0543,0.03881 0.0776,0.09313 0.0854,0.232833 z m -3.25967,1.536698 c 1.61431,0 1.69192,0.02328 1.69192,0.551038 0,0.333728 -0.10865,0.473427 -0.38029,0.496711 -0.16298,0.01552 -0.88476,0.03881 -1.35043,0.03881 -0.51999,0 -0.86148,-0.01552 -0.9779,-0.04657 -0.21731,-0.04657 -0.30268,-0.194028 -0.30268,-0.496711 0,-0.232833 0.0854,-0.395816 0.24835,-0.465666 0.14746,-0.06209 0.32597,-0.07761 1.07103,-0.07761 z"
             id="path923"
             style="font-size:7.7611px;font-family:'Microgramma D Extended';-inkscape-font-specification:'Microgramma D Extended';text-align:center;letter-spacing:0px;word-spacing:0px;text-anchor:middle;display:inline;fill:url(#linearGradient1128);fill-opacity:1;stroke:#000000;stroke-width:0;stroke-linejoin:round;stroke-dasharray:none;stroke-dashoffset:0;stroke-opacity:0.174959"
             aria-label="6"
             transform="matrix(3.7795276,0,0,3.7795276,185.1581,762.80728)" /><path
             d="m 131.63752,80.354113 c -0.29493,0.04657 -0.41134,0.07761 -0.53552,0.1397 -0.34149,0.170744 -0.47343,0.49671 -0.47343,1.156404 0,0.690738 0.17075,1.024465 0.61313,1.218493 0.38806,0.162983 0.76059,0.194027 2.42146,0.194027 1.45909,0 1.82386,-0.02328 2.1964,-0.116416 0.62864,-0.162983 0.84595,-0.504472 0.84595,-1.296104 0,-0.597605 -0.10089,-0.900288 -0.37253,-1.094315 -0.13194,-0.100894 -0.25611,-0.1397 -0.63641,-0.201789 0.71402,-0.05433 0.94686,-0.333727 0.94686,-1.148642 0,-0.675216 -0.17075,-1.032227 -0.59761,-1.226254 -0.32596,-0.147461 -1.10207,-0.217311 -2.38266,-0.217311 -1.0167,0 -1.8549,0.05433 -2.18087,0.147461 -0.56656,0.162983 -0.79163,0.527755 -0.79163,1.296104 0,0.814915 0.23284,1.094315 0.94686,1.148642 z m 1.87042,-1.428042 c 0.56656,0 1.17969,0.02328 1.35043,0.05433 0.20179,0.0388 0.28716,0.155222 0.28716,0.395816 0,0.442382 0,0.442382 -1.53669,0.442382 -1.3582,0 -1.42029,-0.01552 -1.42029,-0.442382 0,-0.403577 0.1397,-0.450144 1.31939,-0.450144 z m 0.15522,2.010125 c 0.5588,0 1.18745,0.02328 1.29611,0.05433 0.18626,0.04657 0.24835,0.1397 0.24835,0.403578 0,0.481188 -0.0699,0.504471 -1.69192,0.504471 -1.33491,0 -1.38923,-0.01552 -1.38923,-0.465666 0,-0.481188 0.0388,-0.49671 1.53669,-0.49671 z"
             id="path924"
             style="font-size:7.7611px;font-family:'Microgramma D Extended';-inkscape-font-specification:'Microgramma D Extended';text-align:center;letter-spacing:0px;word-spacing:0px;text-anchor:middle;display:inline;fill:url(#linearGradient1129);fill-opacity:1;stroke:#000000;stroke-width:0;stroke-linejoin:round;stroke-dasharray:none;stroke-dashoffset:0;stroke-opacity:0.174959"
             aria-label="8"
             transform="matrix(3.7795276,0,0,3.7795276,654.2607,259.53264)" /><path
             d="m 263.93895,-23.78929 -1.89371,1.62207 0.86925,1.0167 1.52893,-1.28834 h 0.41134 v 3.82622 h 1.5755 v -5.17665 z m 7.12469,-0.0621 c -0.94685,0 -1.69968,0.031 -2.08773,0.0931 -0.61313,0.0854 -1.00118,0.44238 -1.10208,1.00118 -0.0543,0.29493 -0.0621,0.43462 -0.0621,1.48237 0,1.23402 0,1.31939 0.0621,1.62983 0.1009,0.5588 0.48895,0.91581 1.10208,1.00119 0.38029,0.0621 1.14088,0.0931 2.08773,0.0931 0.9391,0 1.69968,-0.031 2.07998,-0.0931 0.61312,-0.0854 1.00118,-0.44239 1.10207,-1.00119 0.0543,-0.30268 0.0621,-0.41909 0.0621,-1.55998 0,-1.13312 -0.008,-1.24953 -0.0621,-1.55222 -0.10089,-0.5588 -0.48895,-0.91581 -1.10207,-1.00118 -0.38806,-0.0621 -1.14088,-0.0931 -2.07998,-0.0931 z m -0.10089,1.34267 c 1.73849,0 1.76953,0.0233 1.76953,1.30386 0,1.28835 -0.0233,1.31163 -1.77729,1.31163 -1.51342,0 -1.56774,-0.0466 -1.56774,-1.33491 0,-1.22625 0.0699,-1.28058 1.5755,-1.28058 z"
             id="path925"
             style="font-size:7.7611px;font-family:'Microgramma D Extended';-inkscape-font-specification:'Microgramma D Extended';text-align:center;letter-spacing:0px;word-spacing:0px;text-anchor:middle;display:inline;fill:url(#linearGradient1130);fill-opacity:1;stroke:#000000;stroke-width:0;stroke-linejoin:round;stroke-dasharray:none;stroke-dashoffset:0;stroke-opacity:0.174959"
             aria-label="10"
             transform="matrix(3.7795276,0,0,3.7795276,185.1581,762.80728)" /><path
             style="baseline-shift:baseline;display:inline;overflow:visible;opacity:1;vector-effect:none;fill:url(#linearGradient1131);fill-opacity:1;stroke:none;stroke-width:1.00157;stroke-linejoin:round;stroke-dasharray:none;stroke-dashoffset:0;stroke-opacity:1;enable-background:accumulate;stop-color:#000000;stop-opacity:1"
             d="m 101.61536,55.056475 c -3.006728,0 -5.936748,0.303025 -8.818071,0.753443 -23.454218,3.663727 -42.198479,21.600458 -46.9253,44.686162 v 5.2e-4 c -0.378872,1.85048 -0.668219,3.73362 -0.86248,5.64461 -0.194578,1.91232 -0.294556,3.85243 -0.294556,5.81567 0,3.92576 0.398671,7.75933 1.157552,11.46235 4.92933,24.06937 25.071198,42.61713 49.928218,45.14401 3.42e-4,4e-5 6.92e-4,-3e-5 10e-4,0 1.91158,0.19429 3.851543,0.29402 5.814117,0.29404 2.03899,-2e-5 4.05298,-0.10759 6.03684,-0.31729 26.78892,-2.82905 48.0524,-24.27259 50.6057,-51.1421 0.0851,-0.89534 0.0856,-1.81337 0.12867,-2.72025 0.043,-0.90713 0.12867,-1.80304 0.12868,-2.72076 v -5.2e-4 c 0,-29.445925 -22.40363,-53.689866 -51.08474,-56.605329 -1.91232,-0.194578 -3.85243,-0.294556 -5.81566,-0.294556 z m -0.50695,4.203878 v 0.665593 h 0.007 v 1.205094 h 0.99994 v -1.205094 h 0.008 v -0.665593 c 6.78454,0.06384 13.26062,1.406378 19.19883,3.798218 l -0.26252,0.633553 0.006,0.0026 -0.46199,1.114144 0.92398,0.382405 0.46147,-1.114144 0.007,0.0031 0.26252,-0.633553 c 6.10085,2.59579 11.6098,6.307435 16.27136,10.880473 l -0.47956,0.480074 0.004,0.0041 -0.85266,0.852661 0.70693,0.706933 0.85318,-0.852661 0.006,0.0057 0.48008,-0.479558 c 4.57305,4.661393 8.28522,10.170186 10.88099,16.270842 l -0.63407,0.263033 0.002,0.0047 -1.11517,0.461987 0.38292,0.923975 1.11518,-0.462505 0.004,0.0083 0.63356,-0.262517 c 2.39162,5.937549 3.73379,12.412887 3.7977,19.196767 h -0.6656 v 0.008 h -1.20716 v 0.99994 h 1.20716 v 0.006 h 0.6656 c -0.27111,28.89669 -23.73719,52.19319 -52.69859,52.19319 -14.382463,0 -27.409205,-5.74544 -36.912996,-15.06884 l 0.481107,-0.4806 -0.0052,-0.005 0.851111,-0.85215 -0.706933,-0.70693 -0.851111,0.85214 -0.0052,-0.005 -0.481107,0.48059 c -4.573098,-4.66148 -8.28525,-10.17049 -10.88099,-16.27136 l 0.635104,-0.26303 -0.0021,-0.006 1.112594,-0.46095 -0.382922,-0.92398 -1.112594,0.46096 -0.0031,-0.007 -0.635104,0.26303 c -2.391808,-5.93825 -3.734051,-12.41404 -3.797701,-19.19882 h 0.666626 v -0.006 h 1.204061 v -0.99994 H 49.58494 v -0.008 h -0.666626 c 0.0639,-6.78458 1.406291,-13.260265 3.798218,-19.198317 l 0.634587,0.262 0.0021,-0.0052 1.113627,0.461471 0.382922,-0.923975 -1.113627,-0.461471 0.0031,-0.0072 -0.634587,-0.262517 c 2.595707,-6.100299 6.30774,-11.609214 10.880473,-16.270324 l 0.481107,0.480591 0.0047,-0.0047 0.851628,0.851627 0.706933,-0.706933 -0.851111,-0.851628 0.0052,-0.0052 -0.481107,-0.480591 C 69.363666,69.75382 74.872658,66.041778 80.973205,63.446144 l 0.262516,0.63407 0.0062,-0.0026 0.460954,1.113627 0.923975,-0.382405 -0.460954,-1.114144 0.0062,-0.0026 -0.262516,-0.63407 c 5.938197,-2.391832 12.414111,-3.733985 19.19883,-3.797701 z"
             transform="matrix(3.7795276,0,0,3.7795276,654.2607,259.53264)"
             id="path926" /><path
             style="baseline-shift:baseline;display:inline;overflow:visible;opacity:1;vector-effect:none;fill:url(#linearGradient1132);fill-opacity:1;stroke:none;stroke-width:1.00157;stroke-linejoin:round;stroke-dasharray:none;stroke-dashoffset:0;stroke-opacity:1;enable-background:accumulate;stop-color:#000000;stop-opacity:1"
             d="m 103.41111,131.39238 v 3.76463 h 1.12913 l -0.0284,-2.81636 h 0.20309 l 1.41697,2.81636 h 0.95394 l 1.41645,-2.81636 h 0.19224 l -0.0284,2.81636 h 1.12913 v -3.76463 h -2.06603 l -1.12292,2.44378 -1.11777,-2.44378 z"
             transform="matrix(3.7795276,0,0,3.7795276,654.2607,259.53264)"
             id="path927" /><path
             style="baseline-shift:baseline;display:inline;overflow:visible;opacity:1;vector-effect:none;fill:url(#linearGradient1133);fill-opacity:1;stroke:none;stroke-width:1.00157;stroke-linejoin:round;stroke-dasharray:none;stroke-dashoffset:0;stroke-opacity:1;enable-background:accumulate;stop-color:#000000;stop-opacity:1"
             d="m 98.517353,131.39238 v 3.76463 h 1.146184 v -0.91984 h 1.444873 c 0.8128,0 1.06685,-0.0229 1.32085,-0.10749 0.45155,-0.16369 0.60358,-0.49116 0.60358,-1.32653 0,-0.9652 -0.20296,-1.26993 -0.91416,-1.37718 -0.20884,-0.0282 -0.31044,-0.0336 -1.02164,-0.0336 z m 1.146184,0.94258 h 1.433503 c 0.50236,0.006 0.5137,0.006 0.59273,0.0336 0.14675,0.0508 0.1974,0.16366 0.1974,0.4346 0,0.25964 -0.0339,0.3617 -0.14107,0.42943 -0.096,0.0564 -0.11848,0.0563 -0.64906,0.062 h -1.433503 z"
             transform="matrix(3.7795276,0,0,3.7795276,654.2607,259.53264)"
             id="path928" /><path
             style="baseline-shift:baseline;display:inline;overflow:visible;opacity:1;vector-effect:none;fill:url(#linearGradient1134);fill-opacity:1;stroke:none;stroke-width:1.00157;stroke-linejoin:round;stroke-dasharray:none;stroke-dashoffset:0;stroke-opacity:1;enable-background:accumulate;stop-color:#000000;stop-opacity:1"
             d="m 93.43756,131.39238 v 3.76463 h 1.145667 v -0.95395 h 1.620056 c 0.474133,0 0.558664,0.0115 0.637687,0.10181 0.09031,0.0959 0.113171,0.23141 0.113171,0.65474 v 0.1974 h 1.128614 v -0.34985 c 0.02258,-0.86924 -0.07905,-1.03865 -0.660425,-1.10639 0.225778,-0.0339 0.333039,-0.0735 0.440283,-0.15813 0.2032,-0.1524 0.259932,-0.36672 0.259932,-0.92552 0,-0.65475 -0.08472,-0.903 -0.372587,-1.07798 -0.24271,-0.14675 -0.242769,-0.14676 -1.540991,-0.14676 z m 1.145667,0.94258 h 1.614371 c 0.519289,0.006 0.536445,0.006 0.615467,0.0393 0.118534,0.0508 0.163297,0.15837 0.163297,0.41237 0,0.23707 -0.03372,0.34974 -0.124023,0.40618 -0.07902,0.0564 -0.079,0.0564 -0.654741,0.0677 h -1.614371 z"
             transform="matrix(3.7795276,0,0,3.7795276,654.2607,259.53264)"
             id="path929" /></g></g><g
         id="g942"
         style="display:inline;fill:url(#linearGradient1147);fill-opacity:1;stroke:#000000;stroke-width:1.00157;stroke-dasharray:1.00157, 1.00157;stroke-dashoffset:0"
         transform="translate(-1017.5804,701.67142)"
         class="silkscreen"><path
           d="m 76.821272,155.56363 -1.111481,2.07397 2.307177,1.23646 0.266622,-0.4975 -1.685296,-0.90319 0.176637,-0.32959 1.588904,0.85152 0.244959,-0.45708 -1.588904,-0.85152 0.161639,-0.30162 1.672859,0.89652 0.261623,-0.48818 z m 2.603795,1.39307 -0.971363,2.14318 0.665123,0.30146 0.70918,-1.60744 0.07069,0.032 0.402572,2.11132 1.134244,0.51408 0.971363,-2.14317 -0.665123,-0.30146 -0.707723,1.60422 -0.06748,-0.0306 -0.397602,-2.1052 z m 4.36102,2.95996 -0.162769,0.44006 0.883422,0.32676 -0.02325,0.0629 c -0.09056,0.24485 -0.112863,0.24412 -0.897025,-0.0459 l -0.391287,-0.15225 c -0.186148,-0.0764 -0.242033,-0.10833 -0.281148,-0.17546 -0.05076,-0.0865 -0.029,-0.20631 0.109288,-0.5802 0.211722,-0.5724 0.216254,-0.57449 1.010342,-0.28077 0.502922,0.18602 0.653536,0.25678 0.702576,0.32758 0.032,0.0457 0.02882,0.0746 -0.01559,0.20486 l 0.671666,0.24844 c 0.116626,-0.32548 0.140333,-0.47092 0.08808,-0.61438 -0.08072,-0.22921 -0.365539,-0.39474 -1.186096,-0.69825 -1.429358,-0.52869 -1.55101,-0.4947 -1.932844,0.53762 -0.268018,0.7246 -0.29159,0.90019 -0.144106,1.10143 0.138782,0.19427 0.362685,0.31094 1.120377,0.5912 0.598874,0.22151 0.835378,0.29394 1.077503,0.33084 0.284277,0.045 0.482847,-0.0546 0.604775,-0.3029 0.04909,-0.1022 0.20184,-0.4745 0.282612,-0.69287 l 0.02203,-0.0596 z m 1.827811,1.38774 -0.188299,0.59535 0.716436,0.2266 0.188299,-0.59535 z"
           id="path932"
           style="font-size:3.52778px;font-family:'Microgramma D Extended';-inkscape-font-specification:'Microgramma D Extended, Normal';text-align:center;letter-spacing:0.264583px;word-spacing:0px;text-anchor:middle;display:inline;fill:url(#linearGradient1137);fill-opacity:1;stroke:none;stroke-width:1.00157;stroke-linejoin:round;stroke-dasharray:1.00157, 1.00157;stroke-dashoffset:0;stroke-opacity:1"
           transform="matrix(3.4548952,-1.5324909,1.5324909,3.4548952,1533.2525,-254.08284)"
           aria-label="ENG." /><path
           d="m 74.61642,157.00838 1.48025,0.82958 c 0.692424,0.38806 0.89124,0.45904 1.127526,0.40544 0.228406,-0.054 0.391847,-0.23737 0.691945,-0.77284 0.187992,-0.33544 0.248119,-0.4716 0.283019,-0.64211 0.04538,-0.22529 -0.02449,-0.41812 -0.205177,-0.57196 -0.154718,-0.13524 -0.223774,-0.17798 -0.746939,-0.47118 l -1.480249,-0.82958 z m 0.908687,-0.17822 0.569151,-1.01556 0.864761,0.48464 c 0.381603,0.21387 0.457795,0.27274 0.481029,0.38282 0.0236,0.1022 -0.01867,0.22814 -0.160092,0.48049 -0.26043,0.46469 -0.317683,0.47304 -0.883933,0.1557 z m 3.306495,-0.18327 -1.015938,2.12241 2.36106,1.13017 0.243703,-0.50912 -1.724656,-0.82555 0.161454,-0.33729 1.626013,0.77832 0.223902,-0.46775 -1.626013,-0.77833 0.147745,-0.30866 1.711928,0.81946 0.239134,-0.49958 z m 2.68901,1.26938 -0.892603,2.17716 0.662612,0.27166 0.309133,-0.75401 1.556976,0.63834 0.20475,-0.4994 -1.556976,-0.63834 0.168617,-0.41128 1.638579,0.67179 0.210103,-0.51246 z m 1.80817,3.27351 0.677829,0.23109 0.192387,-0.5643 0.95831,0.32672 c 0.280481,0.0956 0.32829,0.11938 0.356822,0.18874 0.03407,0.075 0.02011,0.15967 -0.06527,0.4101 l -0.03984,0.11686 0.667811,0.22768 0.07058,-0.20702 c 0.188668,-0.50966 0.162716,-0.63033 -0.167546,-0.78765 0.140392,0.0255 0.211803,0.0238 0.292321,-0.005 0.150942,-0.0492 0.227592,-0.16467 0.340292,-0.49524 0.132052,-0.38733 0.132055,-0.55132 -0.0029,-0.71289 -0.113981,-0.13577 -0.113981,-0.13577 -0.881965,-0.3976 l -1.639478,-0.55894 z m 1.060326,-0.89083 0.186695,-0.54761 0.954971,0.32558 c 0.306055,0.10807 0.316072,0.11149 0.355989,0.14746 0.05987,0.054 0.06496,0.1265 0.01373,0.27676 -0.04781,0.14024 -0.09061,0.20019 -0.155423,0.21537 -0.05813,0.0174 -0.05813,0.0174 -0.400991,-0.092 z m 2.414813,1.3756 -0.173944,0.5997 0.721673,0.20932 0.173944,-0.5997 z"
           id="path933"
           style="font-size:3.52778px;font-family:'Microgramma D Extended';-inkscape-font-specification:'Microgramma D Extended, Normal';text-align:center;letter-spacing:0.264583px;word-spacing:0px;text-anchor:middle;display:inline;fill:url(#linearGradient1138);fill-opacity:1;stroke:none;stroke-width:1.00157;stroke-linejoin:round;stroke-dasharray:1.00157, 1.00157;stroke-dashoffset:0;stroke-opacity:1"
           transform="matrix(2.5739733,-2.7675785,2.7675785,2.5739733,1484.4898,-29.92033)"
           aria-label="DEFR." /><path
           d="m 73.41369,156.26235 1.452812,0.86989 c 0.679791,0.40293 0.714897,0.41984 0.853471,0.44936 0.214821,0.0464 0.37929,-0.0566 0.551457,-0.34415 0.193914,-0.32386 0.182872,-0.49083 -0.05629,-0.69571 0.237222,0.0639 0.377515,-0.0124 0.549682,-0.29998 0.219286,-0.36623 0.186441,-0.55859 -0.12897,-0.78034 -0.08718,-0.0604 -0.08718,-0.0604 -0.563582,-0.34979 l -1.449785,-0.86809 z m 1.316313,-0.87302 0.192102,-0.32083 0.865634,0.51832 c 0.276644,0.16975 0.285724,0.17519 0.315393,0.20118 0.0545,0.0532 0.05455,0.1149 0.0038,0.19965 -0.0435,0.0726 -0.09549,0.11141 -0.151765,0.10238 -0.05022,-0.005 -0.141619,-0.0519 -0.359541,-0.18238 z m -0.442197,0.73852 0.201164,-0.33597 0.86866,0.52013 c 0.355338,0.21687 0.355338,0.21687 0.38198,0.24105 0.06055,0.0568 0.06242,0.1155 0.0062,0.20933 -0.05074,0.0847 -0.09911,0.11746 -0.163255,0.10784 -0.05809,-0.006 -0.05809,-0.006 -0.426128,-0.22226 z m 2.11214,1.89913 0.637275,0.32671 0.271986,-0.53054 0.900975,0.46189 c 0.2637,0.13519 0.307571,0.16561 0.325771,0.23837 0.02287,0.0791 -0.0032,0.16089 -0.123903,0.39634 l -0.05633,0.10988 0.627857,0.32187 0.09978,-0.19463 c 0.260402,-0.47702 0.252176,-0.60016 -0.05186,-0.8036 0.135228,0.0455 0.20614,0.0541 0.289927,0.0376 0.156468,-0.0268 0.249017,-0.13002 0.408346,-0.44081 0.186689,-0.36416 0.210412,-0.52643 0.1002,-0.70582 -0.09315,-0.15083 -0.09315,-0.15083 -0.815182,-0.52099 l -1.541389,-0.7902 z m 1.178028,-0.72809 0.263939,-0.51485 0.897836,0.46029 c 0.287205,0.1512 0.296623,0.15603 0.330916,0.19739 0.05144,0.062 0.04598,0.13458 -0.02645,0.27584 -0.06759,0.13185 -0.118618,0.18498 -0.18494,0.19063 -0.06004,0.009 -0.06004,0.009 -0.38347,-0.14902 z m 4.234616,3.28993 0.74887,0.32138 -0.203448,-2.64787 -1.024428,-0.43963 -2.072339,1.67121 0.752112,0.32277 0.341997,-0.28703 1.429661,0.61354 z m -0.05463,-1.01772 -0.966075,-0.41459 0.770186,-0.64072 0.129674,0.0556 z m 1.928388,-0.7576 -0.77455,2.2219 0.676229,0.23573 0.296118,-0.84945 0.36976,0.1289 0.699905,1.19666 1.026003,0.35766 -0.997609,-1.618 1.670206,-0.65438 -1.035996,-0.36114 -1.165097,0.5129 -0.369761,-0.1289 0.281021,-0.80614 z m 3.273547,1.11755 -0.630919,2.26687 2.521763,0.70186 0.151345,-0.54378 -1.842042,-0.51268 0.100265,-0.36025 1.736686,0.48336 0.139048,-0.4996 -1.736686,-0.48336 0.09175,-0.32966 1.828448,0.5089 0.148507,-0.53358 z"
           id="path934"
           style="font-size:3.52778px;font-family:'Microgramma D Extended';-inkscape-font-specification:'Microgramma D Extended, Normal';text-align:center;letter-spacing:0.264583px;word-spacing:0px;text-anchor:middle;display:inline;fill:url(#linearGradient1139);fill-opacity:1;stroke:none;stroke-width:1.00157;stroke-linejoin:round;stroke-dasharray:1.00157, 1.00157;stroke-dashoffset:0;stroke-opacity:1"
           transform="matrix(3.7783298,-0.0951456,0.0951456,3.7783298,1661.283,-436.35773)"
           aria-label="BRAKE" /><g
           id="g941"
           transform="matrix(0.17260837,0,0,0.17260837,2037.7304,87.936673)"
           style="fill:url(#linearGradient1146);fill-opacity:1;stroke:none;stroke-width:5.80256"><path
             d="m 64.65,81.72 c 0,0.68 1.7,0.43 2.15,0.4 9.86,-0.64 17.38,-7.85 20.31,-17.07 1.08,-3.39 1.16,-7.17 2.37,-10.48 2.13,-5.78 8.75,-9.45 6.3,-16.48 20.16,-0.01 37.93,5.99 54.7,16.74 3.97,2.54 17.68,11.93 19.83,15.22 1.76,2.69 0.48,4.12 0.64,6.74 0.15,2.5 1.6,4.21 2.29,6.49 -3.47,-1.28 -6.68,-3.02 -9.15,-5.84 -0.56,0.28 0.06,0.95 0.27,1.29 2.25,3.65 5.39,4.85 9.17,6.4 7.98,3.28 16.52,5.34 24.62,8.28 l -7.14,2.4 c -8.61,5.78 0.56,18.69 9.19,15.82 0.86,-0.29 1.82,-0.76 2.41,-1.48 0.67,-0.83 2.22,-5.44 0.79,-5.43 -1.01,1.9 -1.02,3.82 -3.17,5 -6.76,3.74 -16.68,-8.57 -7.3,-13.14 6.39,-3.12 18.79,-0.97 17.56,8.23 -0.99,7.45 -6.16,10.49 -7.58,16.56 -1.11,4.76 -0.79,5.12 -4.18,9.06 -9.6,11.16 -25.48,22.28 -40.88,21.02 -8,-0.66 -16.93,-7.68 -23.95,-0.97 1.31,0.21 2.45,-0.77 3.73,-0.94 5.94,-0.79 9.96,1.75 15.34,2.89 20.37,4.34 37.6,-9.32 49.83,-23.96 0.91,6.84 -0.99,15.99 -6.43,20.63 -7.78,6.64 -11.93,4.92 -20.99,5.06 -3.67,0.06 -7.92,2.03 -11.71,2.34 -4.76,0.39 -9.91,-0.88 -14.4,-0.39 -6.26,0.69 -8.5,4.06 -15.89,0.32 -10.82,-5.47 -5.3,-20.26 -18.17,-21.74 l 3.51,2.52 c 5.19,5.06 3.78,13.2 8.93,18.32 0,0.36 -4.89,1.72 -5.71,2.07 -9.93,4.24 -19.16,15.77 -20.36,26.56 l 4.51,-7.76 c 5.44,-8.48 12.97,-16.02 22.58,-19.51 l 5.22,3.12 c -8.47,3.62 -9.5,13.09 -13.56,20.13 -5.09,8.83 -13.92,14.4 -20.9,21.55 L 91.44,183.2 87.56,168.59 c -0.33,10.53 1.86,20.91 2.72,31.36 0.72,8.81 0.82,17.32 0.02,26.12 -0.06,0.67 0.06,1.28 -0.61,1.73 -0.79,-2.44 -1.38,-5 -2.34,-7.39 C 82.45,208.26 71.51,200.9 64.49,190.3 56.93,178.88 53.88,165.68 54.44,152.02 c 0.12,-2.85 1.12,-6.97 0.76,-9.69 -0.32,-2.46 -3.86,-7.35 -5.09,-10.09 -4.41,-9.78 -4.2,-15.79 -4.6,-26.17 -0.02,-0.47 0.29,-1.45 -0.38,-1.36 -6.83,24.8 -7.81,50.09 6.45,72.42 5.72,8.95 14.14,16.14 19.3,25.09 4.62,8 7.89,18.14 10.33,27.06 2.26,8.24 4.2,16.94 5.17,25.4 C 71.85,240.47 57.46,226.1 42.99,211.82 31.32,200.31 19.39,188.92 7.73,177.36 c -1.81,-1.79 -5.29,-4.79 -6.6,-6.63 -0.46,-0.65 -1.08,-1.58 -1.16,-2.37 -0.21,-1.9 0.91,-7 1.28,-9.19 4.91,-28.46 22.27,-64.61 41.93,-85.83 0.22,-0.24 0.7,-1.88 1.15,-0.73 l 1.4,5.62 c -6.58,10.42 -14.13,20.53 -20.15,31.28 -8.56,15.29 -12.22,24.82 -4.67,41.81 0.29,0.65 4.93,9.88 5.51,9.09 -1.76,-28.33 8.54,-55.66 19.86,-81.02 0.89,-0.22 0.64,0.17 0.89,0.49 6.69,8.62 3.78,17.23 5,27.31 2.86,23.64 17.94,44.09 43.74,42.71 8.62,-0.46 16.84,-4.27 25.5,-0.78 -0.44,-0.61 -1.71,-1.37 -2.38,-1.71 -9.14,-4.58 -18.83,0.07 -28.59,-0.61 -9.76,-0.68 -20.09,-5.67 -24.87,-14.07 -0.73,-1.29 -1.94,-3.15 -1.59,-4.64 10.35,5.16 22.66,3.33 33.29,0 0.09,-0.68 -0.89,-0.37 -1.36,-0.39 C 80.51,127.1 67.76,124.94 59.58,110.29 55.13,102.32 55.57,95.27 52.89,87.38 51.15,82.26 47.05,78.31 45.98,72.87 43.09,58.18 42.79,47.22 50.62,34.1 57.92,21.87 65.06,15.2 70.42,0.94 c 0.13,-0.34 0.24,-1.19 0.76,-0.81 3.59,4.5 6.68,9.47 9.02,14.74 2.59,5.85 3.66,12.51 7.73,17.59 1.21,1.51 3.09,2.79 4.26,4.3 5.41,6.97 -1.19,10.29 -3.68,16.16 -1.79,4.21 -1.78,8.9 -3.64,13.11 C 81.23,74.31 73,79.44 64.56,81.74 Z m -7.4,-6.24 c 0.62,0.62 7.34,-3.95 8.19,-4.85 3.61,-3.82 1.93,-9.06 6.08,-11.83 4.96,-3.31 9.16,-2.5 10.91,-10.11 C 84.35,40.36 80.86,38.2 79.07,31.25 78.13,27.59 78.11,23.79 77.37,20.1 76.39,15.24 74.51,10.33 71.84,6.16 c -1.56,4.82 -3.38,9.58 -5.83,14.03 -5.99,10.89 -17.2,19.51 -11.56,33.37 1.58,3.89 3.89,6.25 4.3,10.88 0.34,3.87 -1.12,7.28 -1.51,11.05 z m 99.27,3.5 v -6.82 c 0,-4.79 -6.53,-12.94 -10.12,-15.98 -3.61,-3.06 -10.81,-7.04 -15.3,-8.45 -0.38,-0.12 -1.18,-0.63 -1.45,-0.12 6.35,3.95 14.13,7.5 19.28,13.04 0.42,0.45 3.25,3.93 2.91,4.29 -2.62,-2.28 -5.65,-3.16 -9.12,-2.7 -0.47,0.06 -2.04,0.55 -2.16,1.14 5.94,-0.65 11.16,2.7 13.57,8.05 l 2.39,7.54 z m -13.73,-2.62 c -2.1,-1.71 -7.33,0.31 -9.5,1.39 -2.04,1.02 -4.48,2.62 -6.36,3.96 2.77,-1.19 4.38,1.02 6.74,2.02 3.49,1.48 6.41,1.86 9.4,-0.84 l 5.27,1.94 c -0.89,-1.45 -2.51,-2.35 -3.44,-3.76 -0.67,-1.01 -1.68,-4.35 -2.11,-4.7 z m 37.86,75.07 c 6.87,0.61 14.57,-3.39 16.73,-10.12 -2.89,3.37 -6.28,6.32 -10.41,8.09 l -6.33,2.04 z"
             id="path936"
             style="fill:url(#linearGradient1140);fill-opacity:1;stroke:none;stroke-width:5.80256" /><path
             d="m 89.17,251.94 c 1.86,-12.44 6.21,-24.48 12.25,-35.46 6.33,-11.5 15.17,-21.55 20.51,-33.62 3.13,-7.05 5.16,-17.01 11.6,-21.89 0.88,-0.67 3.16,-1.75 2.41,0.07 -0.66,1.6 -2.3,3.54 -3.13,5.45 -2.54,5.89 -3.2,13.06 -2.8,19.44 0.13,2.1 1.54,7.15 0.89,8.65 -10.16,12.09 -20.42,24.24 -29.22,37.38 -4.38,6.53 -8.04,13.58 -12.53,19.99 z"
             id="path937"
             style="fill:url(#linearGradient1141);fill-opacity:1;stroke:none;stroke-width:5.80256" /><path
             d="M 123.81,40.42 107.85,37.3 c 6.96,-6.61 11.79,-14.89 14.41,-24.14 l 1.94,9.93 c 0.54,5.82 -1.71,11.58 -0.39,17.33 z"
             id="path938"
             style="fill:url(#linearGradient1142);fill-opacity:1;stroke:none;stroke-width:5.80256" /><path
             d="m 134.32,44.32 c -1.4,-1.11 -8.35,-2.77 -8.87,-3.78 -1.38,-2.66 0.17,-7.28 0.31,-10.06 0.26,-5.26 -0.09,-10.25 -1.16,-15.38 2.58,3.36 4.18,7.82 5.45,11.87 1.77,5.64 3.02,11.56 4.27,17.34 z"
             id="path939"
             style="fill:url(#linearGradient1143);fill-opacity:1;stroke:none;stroke-width:5.80256" /><path
             d="m 209.46,114.05 c 0.82,9.65 -0.25,20.55 -7,28.04 0.82,-2.37 1.72,-5.08 1.94,-7.6 0.49,-5.68 -1.17,-11.35 1.64,-16.67 0.28,-0.52 2.86,-4.41 3.43,-3.77 z"
             id="path940"
             style="fill:url(#linearGradient1144);fill-opacity:1;stroke:none;stroke-width:5.80256" /><path
             d="m 59.59,72.36 c 1.05,-4.74 1.25,-8.75 -0.49,-13.35 -1.94,-5.15 -4.97,-7.93 -4.59,-14.13 0.48,-7.71 9.54,-17.55 13.32,-24.46 1.76,-3.23 2.92,-6.65 4.41,-9.99 4.28,6.64 3.37,15.07 5.45,22.2 1.78,6.1 4.88,8.32 3.13,15.59 -2.07,8.62 -8.66,6.13 -12.28,11.09 -1.89,2.59 -1.46,5.53 -2.79,8.12 -1.17,2.27 -3.89,3.91 -6.16,4.93 z"
             id="path941"
             style="fill:url(#linearGradient1145);fill-opacity:1;stroke:none;stroke-width:5.80256" /></g></g></g></g></svg>
