<?xml version="1.0" encoding="UTF-8" standalone="no"?>
<svg
   viewBox="0 0 456.53931 456.53947"
   width="456.53931"
   height="456.53949"
   version="1.1"
   id="svg55"
   xml:space="preserve"
   xmlns:xlink="http://www.w3.org/1999/xlink"
   xmlns="http://www.w3.org/2000/svg"
   xmlns:svg="http://www.w3.org/2000/svg"><style
     id="style1" /><desc
     id="desc1">small_assy.dxf - scale = 1.000000, origin = (0.000000, 0.000000), method = manual</desc><defs
     id="defs4"><linearGradient
       id="swatch63"><stop
         style="stop-color:#000000;stop-opacity:0.8;"
         offset="0"
         id="stop63" /></linearGradient><linearGradient
       id="swatch62"><stop
         style="stop-color:#edba5c;stop-opacity:0.8;"
         offset="0"
         id="stop62" /></linearGradient><linearGradient
       id="swatch61"><stop
         style="stop-color:#efb78f;stop-opacity:0.8;"
         offset="0"
         id="stop61" /></linearGradient><linearGradient
       id="swatch60"><stop
         style="stop-color:#000000;stop-opacity:0.8;"
         offset="0"
         id="stop60" /></linearGradient><linearGradient
       id="swatch59"><stop
         style="stop-color:#811eae;stop-opacity:0.8;"
         offset="0"
         id="stop59" /></linearGradient><linearGradient
       id="swatch58"><stop
         style="stop-color:#168969;stop-opacity:0.8;"
         offset="0"
         id="stop58" /></linearGradient><linearGradient
       id="swatch57"><stop
         style="stop-color:#efb78f;stop-opacity:0.8;"
         offset="0"
         id="stop57" /></linearGradient><linearGradient
       id="swatch56"><stop
         style="stop-color:#f4c2b0;stop-opacity:0.8;"
         offset="0"
         id="stop56" /></linearGradient><linearGradient
       id="swatch51"><stop
         style="stop-color:#edba5c;stop-opacity:0.8;"
         offset="0"
         id="stop51" /></linearGradient><linearGradient
       id="swatch49"><stop
         style="stop-color:#ec7c43;stop-opacity:0.8;"
         offset="0"
         id="stop49" /></linearGradient><linearGradient
       id="swatch48"><stop
         style="stop-color:#f4c2b0;stop-opacity:0.8;"
         offset="0"
         id="stop48" /></linearGradient><linearGradient
       id="swatch27"><stop
         style="stop-color:#000000;stop-opacity:1;"
         offset="0"
         id="stop27" /></linearGradient><linearGradient
       id="swatch26"><stop
         style="stop-color:#000000;stop-opacity:1;"
         offset="0"
         id="stop26" /></linearGradient><linearGradient
       id="swatch25"><stop
         style="stop-color:#5a7f79;stop-opacity:0.8;"
         offset="0"
         id="stop25" /></linearGradient><linearGradient
       id="swatch41"><stop
         style="stop-color:#000000;stop-opacity:0.8;"
         offset="0"
         id="stop41" /></linearGradient><linearGradient
       id="swatch24"><stop
         style="stop-color:#000000;stop-opacity:1;"
         offset="0"
         id="stop24" /></linearGradient><linearGradient
       id="swatch23"><stop
         style="stop-color:#000000;stop-opacity:1;"
         offset="0"
         id="stop23" /></linearGradient><linearGradient
       id="swatch22"><stop
         style="stop-color:#000000;stop-opacity:1;"
         offset="0"
         id="stop22" /></linearGradient><linearGradient
       id="swatch21"><stop
         style="stop-color:#000000;stop-opacity:1;"
         offset="0"
         id="stop21" /></linearGradient><linearGradient
       id="swatch20"><stop
         style="stop-color:#000000;stop-opacity:1;"
         offset="0"
         id="stop20" /></linearGradient><linearGradient
       id="swatch19"><stop
         style="stop-color:#000000;stop-opacity:1;"
         offset="0"
         id="stop19" /></linearGradient><linearGradient
       id="swatch18"><stop
         style="stop-color:#545454;stop-opacity:1;"
         offset="0"
         id="stop18" /></linearGradient><linearGradient
       id="swatch17"><stop
         style="stop-color:#545454;stop-opacity:1;"
         offset="0"
         id="stop17" /></linearGradient><linearGradient
       id="swatch16"><stop
         style="stop-color:#282828;stop-opacity:1;"
         offset="0"
         id="stop16" /></linearGradient><linearGradient
       id="swatch15"><stop
         style="stop-color:#545454;stop-opacity:1;"
         offset="0"
         id="stop15" /></linearGradient><linearGradient
       id="swatch14"><stop
         style="stop-color:#545454;stop-opacity:1;"
         offset="0"
         id="stop14" /></linearGradient><linearGradient
       id="swatch2394"><stop
         style="stop-color:#424242;stop-opacity:1;"
         offset="0"
         id="stop2394" /></linearGradient><linearGradient
       id="swatch1389"><stop
         style="stop-color:#f4f4f4;stop-opacity:1;"
         offset="0"
         id="stop1389" /></linearGradient><linearGradient
       id="swatch1388"><stop
         style="stop-color:#000000;stop-opacity:1;"
         offset="0"
         id="stop1388" /></linearGradient><linearGradient
       id="swatch1387"><stop
         style="stop-color:#ff0000;stop-opacity:0.629079;"
         offset="0"
         id="stop1387" /></linearGradient><linearGradient
       id="swatch1386"><stop
         style="stop-color:#000000;stop-opacity:1;"
         offset="0"
         id="stop1386" /></linearGradient><linearGradient
       id="swatch1385"><stop
         style="stop-color:#000000;stop-opacity:1;"
         offset="0"
         id="stop1385" /></linearGradient><linearGradient
       id="swatch1384"><stop
         style="stop-color:#282828;stop-opacity:1;"
         offset="0"
         id="stop1384" /></linearGradient><linearGradient
       id="swatch1383"><stop
         style="stop-color:#1d1d1d;stop-opacity:1;"
         offset="0"
         id="stop1383" /></linearGradient><linearGradient
       id="swatch1382"><stop
         style="stop-color:#282828;stop-opacity:1;"
         offset="0"
         id="stop1382" /></linearGradient><linearGradient
       id="swatch1217"><stop
         style="stop-color:#f9f9f9;stop-opacity:0.629079;"
         offset="0"
         id="stop1217" /></linearGradient><linearGradient
       id="swatch13"><stop
         style="stop-color:#168969;stop-opacity:0.8;"
         offset="0"
         id="stop13" /></linearGradient><linearGradient
       id="swatch12"><stop
         style="stop-color:#811eae;stop-opacity:0.80000001;"
         offset="0"
         id="stop12" /></linearGradient><linearGradient
       id="swatch11"><stop
         style="stop-color:#f4c2b0;stop-opacity:0.80000001;"
         offset="0"
         id="stop11" /></linearGradient><linearGradient
       id="swatch10"><stop
         style="stop-color:#efb78f;stop-opacity:0.80000001;"
         offset="0"
         id="stop10" /></linearGradient><linearGradient
       id="swatch4"><stop
         style="stop-color:#858989;stop-opacity:0.80000001;"
         offset="0"
         id="stop4" /></linearGradient><linearGradient
       id="swatch3"><stop
         style="stop-color:#000000;stop-opacity:0.80000001;"
         offset="0"
         id="stop3" /></linearGradient><linearGradient
       id="swatch2"><stop
         style="stop-color:#d9d9d9;stop-opacity:0.80000001;"
         offset="0"
         id="stop2" /></linearGradient><linearGradient
       id="swatch495"><stop
         style="stop-color:#282828;stop-opacity:1;"
         offset="0"
         id="stop495" /></linearGradient><linearGradient
       id="swatch489"><stop
         style="stop-color:#f4f4f4;stop-opacity:1;"
         offset="0"
         id="stop489" /></linearGradient><linearGradient
       id="swatch442"><stop
         style="stop-color:#3561e9;stop-opacity:0.80000001;"
         offset="0"
         id="stop442" /></linearGradient><linearGradient
       id="swatch9"
       gradientTransform="translate(2565.7671,74.97117)"><stop
         style="stop-color:#000000;stop-opacity:0.629079;"
         offset="0"
         id="stop9" /></linearGradient><linearGradient
       id="swatch8"><stop
         style="stop-color:#191919;stop-opacity:1;"
         offset="0"
         id="stop8" /></linearGradient><linearGradient
       id="swatch7"><stop
         style="stop-color:#373737;stop-opacity:1;"
         offset="0"
         id="stop7" /></linearGradient><linearGradient
       id="swatch6"><stop
         style="stop-color:#ffffff;stop-opacity:1;"
         offset="0"
         id="stop6" /></linearGradient><linearGradient
       id="swatch5"><stop
         style="stop-color:#ff0000;stop-opacity:1;"
         offset="0"
         id="stop5" /></linearGradient><linearGradient
       id="swatch1"><stop
         style="stop-color:#ffffff;stop-opacity:1;"
         offset="0"
         id="stop1" /></linearGradient><filter
       style="color-interpolation-filters:sRGB"
       id="filter569-3-1"
       x="-0.030720002"
       y="-0.030719996"
       width="1.06144"
       height="1.06144"><feGaussianBlur
         stdDeviation="5.5054494"
         id="feGaussianBlur569-3-6" /></filter><linearGradient
       xlink:href="#swatch2394"
       id="linearGradient19"
       x1="2688.6011"
       y1="499.57629"
       x2="3118.7144"
       y2="499.57629"
       gradientUnits="userSpaceOnUse" /><linearGradient
       xlink:href="#swatch2394"
       id="linearGradient169"
       gradientUnits="userSpaceOnUse"
       x1="2688.6011"
       y1="499.57629"
       x2="3118.7144"
       y2="499.57629" /><linearGradient
       xlink:href="#swatch2394"
       id="linearGradient170"
       gradientUnits="userSpaceOnUse"
       x1="2688.6011"
       y1="499.57629"
       x2="3118.7144"
       y2="499.57629" /><linearGradient
       xlink:href="#swatch2394"
       id="linearGradient171"
       gradientUnits="userSpaceOnUse"
       x1="2688.6011"
       y1="499.57629"
       x2="3118.7144"
       y2="499.57629" /><linearGradient
       xlink:href="#swatch2394"
       id="linearGradient172"
       gradientUnits="userSpaceOnUse"
       x1="2688.6011"
       y1="499.57629"
       x2="3118.7144"
       y2="499.57629" /><linearGradient
       xlink:href="#swatch2394"
       id="linearGradient173"
       gradientUnits="userSpaceOnUse"
       x1="2688.6011"
       y1="499.57629"
       x2="3118.7144"
       y2="499.57629" /><linearGradient
       xlink:href="#swatch2394"
       id="linearGradient174"
       gradientUnits="userSpaceOnUse"
       x1="2688.6011"
       y1="499.57629"
       x2="3118.7144"
       y2="499.57629" /><linearGradient
       xlink:href="#swatch2394"
       id="linearGradient175"
       gradientUnits="userSpaceOnUse"
       x1="2688.6011"
       y1="499.57629"
       x2="3118.7144"
       y2="499.57629" /><linearGradient
       xlink:href="#swatch2394"
       id="linearGradient176"
       gradientUnits="userSpaceOnUse"
       x1="2688.6011"
       y1="499.57629"
       x2="3118.7144"
       y2="499.57629" /></defs><g
     id="layer8"
     transform="translate(-3512.7573,47.79742)"><g
       id="g1861"
       style="display:inline;stroke:#000000;stroke-width:1.00157;stroke-dasharray:1.00157, 1.00157;stroke-dashoffset:0;stroke-opacity:0.174959"
       transform="translate(837.36937,-319.10405)"><g
         id="g1849"
         style="display:none;stroke:#000000;stroke-width:1.00157;stroke-dasharray:1.00157, 1.00157;stroke-dashoffset:0;stroke-opacity:0.174959"
         transform="matrix(3.7795276,0,0,3.7795276,2692.7601,301.93402)"><g
           id="g1840"
           style="display:inline;opacity:0.6;fill:#000000;fill-opacity:1;stroke:#000000;stroke-width:1.00157;stroke-dasharray:1.00157, 1.00157;stroke-dashoffset:0;stroke-opacity:0.174959;filter:url(#filter569-3-1)"
           transform="matrix(0.26458333,0,0,0.26458333,-712.45944,-79.886709)"><path
             style="font-size:7.05556px;font-family:'Microgramma D Extended';-inkscape-font-specification:'Microgramma D Extended';text-align:center;letter-spacing:0px;word-spacing:0px;text-anchor:middle;display:inline;fill:#000000;fill-opacity:1;stroke:none;stroke-width:2.7;stroke-linejoin:round;stroke-dasharray:1.00157, 1.00157;stroke-dashoffset:0;stroke-opacity:0.174959"
             d="m 21.677193,19.85284 c -0.268111,0.04233 -0.373945,0.07056 -0.486834,0.127 -0.310444,0.155222 -0.430389,0.451556 -0.430389,1.051278 0,0.627945 0.155222,0.931334 0.557389,1.107723 0.352778,0.148167 0.691445,0.176389 2.201335,0.176389 1.326445,0 1.658057,-0.02117 1.996724,-0.105833 0.5715,-0.148167 0.769056,-0.458611 0.769056,-1.178279 0,-0.543278 -0.09172,-0.818444 -0.338667,-0.994833 -0.119945,-0.09172 -0.232834,-0.127001 -0.578556,-0.183445 0.649111,-0.04939 0.860778,-0.303389 0.860778,-1.044223 0,-0.613834 -0.155222,-0.938389 -0.543278,-1.114778 -0.296334,-0.134056 -1.00189,-0.197556 -2.166057,-0.197556 -0.924278,0 -1.686279,0.04939 -1.982612,0.134056 -0.515056,0.148166 -0.719667,0.479778 -0.719667,1.178278 0,0.740834 0.211666,0.994834 0.860778,1.044223 z m 1.70039,-1.298223 c 0.515056,0 1.072445,0.02117 1.227667,0.04939 0.183445,0.03528 0.261056,0.141111 0.261056,0.359833 0,0.402167 0,0.402167 -1.397001,0.402167 -1.234723,0 -1.291167,-0.01411 -1.291167,-0.402167 0,-0.366889 0.127,-0.409222 1.199445,-0.409223 z m 0.141111,1.82739 c 0.508,0 1.079501,0.02117 1.178279,0.04939 0.169333,0.04233 0.225778,0.127 0.225778,0.366889 0,0.437445 -0.0635,0.458611 -1.538113,0.458611 -1.213556,0 -1.262945,-0.01411 -1.262945,-0.423333 0,-0.437445 0.03528,-0.451556 1.397001,-0.451556 z m 6.406446,-2.885724 c -0.860778,0 -1.545168,0.02822 -1.897946,0.08467 -0.557389,0.07761 -0.910167,0.402167 -1.001889,0.910167 -0.04939,0.268111 -0.05644,0.395111 -0.05644,1.347612 0,1.121834 0,1.199445 0.05644,1.481667 0.09172,0.508001 0.4445,0.832557 1.001889,0.910168 0.345723,0.05644 1.037168,0.08467 1.897946,0.08467 0.853723,0 1.545168,-0.02822 1.89089,-0.08467 0.557389,-0.07761 0.910167,-0.402167 1.001889,-0.910168 0.04939,-0.275166 0.05644,-0.381 0.05644,-1.418167 0,-1.030112 -0.0071,-1.135945 -0.05644,-1.411112 -0.09172,-0.508 -0.4445,-0.832556 -1.001889,-0.910167 -0.352778,-0.05645 -1.037167,-0.08467 -1.89089,-0.08467 z m -0.09172,1.220612 c 1.580445,0 1.608667,0.02117 1.608667,1.185334 0,1.171223 -0.02117,1.19239 -1.615723,1.19239 -1.375834,0 -1.425223,-0.04233 -1.425223,-1.213557 0,-1.114778 0.0635,-1.164167 1.432279,-1.164167 z"
             id="path1833"
             aria-label="80"
             transform="matrix(3.7795276,0,0,3.7795276,2692.7601,301.93402)" /><path
             style="font-size:7.05556px;font-family:'Microgramma D Extended';-inkscape-font-specification:'Microgramma D Extended';text-align:center;letter-spacing:0px;word-spacing:0px;text-anchor:middle;display:inline;fill:#000000;fill-opacity:1;stroke:none;stroke-width:2.7;stroke-linejoin:round;stroke-dasharray:1.00157, 1.00157;stroke-dashoffset:0;stroke-opacity:0.174959"
             d="m 48.790516,3.8153448 -1.721556,1.474612 0.790222,0.924278 1.389946,-1.171223 h 0.373944 v 3.478391 h 1.432279 v -4.706058 z m 4.952998,1.749779 v -0.162278 c 0.0071,-0.352778 0.03528,-0.479778 0.155222,-0.522112 0.148167,-0.0635 0.522114,-0.08467 1.432274,-0.08467 0.74789,0 0.93839,0.0071 1.06539,0.04939 0.17639,0.04939 0.22578,0.148167 0.22578,0.423334 0,0.381 -0.0635,0.416278 -0.89605,0.479778 -1.29823,0.105833 -1.968505,0.155222 -2.024949,0.162278 -0.733779,0.09878 -1.037168,0.275167 -1.185335,0.712612 -0.07761,0.218722 -0.105833,0.578555 -0.105833,1.361723 0,0.225778 0,0.303389 0.02117,0.536222 h 5.609167 v -1.079501 h -4.296833 v -0.04939 c 0.0071,-0.232834 0.05644,-0.324556 0.232833,-0.395112 0.09172,-0.04233 0.36689,-0.0635 2.34244,-0.1905 0.79728,-0.04233 1.23473,-0.197556 1.43934,-0.500945 0.14816,-0.225778 0.20461,-0.500944 0.20461,-1.058334 0,-0.747889 -0.0988,-1.058334 -0.41628,-1.262945 -0.31044,-0.204611 -0.54328,-0.225778 -2.50472,-0.225778 -2.384779,0 -2.681113,0.176389 -2.681113,1.601612 v 0.204612 z m 7.838726,-1.806224 c -0.86078,0 -1.54517,0.02822 -1.89795,0.08467 -0.55739,0.07761 -0.91016,0.402167 -1.00189,0.910167 -0.0494,0.268111 -0.0564,0.395111 -0.0564,1.347612 0,1.121834 0,1.199445 0.0564,1.481668 0.0917,0.508 0.4445,0.832556 1.00189,0.910167 0.34573,0.05644 1.03717,0.08467 1.89795,0.08467 0.85372,0 1.54517,-0.02822 1.89089,-0.08467 0.55739,-0.07761 0.91017,-0.402167 1.00189,-0.910167 0.0494,-0.275167 0.0564,-0.381001 0.0564,-1.418168 0,-1.030112 -0.007,-1.135945 -0.0564,-1.411112 -0.0917,-0.508 -0.4445,-0.832556 -1.00189,-0.910167 -0.35278,-0.05645 -1.03717,-0.08467 -1.89089,-0.08467 z m -0.0917,1.220612 c 1.58044,0 1.60866,0.02117 1.60866,1.185334 0,1.171223 -0.0212,1.19239 -1.61572,1.19239 -1.37583,0 -1.42522,-0.04233 -1.42522,-1.213557 0,-1.114778 0.0635,-1.164167 1.43228,-1.164167 z"
             id="path1834"
             aria-label="120"
             transform="matrix(3.7795276,0,0,3.7795276,2692.7601,301.93402)" /><path
             style="font-size:7.05556px;font-family:'Microgramma D Extended';-inkscape-font-specification:'Microgramma D Extended';text-align:center;letter-spacing:0px;word-spacing:0px;text-anchor:middle;display:inline;fill:#000000;fill-opacity:1;stroke:none;stroke-width:2.7;stroke-linejoin:round;stroke-dasharray:1.00157, 1.00157;stroke-dashoffset:0;stroke-opacity:0.174959"
             d="m 75.337726,17.552726 -1.72156,1.474612 0.79023,0.924279 1.38994,-1.171223 h 0.37395 v 3.478391 h 1.43228 v -4.706059 z m 9.144,1.31939 c -0.007,-0.599723 -0.0565,-0.818445 -0.22578,-0.994834 -0.27517,-0.296334 -0.80433,-0.381 -2.40595,-0.381 -2.12372,0 -2.667,0.176389 -2.83633,0.924278 -0.0706,0.310445 -0.0847,0.550334 -0.0847,1.333501 0,1.566334 0.0564,1.89089 0.37395,2.187224 0.3175,0.289278 0.80433,0.373944 2.159,0.373944 1.45344,0 2.01789,-0.03528 2.32128,-0.155222 0.48683,-0.183445 0.66322,-0.564445 0.66322,-1.411112 0,-1.270001 -0.39511,-1.538112 -2.24367,-1.538112 -1.23472,0 -1.54517,0.07055 -1.905,0.416278 -0.007,-0.112889 -0.007,-0.204611 -0.007,-0.261056 0,-0.451556 0.0494,-0.620889 0.19756,-0.6985 0.15522,-0.07056 0.53622,-0.105834 1.22767,-0.105834 0.22578,0 0.49389,0.0071 0.79728,0.02117 0.43744,0.01411 0.47977,0.02117 0.55033,0.07761 0.0494,0.03528 0.0706,0.08467 0.0776,0.211667 z m -2.96334,1.397001 c 1.46756,0 1.53811,0.02117 1.53811,0.500945 0,0.303389 -0.0988,0.430389 -0.34572,0.451555 -0.14817,0.01411 -0.80433,0.03528 -1.22767,0.03528 -0.47272,0 -0.78316,-0.01411 -0.889,-0.04233 -0.19755,-0.04233 -0.27516,-0.176389 -0.27516,-0.451556 0,-0.211667 0.0776,-0.359834 0.22577,-0.423334 0.13406,-0.05644 0.29634,-0.07055 0.97367,-0.07055 z m 6.61811,-2.772835 c -0.86077,0 -1.54516,0.02822 -1.89794,0.08467 -0.55739,0.07761 -0.91017,0.402167 -1.00189,0.910168 -0.0494,0.268111 -0.0564,0.395111 -0.0564,1.347612 0,1.121834 0,1.199445 0.0564,1.481667 0.0917,0.508001 0.4445,0.832556 1.00189,0.910168 0.34572,0.05644 1.03717,0.08467 1.89794,0.08467 0.85373,0 1.54517,-0.02822 1.89089,-0.08467 0.55739,-0.07761 0.91017,-0.402167 1.00189,-0.910168 0.0494,-0.275167 0.0564,-0.381 0.0564,-1.418167 0,-1.030112 -0.007,-1.135945 -0.0564,-1.411112 -0.0917,-0.508001 -0.4445,-0.832556 -1.00189,-0.910168 -0.35277,-0.05644 -1.03716,-0.08467 -1.89089,-0.08467 z m -0.0917,1.220612 c 1.58045,0 1.60867,0.02117 1.60867,1.185334 0,1.171223 -0.0212,1.192389 -1.61572,1.192389 -1.37584,0 -1.42523,-0.04233 -1.42523,-1.213556 0,-1.114778 0.0635,-1.164167 1.43228,-1.164167 z"
             id="path1835"
             aria-label="160"
             transform="matrix(3.7795276,0,0,3.7795276,2692.7601,301.93402)" /><path
             style="font-size:7.05556px;font-family:'Microgramma D Extended';-inkscape-font-specification:'Microgramma D Extended';text-align:center;letter-spacing:0px;word-spacing:0px;text-anchor:middle;display:inline;fill:#000000;fill-opacity:1;stroke:none;stroke-width:2.7;stroke-linejoin:round;stroke-dasharray:1.00157, 1.00157;stroke-dashoffset:0;stroke-opacity:0.174959"
             d="m 87.306096,51.724187 v -0.16228 c 0.007,-0.35277 0.0353,-0.47977 0.15522,-0.52211 0.14817,-0.0635 0.52211,-0.0847 1.43228,-0.0847 0.74789,0 0.93839,0.007 1.06539,0.0494 0.17639,0.0494 0.22578,0.14816 0.22578,0.42333 0,0.381 -0.0635,0.41628 -0.89606,0.47978 -1.29822,0.10583 -1.9685,0.15522 -2.02494,0.16227 -0.73378,0.0988 -1.03717,0.27517 -1.18534,0.71262 -0.0776,0.21872 -0.10583,0.57855 -0.10583,1.36172 0,0.22578 0,0.30339 0.0212,0.53622 h 5.60917 v -1.0795 h -4.29684 v -0.0494 c 0.007,-0.23283 0.0564,-0.32455 0.23283,-0.39511 0.0917,-0.0423 0.36689,-0.0635 2.34245,-0.1905 0.79728,-0.0423 1.23472,-0.19755 1.43933,-0.50094 0.14817,-0.22578 0.20462,-0.50095 0.20462,-1.05834 0,-0.74789 -0.0988,-1.05833 -0.41628,-1.26294 -0.31045,-0.20461 -0.54328,-0.22578 -2.50473,-0.22578 -2.38478,0 -2.68111,0.17639 -2.68111,1.60161 v 0.20461 z m 7.83872,-1.80622 c -0.86077,0 -1.54516,0.0282 -1.89794,0.0847 -0.55739,0.0776 -0.91017,0.40216 -1.00189,0.91016 -0.0494,0.26811 -0.0564,0.39511 -0.0564,1.34761 0,1.12184 0,1.19945 0.0564,1.48167 0.0917,0.508 0.4445,0.83256 1.00189,0.91017 0.34572,0.0564 1.03717,0.0847 1.89794,0.0847 0.85373,0 1.54517,-0.0282 1.89089,-0.0847 0.55739,-0.0776 0.91017,-0.40217 1.00189,-0.91017 0.0494,-0.27516 0.0564,-0.381 0.0564,-1.41817 0,-1.03011 -0.007,-1.13594 -0.0564,-1.41111 -0.0917,-0.508 -0.4445,-0.83255 -1.00189,-0.91016 -0.35277,-0.0564 -1.03716,-0.0847 -1.89089,-0.0847 z m -0.0917,1.22061 c 1.58045,0 1.60867,0.0212 1.60867,1.18533 0,1.17123 -0.0212,1.19239 -1.61572,1.19239 -1.37584,0 -1.42523,-0.0423 -1.42523,-1.21355 0,-1.11478 0.0635,-1.16417 1.43228,-1.16417 z m 6.491124,-1.22061 c -0.86078,0 -1.545177,0.0282 -1.897957,0.0847 -0.557387,0.0776 -0.910167,0.40216 -1.001887,0.91016 -0.0494,0.26811 -0.0564,0.39511 -0.0564,1.34761 0,1.12184 0,1.19945 0.0564,1.48167 0.0917,0.508 0.4445,0.83256 1.001887,0.91017 0.34572,0.0564 1.037177,0.0847 1.897957,0.0847 0.85372,0 1.54516,-0.0282 1.89089,-0.0847 0.55738,-0.0776 0.91016,-0.40217 1.00188,-0.91017 0.0494,-0.27516 0.0565,-0.381 0.0565,-1.41817 0,-1.03011 -0.007,-1.13594 -0.0565,-1.41111 -0.0917,-0.508 -0.4445,-0.83255 -1.00188,-0.91016 -0.35278,-0.0564 -1.03717,-0.0847 -1.89089,-0.0847 z m -0.0917,1.22061 c 1.58045,0 1.60867,0.0212 1.60867,1.18533 0,1.17123 -0.0212,1.19239 -1.61572,1.19239 -1.37584,0 -1.42523,-0.0423 -1.42523,-1.21355 0,-1.11478 0.0635,-1.16417 1.43228,-1.16417 z"
             id="path1836"
             aria-label="200"
             transform="matrix(3.7795276,0,0,3.7795276,2692.7601,301.93402)" /><path
             style="font-size:7.05556px;font-family:'Microgramma D Extended';-inkscape-font-specification:'Microgramma D Extended';text-align:center;letter-spacing:0px;word-spacing:0px;text-anchor:middle;display:inline;fill:#000000;fill-opacity:1;stroke:none;stroke-width:2.7;stroke-linejoin:round;stroke-dasharray:1.00157, 1.00157;stroke-dashoffset:0;stroke-opacity:0.174959"
             d="m 13.244988,52.803657 h -0.917223 v -2.77283 h -2.321279 l -2.7940023,2.032 v 1.79916 h 3.7535583 v 0.87489 h 1.361723 v -0.87489 h 0.917223 z m -2.278946,0 H 8.4965957 v -0.18344 l 2.1801683,-1.49578 h 0.289278 z m 5.524501,-2.82928 c -0.860778,0 -1.545168,0.0282 -1.897946,0.0847 -0.557389,0.0776 -0.910167,0.40216 -1.001889,0.91016 -0.04939,0.26812 -0.05644,0.39512 -0.05644,1.34762 0,1.12183 0,1.19944 0.05644,1.48166 0.09172,0.508 0.4445,0.83256 1.001889,0.91017 0.345723,0.0564 1.037168,0.0847 1.897946,0.0847 0.853723,0 1.545168,-0.0282 1.89089,-0.0847 0.557389,-0.0776 0.910167,-0.40217 1.00189,-0.91017 0.04939,-0.27516 0.05644,-0.381 0.05644,-1.41816 0,-1.03012 -0.0071,-1.13595 -0.05644,-1.41112 -0.09172,-0.508 -0.444501,-0.83255 -1.00189,-0.91016 -0.352778,-0.0564 -1.037167,-0.0847 -1.89089,-0.0847 z m -0.09172,1.22061 c 1.580445,0 1.608667,0.0212 1.608667,1.18534 0,1.17122 -0.02117,1.19239 -1.615723,1.19239 -1.375834,0 -1.425223,-0.0423 -1.425223,-1.21356 0,-1.11478 0.0635,-1.16417 1.432279,-1.16417 z"
             id="path1837"
             aria-label="40"
             transform="matrix(3.7795276,0,0,3.7795276,2692.7601,301.93402)" /><path
             style="font-size:7.05556px;font-family:'Microgramma D Extended';-inkscape-font-specification:'Microgramma D Extended';text-align:center;letter-spacing:0px;word-spacing:0px;text-anchor:middle;display:inline;fill:#000000;fill-opacity:1;stroke:none;stroke-width:2.7;stroke-linejoin:round;stroke-dasharray:1.00157, 1.00157;stroke-dashoffset:0;stroke-opacity:0.174959"
             d="m 24.606678,82.7176 c -0.860778,0 -1.545168,0.0282 -1.897946,0.0847 -0.557389,0.0776 -0.910167,0.40217 -1.001889,0.91017 -0.04939,0.26811 -0.05645,0.39511 -0.05645,1.34761 0,1.12183 0,1.19944 0.05645,1.48167 0.09172,0.508 0.4445,0.83255 1.001889,0.91016 0.345723,0.0564 1.037168,0.0847 1.897946,0.0847 0.853723,0 1.545168,-0.0282 1.89089,-0.0847 0.557389,-0.0776 0.910167,-0.40216 1.00189,-0.91016 0.04939,-0.27517 0.05644,-0.381 0.05644,-1.41817 0,-1.03011 -0.0071,-1.13595 -0.05644,-1.41111 -0.09172,-0.508 -0.444501,-0.83256 -1.00189,-0.91017 -0.352778,-0.0564 -1.037167,-0.0847 -1.89089,-0.0847 z m -0.09172,1.22061 c 1.580445,0 1.608668,0.0212 1.608668,1.18534 0,1.17122 -0.02117,1.19239 -1.615724,1.19239 -1.375834,0 -1.425223,-0.0423 -1.425223,-1.21356 0,-1.11478 0.0635,-1.16417 1.432279,-1.16417 z"
             id="path1838"
             aria-label="0"
             transform="matrix(3.7795276,0,0,3.7795276,2692.7601,301.93402)" /><path
             style="font-size:5.64444px;font-family:'Microgramma D Extended';-inkscape-font-specification:'Microgramma D Extended';text-align:center;letter-spacing:0px;word-spacing:0px;text-anchor:middle;display:inline;fill:#000000;fill-opacity:1;stroke:none;stroke-width:2.7;stroke-linejoin:round;stroke-dasharray:1.00157, 1.00157;stroke-dashoffset:0;stroke-opacity:0.174959"
             d="m 93.216791,127.88495 v 3.76485 h 1.128888 l -0.02822,-2.81658 h 0.2032 l 1.416754,2.81658 h 0.953911 l 1.416754,-2.81658 h 0.191911 l -0.02822,2.81658 h 1.128888 v -3.76485 h -2.065865 l -1.123244,2.44405 -1.117599,-2.44405 z m 6.908799,3.76485 h 1.14582 v -0.92005 h 1.44498 c 0.8128,0 1.0668,-0.0226 1.3208,-0.10724 0.45155,-0.16369 0.60395,-0.49107 0.60395,-1.32645 0,-0.9652 -0.2032,-1.27 -0.9144,-1.37724 -0.20884,-0.0282 -0.31044,-0.0339 -1.02164,-0.0339 h -2.57951 z m 1.14582,-1.86267 v -0.95955 h 1.43369 c 0.50236,0.006 0.51364,0.006 0.59267,0.0339 0.14675,0.0508 0.19755,0.16369 0.19755,0.43462 0,0.25965 -0.0339,0.36125 -0.14111,0.42898 -0.0959,0.0564 -0.11853,0.0564 -0.64911,0.0621 z m 3.74791,-1.90218 v 3.76485 h 1.20227 v -1.36031 h 2.5908 v 1.36031 h 1.20226 v -3.76485 h -1.20226 v 1.34903 h -2.5908 v -1.34903 z"
             id="path1839"
             aria-label="MPH"
             transform="matrix(3.7795276,0,0,3.7795276,2519.5983,89.686852)" /><path
             style="baseline-shift:baseline;display:inline;overflow:visible;opacity:1;vector-effect:none;fill:#000000;fill-opacity:1;stroke:none;stroke-width:1.00157;stroke-linejoin:round;stroke-dasharray:none;stroke-dashoffset:0;stroke-opacity:1;enable-background:accumulate;stop-color:#000000;stop-opacity:1"
             d="m 55.800009,-4.6075551 c -3.00673,0 -5.93675,0.303025 -8.81807,0.753443 C 23.527719,-0.19038515 4.7834589,17.746346 0.05663895,40.83205 v 5.2e-4 c -0.37887,1.85048 -0.66822,3.73362 -0.86248,5.64461 -0.19457995,1.91232 -0.29455995,3.85243 -0.29455995,5.81567 0,3.92576 0.39866995,7.75933 1.15755995,11.46235 4.92932995,24.06937 25.07119005,42.61713 49.92821005,45.14401 3.5e-4,4e-5 7e-4,-3e-5 0.001,0 1.91158,0.19429 3.85155,0.29402 5.81412,0.29404 2.03899,-2e-5 4.05298,-0.10759 6.03684,-0.31729 26.78892,-2.82905 48.052401,-24.27259 50.605701,-51.1421 0.0851,-0.89534 0.0856,-1.81337 0.12867,-2.72025 0.043,-0.90713 0.12867,-1.80304 0.12868,-2.72076 v -5.2e-4 c 0,-29.445925 -22.403631,-53.6898661 -51.084741,-56.6053291 -1.91232,-0.194578 -3.85243,-0.294556 -5.81566,-0.294556 z m -0.50695,4.20387795 v 0.665593 h 0.007 V 1.4670099 h 0.99994 V 0.26191585 h 0.008 v -0.665593 c 6.78454,0.06384 13.26062,1.40637805 19.19883,3.79821805 l -0.26252,0.633553 0.006,0.0026 -0.46199,1.114144 0.92398,0.382405 0.46147,-1.114144 0.007,0.0031 0.26252,-0.633553 c 6.10085,2.59579 11.6098,6.3074351 16.27136,10.8804731 l -0.47956,0.480074 0.004,0.0041 -0.85266,0.852661 0.70693,0.706933 0.85318,-0.852661 0.006,0.0057 0.48008,-0.479558 c 4.57305,4.661393 8.285221,10.170186 10.880991,16.270842 l -0.63407,0.263033 0.002,0.0047 -1.11517,0.461987 0.38292,0.923975 1.11518,-0.462505 0.004,0.0083 0.63356,-0.262517 c 2.39162,5.937549 3.73379,12.412887 3.7977,19.196767 h -0.6656 v 0.008 h -1.20716 v 0.99994 h 1.20716 v 0.006 h 0.6656 c -0.27111,28.89669 -23.737191,52.19319 -52.698591,52.19319 -14.38246,0 -27.4092,-5.74544 -36.913,-15.06884 l 0.48111,-0.4806 -0.005,-0.005 0.85111,-0.85215 -0.70693,-0.70693 -0.85111,0.85214 -0.005,-0.005 -0.48111,0.48059 C 13.598109,84.54481 9.885959,79.0358 7.290219,72.93493 l 0.63511,-0.26303 -0.002,-0.006 1.11259,-0.46095 -0.38292,-0.92398 -1.1126,0.46096 -0.003,-0.007 -0.6351,0.26303 C 4.510489,66.05971 3.168249,59.58392 3.104599,52.79914 h 0.66662 v -0.006 h 1.20407 V 51.7932 h -1.2051 v -0.008 h -0.66663 c 0.0639,-6.78458 1.4063,-13.260265 3.79822,-19.198317 l 0.63459,0.262 0.002,-0.0052 1.11363,0.461471 0.38292,-0.923975 -1.11363,-0.461471 0.003,-0.0072 -0.63459,-0.262517 c 2.59571,-6.100299 6.30774,-11.609214 10.88048,-16.270324 l 0.4811,0.480591 0.005,-0.0047 0.85163,0.851627 0.70694,-0.706933 -0.85112,-0.851628 0.005,-0.0052 -0.4811,-0.480591 c 4.66119,-4.573043 10.17018,-8.2850851 16.27073,-10.8807191 l 0.26251,0.63407 0.006,-0.0026 0.46096,1.113627 0.92397,-0.382405 -0.46095,-1.114144 0.006,-0.0026 -0.26252,-0.63407 c 5.9382,-2.391832 12.41411,-3.73398505 19.19883,-3.79770105 z"
             id="path1840"
             transform="matrix(3.7795276,0,0,3.7795276,2692.7601,301.93402)" /></g><g
           id="g1848"
           style="display:inline;fill:url(#linearGradient19);stroke:#000000;stroke-width:1.00157;stroke-dasharray:1.00157, 1.00157;stroke-dashoffset:0;stroke-opacity:0.174959"
           transform="matrix(0.26458333,0,0,0.26458333,-712.45944,-79.886709)"><path
             style="font-size:7.05556px;font-family:'Microgramma D Extended';-inkscape-font-specification:'Microgramma D Extended';text-align:center;letter-spacing:0px;word-spacing:0px;text-anchor:middle;display:inline;fill:url(#linearGradient169);fill-opacity:1;stroke:none;stroke-width:2.7;stroke-linejoin:round;stroke-dasharray:1.00157, 1.00157;stroke-dashoffset:0;stroke-opacity:0.174959"
             d="m 21.677193,19.85284 c -0.268111,0.04233 -0.373945,0.07056 -0.486834,0.127 -0.310444,0.155222 -0.430389,0.451556 -0.430389,1.051278 0,0.627945 0.155222,0.931334 0.557389,1.107723 0.352778,0.148167 0.691445,0.176389 2.201335,0.176389 1.326445,0 1.658057,-0.02117 1.996724,-0.105833 0.5715,-0.148167 0.769056,-0.458611 0.769056,-1.178279 0,-0.543278 -0.09172,-0.818444 -0.338667,-0.994833 -0.119945,-0.09172 -0.232834,-0.127001 -0.578556,-0.183445 0.649111,-0.04939 0.860778,-0.303389 0.860778,-1.044223 0,-0.613834 -0.155222,-0.938389 -0.543278,-1.114778 -0.296334,-0.134056 -1.00189,-0.197556 -2.166057,-0.197556 -0.924278,0 -1.686279,0.04939 -1.982612,0.134056 -0.515056,0.148166 -0.719667,0.479778 -0.719667,1.178278 0,0.740834 0.211666,0.994834 0.860778,1.044223 z m 1.70039,-1.298223 c 0.515056,0 1.072445,0.02117 1.227667,0.04939 0.183445,0.03528 0.261056,0.141111 0.261056,0.359833 0,0.402167 0,0.402167 -1.397001,0.402167 -1.234723,0 -1.291167,-0.01411 -1.291167,-0.402167 0,-0.366889 0.127,-0.409222 1.199445,-0.409223 z m 0.141111,1.82739 c 0.508,0 1.079501,0.02117 1.178279,0.04939 0.169333,0.04233 0.225778,0.127 0.225778,0.366889 0,0.437445 -0.0635,0.458611 -1.538113,0.458611 -1.213556,0 -1.262945,-0.01411 -1.262945,-0.423333 0,-0.437445 0.03528,-0.451556 1.397001,-0.451556 z m 6.406446,-2.885724 c -0.860778,0 -1.545168,0.02822 -1.897946,0.08467 -0.557389,0.07761 -0.910167,0.402167 -1.001889,0.910167 -0.04939,0.268111 -0.05644,0.395111 -0.05644,1.347612 0,1.121834 0,1.199445 0.05644,1.481667 0.09172,0.508001 0.4445,0.832557 1.001889,0.910168 0.345723,0.05644 1.037168,0.08467 1.897946,0.08467 0.853723,0 1.545168,-0.02822 1.89089,-0.08467 0.557389,-0.07761 0.910167,-0.402167 1.001889,-0.910168 0.04939,-0.275166 0.05644,-0.381 0.05644,-1.418167 0,-1.030112 -0.0071,-1.135945 -0.05644,-1.411112 -0.09172,-0.508 -0.4445,-0.832556 -1.001889,-0.910167 -0.352778,-0.05645 -1.037167,-0.08467 -1.89089,-0.08467 z m -0.09172,1.220612 c 1.580445,0 1.608667,0.02117 1.608667,1.185334 0,1.171223 -0.02117,1.19239 -1.615723,1.19239 -1.375834,0 -1.425223,-0.04233 -1.425223,-1.213557 0,-1.114778 0.0635,-1.164167 1.432279,-1.164167 z"
             id="path1841"
             aria-label="80"
             transform="matrix(3.7795276,0,0,3.7795276,2692.7601,301.93402)" /><path
             style="font-size:7.05556px;font-family:'Microgramma D Extended';-inkscape-font-specification:'Microgramma D Extended';text-align:center;letter-spacing:0px;word-spacing:0px;text-anchor:middle;display:inline;fill:url(#linearGradient170);fill-opacity:1;stroke:none;stroke-width:2.7;stroke-linejoin:round;stroke-dasharray:1.00157, 1.00157;stroke-dashoffset:0;stroke-opacity:0.174959"
             d="m 48.790516,3.8153448 -1.721556,1.474612 0.790222,0.924278 1.389946,-1.171223 h 0.373944 v 3.478391 h 1.432279 v -4.706058 z m 4.952998,1.749779 v -0.162278 c 0.0071,-0.352778 0.03528,-0.479778 0.155222,-0.522112 0.148167,-0.0635 0.522114,-0.08467 1.432274,-0.08467 0.74789,0 0.93839,0.0071 1.06539,0.04939 0.17639,0.04939 0.22578,0.148167 0.22578,0.423334 0,0.381 -0.0635,0.416278 -0.89605,0.479778 -1.29823,0.105833 -1.968505,0.155222 -2.024949,0.162278 -0.733779,0.09878 -1.037168,0.275167 -1.185335,0.712612 -0.07761,0.218722 -0.105833,0.578555 -0.105833,1.361723 0,0.225778 0,0.303389 0.02117,0.536222 h 5.609167 v -1.079501 h -4.296833 v -0.04939 c 0.0071,-0.232834 0.05644,-0.324556 0.232833,-0.395112 0.09172,-0.04233 0.36689,-0.0635 2.34244,-0.1905 0.79728,-0.04233 1.23473,-0.197556 1.43934,-0.500945 0.14816,-0.225778 0.20461,-0.500944 0.20461,-1.058334 0,-0.747889 -0.0988,-1.058334 -0.41628,-1.262945 -0.31044,-0.204611 -0.54328,-0.225778 -2.50472,-0.225778 -2.384779,0 -2.681113,0.176389 -2.681113,1.601612 v 0.204612 z m 7.838726,-1.806224 c -0.86078,0 -1.54517,0.02822 -1.89795,0.08467 -0.55739,0.07761 -0.91016,0.402167 -1.00189,0.910167 -0.0494,0.268111 -0.0564,0.395111 -0.0564,1.347612 0,1.121834 0,1.199445 0.0564,1.481668 0.0917,0.508 0.4445,0.832556 1.00189,0.910167 0.34573,0.05644 1.03717,0.08467 1.89795,0.08467 0.85372,0 1.54517,-0.02822 1.89089,-0.08467 0.55739,-0.07761 0.91017,-0.402167 1.00189,-0.910167 0.0494,-0.275167 0.0564,-0.381001 0.0564,-1.418168 0,-1.030112 -0.007,-1.135945 -0.0564,-1.411112 -0.0917,-0.508 -0.4445,-0.832556 -1.00189,-0.910167 -0.35278,-0.05645 -1.03717,-0.08467 -1.89089,-0.08467 z m -0.0917,1.220612 c 1.58044,0 1.60866,0.02117 1.60866,1.185334 0,1.171223 -0.0212,1.19239 -1.61572,1.19239 -1.37583,0 -1.42522,-0.04233 -1.42522,-1.213557 0,-1.114778 0.0635,-1.164167 1.43228,-1.164167 z"
             id="path1842"
             aria-label="120"
             transform="matrix(3.7795276,0,0,3.7795276,2692.7601,301.93402)" /><path
             style="font-size:7.05556px;font-family:'Microgramma D Extended';-inkscape-font-specification:'Microgramma D Extended';text-align:center;letter-spacing:0px;word-spacing:0px;text-anchor:middle;display:inline;fill:url(#linearGradient171);fill-opacity:1;stroke:none;stroke-width:2.7;stroke-linejoin:round;stroke-dasharray:1.00157, 1.00157;stroke-dashoffset:0;stroke-opacity:0.174959"
             d="m 75.337726,17.552726 -1.72156,1.474612 0.79023,0.924279 1.38994,-1.171223 h 0.37395 v 3.478391 h 1.43228 v -4.706059 z m 9.144,1.31939 c -0.007,-0.599723 -0.0565,-0.818445 -0.22578,-0.994834 -0.27517,-0.296334 -0.80433,-0.381 -2.40595,-0.381 -2.12372,0 -2.667,0.176389 -2.83633,0.924278 -0.0706,0.310445 -0.0847,0.550334 -0.0847,1.333501 0,1.566334 0.0564,1.89089 0.37395,2.187224 0.3175,0.289278 0.80433,0.373944 2.159,0.373944 1.45344,0 2.01789,-0.03528 2.32128,-0.155222 0.48683,-0.183445 0.66322,-0.564445 0.66322,-1.411112 0,-1.270001 -0.39511,-1.538112 -2.24367,-1.538112 -1.23472,0 -1.54517,0.07055 -1.905,0.416278 -0.007,-0.112889 -0.007,-0.204611 -0.007,-0.261056 0,-0.451556 0.0494,-0.620889 0.19756,-0.6985 0.15522,-0.07056 0.53622,-0.105834 1.22767,-0.105834 0.22578,0 0.49389,0.0071 0.79728,0.02117 0.43744,0.01411 0.47977,0.02117 0.55033,0.07761 0.0494,0.03528 0.0706,0.08467 0.0776,0.211667 z m -2.96334,1.397001 c 1.46756,0 1.53811,0.02117 1.53811,0.500945 0,0.303389 -0.0988,0.430389 -0.34572,0.451555 -0.14817,0.01411 -0.80433,0.03528 -1.22767,0.03528 -0.47272,0 -0.78316,-0.01411 -0.889,-0.04233 -0.19755,-0.04233 -0.27516,-0.176389 -0.27516,-0.451556 0,-0.211667 0.0776,-0.359834 0.22577,-0.423334 0.13406,-0.05644 0.29634,-0.07055 0.97367,-0.07055 z m 6.61811,-2.772835 c -0.86077,0 -1.54516,0.02822 -1.89794,0.08467 -0.55739,0.07761 -0.91017,0.402167 -1.00189,0.910168 -0.0494,0.268111 -0.0564,0.395111 -0.0564,1.347612 0,1.121834 0,1.199445 0.0564,1.481667 0.0917,0.508001 0.4445,0.832556 1.00189,0.910168 0.34572,0.05644 1.03717,0.08467 1.89794,0.08467 0.85373,0 1.54517,-0.02822 1.89089,-0.08467 0.55739,-0.07761 0.91017,-0.402167 1.00189,-0.910168 0.0494,-0.275167 0.0564,-0.381 0.0564,-1.418167 0,-1.030112 -0.007,-1.135945 -0.0564,-1.411112 -0.0917,-0.508001 -0.4445,-0.832556 -1.00189,-0.910168 -0.35277,-0.05644 -1.03716,-0.08467 -1.89089,-0.08467 z m -0.0917,1.220612 c 1.58045,0 1.60867,0.02117 1.60867,1.185334 0,1.171223 -0.0212,1.192389 -1.61572,1.192389 -1.37584,0 -1.42523,-0.04233 -1.42523,-1.213556 0,-1.114778 0.0635,-1.164167 1.43228,-1.164167 z"
             id="path1843"
             aria-label="160"
             transform="matrix(3.7795276,0,0,3.7795276,2692.7601,301.93402)" /><path
             style="font-size:7.05556px;font-family:'Microgramma D Extended';-inkscape-font-specification:'Microgramma D Extended';text-align:center;letter-spacing:0px;word-spacing:0px;text-anchor:middle;display:inline;fill:url(#linearGradient172);fill-opacity:1;stroke:none;stroke-width:2.7;stroke-linejoin:round;stroke-dasharray:1.00157, 1.00157;stroke-dashoffset:0;stroke-opacity:0.174959"
             d="m 87.306096,51.724187 v -0.16228 c 0.007,-0.35277 0.0353,-0.47977 0.15522,-0.52211 0.14817,-0.0635 0.52211,-0.0847 1.43228,-0.0847 0.74789,0 0.93839,0.007 1.06539,0.0494 0.17639,0.0494 0.22578,0.14816 0.22578,0.42333 0,0.381 -0.0635,0.41628 -0.89606,0.47978 -1.29822,0.10583 -1.9685,0.15522 -2.02494,0.16227 -0.73378,0.0988 -1.03717,0.27517 -1.18534,0.71262 -0.0776,0.21872 -0.10583,0.57855 -0.10583,1.36172 0,0.22578 0,0.30339 0.0212,0.53622 h 5.60917 v -1.0795 h -4.29684 v -0.0494 c 0.007,-0.23283 0.0564,-0.32455 0.23283,-0.39511 0.0917,-0.0423 0.36689,-0.0635 2.34245,-0.1905 0.79728,-0.0423 1.23472,-0.19755 1.43933,-0.50094 0.14817,-0.22578 0.20462,-0.50095 0.20462,-1.05834 0,-0.74789 -0.0988,-1.05833 -0.41628,-1.26294 -0.31045,-0.20461 -0.54328,-0.22578 -2.50473,-0.22578 -2.38478,0 -2.68111,0.17639 -2.68111,1.60161 v 0.20461 z m 7.83872,-1.80622 c -0.86077,0 -1.54516,0.0282 -1.89794,0.0847 -0.55739,0.0776 -0.91017,0.40216 -1.00189,0.91016 -0.0494,0.26811 -0.0564,0.39511 -0.0564,1.34761 0,1.12184 0,1.19945 0.0564,1.48167 0.0917,0.508 0.4445,0.83256 1.00189,0.91017 0.34572,0.0564 1.03717,0.0847 1.89794,0.0847 0.85373,0 1.54517,-0.0282 1.89089,-0.0847 0.55739,-0.0776 0.91017,-0.40217 1.00189,-0.91017 0.0494,-0.27516 0.0564,-0.381 0.0564,-1.41817 0,-1.03011 -0.007,-1.13594 -0.0564,-1.41111 -0.0917,-0.508 -0.4445,-0.83255 -1.00189,-0.91016 -0.35277,-0.0564 -1.03716,-0.0847 -1.89089,-0.0847 z m -0.0917,1.22061 c 1.58045,0 1.60867,0.0212 1.60867,1.18533 0,1.17123 -0.0212,1.19239 -1.61572,1.19239 -1.37584,0 -1.42523,-0.0423 -1.42523,-1.21355 0,-1.11478 0.0635,-1.16417 1.43228,-1.16417 z m 6.491124,-1.22061 c -0.86078,0 -1.545177,0.0282 -1.897957,0.0847 -0.557387,0.0776 -0.910167,0.40216 -1.001887,0.91016 -0.0494,0.26811 -0.0564,0.39511 -0.0564,1.34761 0,1.12184 0,1.19945 0.0564,1.48167 0.0917,0.508 0.4445,0.83256 1.001887,0.91017 0.34572,0.0564 1.037177,0.0847 1.897957,0.0847 0.85372,0 1.54516,-0.0282 1.89089,-0.0847 0.55738,-0.0776 0.91016,-0.40217 1.00188,-0.91017 0.0494,-0.27516 0.0565,-0.381 0.0565,-1.41817 0,-1.03011 -0.007,-1.13594 -0.0565,-1.41111 -0.0917,-0.508 -0.4445,-0.83255 -1.00188,-0.91016 -0.35278,-0.0564 -1.03717,-0.0847 -1.89089,-0.0847 z m -0.0917,1.22061 c 1.58045,0 1.60867,0.0212 1.60867,1.18533 0,1.17123 -0.0212,1.19239 -1.61572,1.19239 -1.37584,0 -1.42523,-0.0423 -1.42523,-1.21355 0,-1.11478 0.0635,-1.16417 1.43228,-1.16417 z"
             id="path1844"
             aria-label="200"
             transform="matrix(3.7795276,0,0,3.7795276,2692.7601,301.93402)" /><path
             style="font-size:7.05556px;font-family:'Microgramma D Extended';-inkscape-font-specification:'Microgramma D Extended';text-align:center;letter-spacing:0px;word-spacing:0px;text-anchor:middle;display:inline;fill:url(#linearGradient173);fill-opacity:1;stroke:none;stroke-width:2.7;stroke-linejoin:round;stroke-dasharray:1.00157, 1.00157;stroke-dashoffset:0;stroke-opacity:0.174959"
             d="m 13.244988,52.803657 h -0.917223 v -2.77283 h -2.321279 l -2.7940023,2.032 v 1.79916 h 3.7535583 v 0.87489 h 1.361723 v -0.87489 h 0.917223 z m -2.278946,0 H 8.4965957 v -0.18344 l 2.1801683,-1.49578 h 0.289278 z m 5.524501,-2.82928 c -0.860778,0 -1.545168,0.0282 -1.897946,0.0847 -0.557389,0.0776 -0.910167,0.40216 -1.001889,0.91016 -0.04939,0.26812 -0.05644,0.39512 -0.05644,1.34762 0,1.12183 0,1.19944 0.05644,1.48166 0.09172,0.508 0.4445,0.83256 1.001889,0.91017 0.345723,0.0564 1.037168,0.0847 1.897946,0.0847 0.853723,0 1.545168,-0.0282 1.89089,-0.0847 0.557389,-0.0776 0.910167,-0.40217 1.00189,-0.91017 0.04939,-0.27516 0.05644,-0.381 0.05644,-1.41816 0,-1.03012 -0.0071,-1.13595 -0.05644,-1.41112 -0.09172,-0.508 -0.444501,-0.83255 -1.00189,-0.91016 -0.352778,-0.0564 -1.037167,-0.0847 -1.89089,-0.0847 z m -0.09172,1.22061 c 1.580445,0 1.608667,0.0212 1.608667,1.18534 0,1.17122 -0.02117,1.19239 -1.615723,1.19239 -1.375834,0 -1.425223,-0.0423 -1.425223,-1.21356 0,-1.11478 0.0635,-1.16417 1.432279,-1.16417 z"
             id="path1845"
             aria-label="40"
             transform="matrix(3.7795276,0,0,3.7795276,2692.7601,301.93402)" /><path
             style="font-size:7.05556px;font-family:'Microgramma D Extended';-inkscape-font-specification:'Microgramma D Extended';text-align:center;letter-spacing:0px;word-spacing:0px;text-anchor:middle;display:inline;fill:url(#linearGradient174);fill-opacity:1;stroke:none;stroke-width:2.7;stroke-linejoin:round;stroke-dasharray:1.00157, 1.00157;stroke-dashoffset:0;stroke-opacity:0.174959"
             d="m 24.606678,82.7176 c -0.860778,0 -1.545168,0.0282 -1.897946,0.0847 -0.557389,0.0776 -0.910167,0.40217 -1.001889,0.91017 -0.04939,0.26811 -0.05645,0.39511 -0.05645,1.34761 0,1.12183 0,1.19944 0.05645,1.48167 0.09172,0.508 0.4445,0.83255 1.001889,0.91016 0.345723,0.0564 1.037168,0.0847 1.897946,0.0847 0.853723,0 1.545168,-0.0282 1.89089,-0.0847 0.557389,-0.0776 0.910167,-0.40216 1.00189,-0.91016 0.04939,-0.27517 0.05644,-0.381 0.05644,-1.41817 0,-1.03011 -0.0071,-1.13595 -0.05644,-1.41111 -0.09172,-0.508 -0.444501,-0.83256 -1.00189,-0.91017 -0.352778,-0.0564 -1.037167,-0.0847 -1.89089,-0.0847 z m -0.09172,1.22061 c 1.580445,0 1.608668,0.0212 1.608668,1.18534 0,1.17122 -0.02117,1.19239 -1.615724,1.19239 -1.375834,0 -1.425223,-0.0423 -1.425223,-1.21356 0,-1.11478 0.0635,-1.16417 1.432279,-1.16417 z"
             id="path1846"
             aria-label="0"
             transform="matrix(3.7795276,0,0,3.7795276,2692.7601,301.93402)" /><path
             style="font-size:5.64444px;font-family:'Microgramma D Extended';-inkscape-font-specification:'Microgramma D Extended';text-align:center;letter-spacing:0px;word-spacing:0px;text-anchor:middle;display:inline;fill:url(#linearGradient175);fill-opacity:1;stroke:none;stroke-width:2.7;stroke-linejoin:round;stroke-dasharray:1.00157, 1.00157;stroke-dashoffset:0;stroke-opacity:0.174959"
             d="m 93.216791,127.88495 v 3.76485 h 1.128888 l -0.02822,-2.81658 h 0.2032 l 1.416754,2.81658 h 0.953911 l 1.416754,-2.81658 h 0.191911 l -0.02822,2.81658 h 1.128888 v -3.76485 h -2.065865 l -1.123244,2.44405 -1.117599,-2.44405 z m 6.908799,3.76485 h 1.14582 v -0.92005 h 1.44498 c 0.8128,0 1.0668,-0.0226 1.3208,-0.10724 0.45155,-0.16369 0.60395,-0.49107 0.60395,-1.32645 0,-0.9652 -0.2032,-1.27 -0.9144,-1.37724 -0.20884,-0.0282 -0.31044,-0.0339 -1.02164,-0.0339 h -2.57951 z m 1.14582,-1.86267 v -0.95955 h 1.43369 c 0.50236,0.006 0.51364,0.006 0.59267,0.0339 0.14675,0.0508 0.19755,0.16369 0.19755,0.43462 0,0.25965 -0.0339,0.36125 -0.14111,0.42898 -0.0959,0.0564 -0.11853,0.0564 -0.64911,0.0621 z m 3.74791,-1.90218 v 3.76485 h 1.20227 v -1.36031 h 2.5908 v 1.36031 h 1.20226 v -3.76485 h -1.20226 v 1.34903 h -2.5908 v -1.34903 z"
             id="path1847"
             aria-label="MPH"
             transform="matrix(3.7795276,0,0,3.7795276,2519.5983,89.686852)" /><path
             style="baseline-shift:baseline;display:inline;overflow:visible;opacity:1;vector-effect:none;fill:url(#linearGradient176);fill-opacity:1;stroke:none;stroke-width:1.00157;stroke-linejoin:round;stroke-dasharray:none;stroke-dashoffset:0;stroke-opacity:1;enable-background:accumulate;stop-color:#000000;stop-opacity:1"
             d="m 55.800009,-4.6075551 c -3.00673,0 -5.93675,0.303025 -8.81807,0.753443 C 23.527719,-0.19038515 4.7834589,17.746346 0.05663895,40.83205 v 5.2e-4 c -0.37887,1.85048 -0.66822,3.73362 -0.86248,5.64461 -0.19457995,1.91232 -0.29455995,3.85243 -0.29455995,5.81567 0,3.92576 0.39866995,7.75933 1.15755995,11.46235 4.92932995,24.06937 25.07119005,42.61713 49.92821005,45.14401 3.5e-4,4e-5 7e-4,-3e-5 0.001,0 1.91158,0.19429 3.85155,0.29402 5.81412,0.29404 2.03899,-2e-5 4.05298,-0.10759 6.03684,-0.31729 26.78892,-2.82905 48.052401,-24.27259 50.605701,-51.1421 0.0851,-0.89534 0.0856,-1.81337 0.12867,-2.72025 0.043,-0.90713 0.12867,-1.80304 0.12868,-2.72076 v -5.2e-4 c 0,-29.445925 -22.403631,-53.6898661 -51.084741,-56.6053291 -1.91232,-0.194578 -3.85243,-0.294556 -5.81566,-0.294556 z m -0.50695,4.20387795 v 0.665593 h 0.007 V 1.4670099 h 0.99994 V 0.26191585 h 0.008 v -0.665593 c 6.78454,0.06384 13.26062,1.40637805 19.19883,3.79821805 l -0.26252,0.633553 0.006,0.0026 -0.46199,1.114144 0.92398,0.382405 0.46147,-1.114144 0.007,0.0031 0.26252,-0.633553 c 6.10085,2.59579 11.6098,6.3074351 16.27136,10.8804731 l -0.47956,0.480074 0.004,0.0041 -0.85266,0.852661 0.70693,0.706933 0.85318,-0.852661 0.006,0.0057 0.48008,-0.479558 c 4.57305,4.661393 8.285221,10.170186 10.880991,16.270842 l -0.63407,0.263033 0.002,0.0047 -1.11517,0.461987 0.38292,0.923975 1.11518,-0.462505 0.004,0.0083 0.63356,-0.262517 c 2.39162,5.937549 3.73379,12.412887 3.7977,19.196767 h -0.6656 v 0.008 h -1.20716 v 0.99994 h 1.20716 v 0.006 h 0.6656 c -0.27111,28.89669 -23.737191,52.19319 -52.698591,52.19319 -14.38246,0 -27.4092,-5.74544 -36.913,-15.06884 l 0.48111,-0.4806 -0.005,-0.005 0.85111,-0.85215 -0.70693,-0.70693 -0.85111,0.85214 -0.005,-0.005 -0.48111,0.48059 C 13.598109,84.54481 9.885959,79.0358 7.290219,72.93493 l 0.63511,-0.26303 -0.002,-0.006 1.11259,-0.46095 -0.38292,-0.92398 -1.1126,0.46096 -0.003,-0.007 -0.6351,0.26303 C 4.510489,66.05971 3.168249,59.58392 3.104599,52.79914 h 0.66662 v -0.006 h 1.20407 V 51.7932 h -1.2051 v -0.008 h -0.66663 c 0.0639,-6.78458 1.4063,-13.260265 3.79822,-19.198317 l 0.63459,0.262 0.002,-0.0052 1.11363,0.461471 0.38292,-0.923975 -1.11363,-0.461471 0.003,-0.0072 -0.63459,-0.262517 c 2.59571,-6.100299 6.30774,-11.609214 10.88048,-16.270324 l 0.4811,0.480591 0.005,-0.0047 0.85163,0.851627 0.70694,-0.706933 -0.85112,-0.851628 0.005,-0.0052 -0.4811,-0.480591 c 4.66119,-4.573043 10.17018,-8.2850851 16.27073,-10.8807191 l 0.26251,0.63407 0.006,-0.0026 0.46096,1.113627 0.92397,-0.382405 -0.46095,-1.114144 0.006,-0.0026 -0.26252,-0.63407 c 5.9382,-2.391832 12.41411,-3.73398505 19.19883,-3.79770105 z"
             id="path1848"
             transform="matrix(3.7795276,0,0,3.7795276,2692.7601,301.93402)" /></g></g><g
         id="g1860"
         style="display:inline;fill:#1a1a1a;stroke:#000000;stroke-width:1.00157;stroke-dasharray:1.00157, 1.00157;stroke-dashoffset:0;stroke-opacity:0.174959"
         transform="matrix(2.6727588,-2.6723004,2.6723004,2.6727588,2334.9762,473.63633)"><path
           id="path1859"
           style="display:inline;fill:#f4e5ac;fill-opacity:1;fill-rule:evenodd;stroke:none;stroke-width:1.00157;stroke-linecap:square;stroke-miterlimit:4;stroke-dasharray:1.00157, 1.00157;stroke-dashoffset:0;stroke-opacity:1"
           d="M 107.15743,113.37375 95.827398,113.04052 51.55032,111.73825 v -1 l 44.277078,-1.30227 11.330032,-0.33323 12.39289,-0.3645 v 5 z" /></g></g></g></svg>
